<svg width="95" height="80" viewBox="0 0 95 80" fill="none" xmlns="http://www.w3.org/2000/svg">
<g clip-path="url(#clip0_696_17636)">
<g clip-path="url(#clip1_696_17636)">
<path d="M46.8287 20C22.0704 20 2 40.0883 2 64.8679C2 70.6781 3.1036 76.2306 5.11235 81.3263L88.5036 81.4312C90.5388 76.3068 91.6579 70.7178 91.6579 64.8679C91.6579 40.0883 71.5869 20 46.8287 20Z" fill="#E6F2E8"/>
<path d="M46.8232 19.8332C49.4338 19.8332 51.5501 17.715 51.5501 15.1021C51.5501 12.4892 49.4338 10.3711 46.8232 10.3711C44.2125 10.3711 42.0962 12.4892 42.0962 15.1021C42.0962 17.715 44.2125 19.8332 46.8232 19.8332Z" fill="#CCCCCC"/>
<path d="M68.6785 16.2334H25.2357C22.8001 16.2334 20.8257 18.2095 20.8257 20.6472V74.9495C20.8257 77.3872 22.8001 79.3633 25.2357 79.3633H68.6785C71.1141 79.3633 73.0885 77.3872 73.0885 74.9495V20.6472C73.0885 18.2095 71.1141 16.2334 68.6785 16.2334Z" fill="#F5F1E1" stroke="#1E1E1E"/>
<path d="M25.9565 18.6631H68.4082V70.6206H25.9565V18.6631Z" fill="white" stroke="#CCCCCC" stroke-linecap="round" stroke-linejoin="round"/>
<path d="M41.1309 33.4746H62.5558M41.1309 42.1477H54.4458M41.1309 50.8208H58.0504M30.7322 33.0403L32.833 35.2086L37.0346 30.8721M30.7322 41.714L32.833 43.8823L37.0346 39.5457M30.7322 50.3871L32.833 52.5554L37.0346 48.2188" stroke="#1E1E1E" stroke-linecap="round"/>
<path d="M44.1807 12.3425C44.5128 11.9701 44.92 11.6722 45.3753 11.4684C45.8307 11.2646 46.324 11.1596 46.8228 11.1602C47.8729 11.1602 48.8161 11.617 49.4655 12.3431" stroke="#FAFAFA" stroke-linecap="round"/>
<path d="M31.3425 17.5452C31.3425 16.4477 31.7781 15.3952 32.5535 14.6192C33.3288 13.8432 34.3804 13.4072 35.4769 13.4072H58.1691C59.2656 13.4072 60.3172 13.8432 61.0925 14.6192C61.8678 15.3952 62.3034 16.4477 62.3034 17.5452V19.9518H31.3425V17.5452Z" fill="#FAFAFA" stroke="#CCCCCC"/>
<path d="M31.0669 18.7273C31.0669 17.5567 31.5315 16.434 32.3586 15.6062C33.1856 14.7785 34.3073 14.3135 35.4769 14.3135H58.1691C59.3387 14.3135 60.4604 14.7785 61.2874 15.6062C62.1144 16.434 62.579 17.5567 62.579 18.7273V20.2269H31.0669V18.7273Z" fill="#CCCCCC"/>
<path d="M8.42666 12.9083C8.30153 12.3885 7.8021 11.8688 7.30212 11.7386L3.17877 10.18C2.67934 10.0498 2.67934 9.78991 3.17877 9.53004L7.30212 7.97087C7.80155 7.97087 8.30153 7.45115 8.42666 6.93142L9.92606 2.64398C10.0506 2.12425 10.3009 2.12425 10.5506 2.64398L12.05 6.93142C12.1746 7.45115 12.6746 7.97087 13.1746 8.10108L17.2974 9.66025C17.7968 9.78991 17.7968 10.0498 17.2974 10.3096L13.0494 11.7386C12.5495 11.8688 12.0495 12.3885 11.9249 12.9083L10.4255 17.1957C10.3004 17.7154 10.0506 17.7154 9.80093 17.1957L8.42666 12.9088V12.9083ZM87.3468 4.35818L86.1539 4.95956L86.6842 3.60673L86.1539 2.25391L87.3468 2.85529L88.4068 2.25391L87.8765 3.60673L88.4068 4.95956L87.3468 4.35818Z" fill="#F0B849"/>
<path d="M70.7522 3.72583C70.5075 3.60335 70.1398 3.60335 70.0174 3.72583L68.4254 4.46128C68.1801 4.58376 68.0577 4.46128 68.1801 4.21632L68.9149 2.62238C69.0378 2.37742 69.0378 2.00997 68.9149 1.88694L68.1801 0.293557C68.0577 0.04804 68.1801 -0.0744428 68.4254 0.04804L70.0174 0.783488C70.2621 0.905971 70.6298 0.905971 70.7522 0.783488L72.3448 0.04804C72.5895 -0.0744428 72.7119 0.04804 72.5895 0.293557L71.8547 1.88694C71.7323 2.1319 71.7323 2.49935 71.8547 2.62238L72.5895 4.21632C72.7119 4.46128 72.5895 4.58376 72.3448 4.46128L70.7522 3.72583Z" fill="#1D35B4"/>
<path d="M25.9605 6.37591C25.6909 6.2446 25.2869 6.2446 25.1518 6.37591L23.4005 7.16378C23.1309 7.29453 22.9964 7.16378 23.1309 6.90115L23.9396 5.19412C24.0741 4.93205 24.0741 4.53757 23.9396 4.40681L23.1304 2.56902C22.9959 2.3064 23.1304 2.17509 23.4 2.3064L25.1513 3.09371C25.4214 3.22502 25.8249 3.22502 25.96 3.09371L27.7113 2.3064C27.9808 2.17509 28.1153 2.3064 27.9808 2.56902L27.1722 4.2755C26.9031 4.53812 26.9031 4.93205 27.0376 5.19412L27.8463 6.90115C27.9808 7.16378 27.8463 7.29453 27.5762 7.16378L25.96 6.37591H25.9605Z" fill="#D6A4FF"/>
<path d="M7.1313 31.0192C6.98936 30.7514 6.77047 30.5323 6.50287 30.3903L5.24492 29.8866C4.99355 29.7608 4.99355 29.635 5.24492 29.635L6.50232 29.1318C6.76989 28.9897 6.98878 28.7706 7.13075 28.5028L7.63404 27.2444C7.75972 26.9928 7.88541 26.9928 7.88541 27.2444L8.38814 28.5023C8.51383 28.7544 8.76575 29.006 9.01657 29.1318L10.2745 29.635C10.5259 29.7608 10.5259 29.8866 10.2745 29.8866L9.01712 30.3903C8.74953 30.5323 8.53063 30.7514 8.3887 31.0192L7.88541 32.2777C7.75972 32.5293 7.63404 32.5293 7.63404 32.2777L7.1313 31.0192Z" fill="#3858E9"/>
<path d="M69.4837 79.0875C75.3031 79.0875 80.0208 74.3658 80.0208 68.5413C80.0208 62.7168 75.3031 57.9951 69.4837 57.9951C63.6642 57.9951 58.9465 62.7168 58.9465 68.5413C58.9465 74.3658 63.6642 79.0875 69.4837 79.0875Z" fill="#4AB866" stroke="#1E1E1E"/>
<path d="M64.9785 68.7667L67.9823 71.698L73.9892 65.8359" stroke="white" stroke-width="2" stroke-linecap="round"/>
</g>
</g>
<defs>
<clipPath id="clip0_696_17636">
<rect width="95" height="80" fill="white"/>
</clipPath>
<clipPath id="clip1_696_17636">
<rect width="94.8148" height="80" fill="white"/>
</clipPath>
</defs>
</svg>
