<svg width="95" height="80" viewBox="0 0 95 80" fill="none" xmlns="http://www.w3.org/2000/svg">
<mask id="mask0_687_30054" style="mask-type:luminance" maskUnits="userSpaceOnUse" x="5" y="0" width="85" height="80">
<path d="M89.7059 0H5V80H89.7059V0Z" fill="white"/>
</mask>
<g mask="url(#mask0_687_30054)">
<path d="M87.4118 62.9777C87.4113 56.8619 86.0514 50.8242 83.4311 45.3067C80.8113 39.7892 76.9982 34.9319 72.2716 31.091C67.5445 27.2501 62.0241 24.523 56.1139 23.1096C50.204 21.6961 44.0547 21.6323 38.1171 22.9226C32.1794 24.213 26.604 26.8248 21.7993 30.5667C16.9947 34.3086 13.0828 39.0856 10.3505 44.5475C7.61817 50.0094 6.13466 56.0177 6.00875 62.132C5.88283 68.2459 7.11771 74.3113 9.62283 79.8822H83.7888C86.1817 74.5725 87.417 68.8083 87.4118 62.9777Z" fill="#F0F6FC"/>
<mask id="mask1_687_30054" style="mask-type:luminance" maskUnits="userSpaceOnUse" x="-3" y="2" width="95" height="94">
<path d="M61.5254 2.17037L-2.08618 31.667L27.4104 95.2786L91.022 65.782L61.5254 2.17037Z" fill="white"/>
</mask>
<g mask="url(#mask1_687_30054)">
<path d="M70.1363 53.7297C75.9913 51.0148 76.3358 39.3205 70.9057 27.6099C65.4756 15.8993 56.3269 8.60707 50.4717 11.3222C44.6164 14.0373 44.2718 25.7316 49.702 37.4421C55.132 49.1527 64.2807 56.4449 70.1363 53.7297Z" stroke="#1E1E1E" stroke-miterlimit="10" stroke-linecap="round" stroke-linejoin="round"/>
<path fill-rule="evenodd" clip-rule="evenodd" d="M41.849 24.9648C42.0156 29.4997 43.3261 34.8408 45.8043 40.1852C49.0749 47.2382 53.6552 52.7356 58.1008 55.5257L23.175 59.7954C21.672 60.0533 20.1253 59.7921 18.7891 59.0537C17.4529 58.3154 16.4066 57.1446 15.8221 55.7333C14.3963 52.6584 15.2305 49.9751 17.6008 47.7742L41.849 24.9648Z" fill="#BBE0FA"/>
<path d="M28.0586 49.9277L40.0603 76.02C40.6901 77.396 41.8401 78.4666 43.258 78.996C44.6759 79.5259 46.246 79.4713 47.6238 78.8449C49 78.2157 50.0703 77.0661 50.6 75.6487C51.1296 74.2313 51.0753 72.6618 50.4489 71.2844L46.4724 62.5786" stroke="#1E1E1E" stroke-miterlimit="10" stroke-linecap="round" stroke-linejoin="round"/>
<path d="M48.4743 12.8105L14.9058 44.3526C11.8343 47.2016 10.7517 50.6731 12.5953 54.6487C13.3509 56.4736 14.7048 57.9875 16.4345 58.9409C18.1642 59.8948 20.1669 60.2317 22.1134 59.8962L67.7909 54.2877" stroke="#1E1E1E" stroke-miterlimit="10" stroke-linecap="round" stroke-linejoin="round"/>
<path d="M48.2939 25.5366C49.9801 24.7548 52.1292 25.152 54.2681 26.6409C56.4074 28.1298 58.3612 30.5884 59.7001 33.4759C61.0389 36.3634 61.6535 39.4433 61.4078 42.0379C61.1622 44.6326 60.077 46.5295 58.3909 47.3114" stroke="#1E1E1E" stroke-miterlimit="10" stroke-linecap="round" stroke-linejoin="round"/>
</g>
<path d="M75.8745 24.5632L85.427 20.1338" stroke="#1E1E1E" stroke-miterlimit="10" stroke-linecap="round" stroke-linejoin="round"/>
<path d="M64.5168 10.9695L70.5743 2.35742" stroke="#1E1E1E" stroke-miterlimit="10" stroke-linecap="round" stroke-linejoin="round"/>
<path d="M78.9121 42.0156L89.3996 42.9559" stroke="#1E1E1E" stroke-miterlimit="10" stroke-linecap="round" stroke-linejoin="round"/>
</g>
</svg>
