<svg width="190" height="146" viewBox="0 0 190 146" fill="none" xmlns="http://www.w3.org/2000/svg">
<g clip-path="url(#clip0_696_22772)">
<g clip-path="url(#clip1_696_22772)">
<path d="M15.6899 145.78V57.0986H183.13V145.78H15.6899Z" fill="#FAFAFA"/>
<path d="M15.6201 57.099V45.2608C15.6201 41.1279 20.1001 37.7656 25.6301 37.7656H173.19C178.72 37.7656 183.2 41.1279 183.2 45.2608V57.099H15.6201Z" fill="white"/>
<path d="M49.3599 34.5435C49.3599 34.5435 56.7099 27.6788 64.4799 30.6909L65.8099 37.6957L48.3799 37.0653C48.3799 37.0653 48.7299 35.0339 49.3599 34.5435Z" fill="#3858E9"/>
<path d="M63.3599 65.2246C63.3599 66.4154 62.4499 67.326 61.2599 67.326H25.9799C24.7899 67.326 23.8799 66.4154 23.8799 65.2246V51.0048C23.8799 49.8139 24.7899 48.9033 25.9799 48.9033H61.2599C62.4499 48.9033 63.3599 49.8139 63.3599 51.0048V65.2246Z" fill="#DBE9F8"/>
<path d="M69.5901 59.8308L66.3701 62.7028L62.3801 59.4806L59.3701 59.1303L59.5101 58.57L59.7901 57.7294L63.2901 56.7487L69.7301 55.6279L70.3601 59.6907L69.5901 59.8308Z" fill="#CCCCCC"/>
<path d="M62.94 59.9708C63.36 62.0022 57.83 60.6012 57.48 61.2317C56.71 62.6326 63.29 67.3959 67.21 61.5819M68.33 21.9346C68.33 21.9346 69.03 29.78 71.13 31.251L61.4 32.8621V27.2582L68.33 21.9346Z" fill="#CCCCCC"/>
<path d="M166.89 66.1357H109.42C107.88 66.1357 106.62 67.3966 106.62 68.9377V78.9546C106.62 80.4957 107.88 81.7565 109.42 81.7565H166.89C168.43 81.7565 169.69 80.4957 169.69 78.9546V68.9377C169.69 67.3966 168.43 66.1357 166.89 66.1357ZM71.0601 77.0633H32.2801V123.435H32.0701V145.781H85.5501V90.3024C85.4801 83.0174 79.0401 77.0633 71.0601 77.0633Z" fill="white"/>
<path d="M134.27 121.053C134.27 121.053 134.41 121.403 134.48 122.103C134.62 122.804 134.69 123.715 134.83 124.905C135.11 127.217 135.46 130.299 135.67 133.381C135.81 134.922 135.88 136.463 136.02 137.934C136.09 139.405 136.23 140.736 136.23 141.927C136.3 144.239 136.16 145.85 136.16 145.85C136.16 145.92 136.09 145.99 136.02 145.99C135.95 145.99 135.95 145.92 135.88 145.92C135.88 145.92 135.81 145.5 135.74 144.869C135.74 144.519 135.67 144.099 135.6 143.678C135.53 143.188 135.53 142.698 135.46 142.067C135.39 140.876 135.32 139.545 135.18 138.074C135.04 136.603 134.97 135.062 134.83 133.521C134.69 131.98 134.55 130.439 134.41 128.968C134.27 127.497 134.13 126.166 133.99 125.045C133.85 123.855 133.78 122.944 133.71 122.243C133.64 121.543 133.71 121.193 133.71 121.193C133.71 121.053 133.85 120.983 133.99 120.983C134.13 120.843 134.27 120.913 134.27 121.053Z" fill="#061A80"/>
<path d="M39.6999 37.8362C39.6999 37.4159 39.4199 37.1357 38.9999 37.1357H35.4299C35.0099 37.1357 34.7299 37.4159 34.7299 37.8362C34.7299 38.2565 35.0099 38.5367 35.4299 38.5367H38.9999C39.3499 38.5367 39.6999 38.2565 39.6999 37.8362ZM46.7699 37.8362C46.7699 37.4159 46.4899 37.1357 46.0699 37.1357H42.4999C42.0799 37.1357 41.7999 37.4159 41.7999 37.8362C41.7999 38.2565 42.0799 38.5367 42.4999 38.5367H46.0699C46.4899 38.5367 46.7699 38.2565 46.7699 37.8362ZM31.8599 37.1357H28.2899C27.8699 37.1357 27.5899 37.4159 27.5899 37.8362C27.5899 38.2565 27.8699 38.5367 28.2899 38.5367H31.8599C32.2799 38.5367 32.5599 38.2565 32.5599 37.8362C32.5599 37.4159 32.2099 37.1357 31.8599 37.1357ZM103.82 37.8362C103.82 37.4159 103.54 37.1357 103.12 37.1357H99.5499C99.1299 37.1357 98.8499 37.4159 98.8499 37.8362C98.8499 38.2565 99.1299 38.5367 99.5499 38.5367H103.12C103.47 38.5367 103.82 38.2565 103.82 37.8362ZM118.03 37.8362C118.03 37.4159 117.75 37.1357 117.33 37.1357H113.76C113.34 37.1357 113.06 37.4159 113.06 37.8362C113.06 38.2565 113.34 38.5367 113.76 38.5367H117.33C117.75 38.5367 118.03 38.2565 118.03 37.8362ZM110.96 37.8362C110.96 37.4159 110.68 37.1357 110.26 37.1357H106.69C106.27 37.1357 105.99 37.4159 105.99 37.8362C105.99 38.2565 106.27 38.5367 106.69 38.5367H110.26C110.61 38.5367 110.96 38.2565 110.96 37.8362ZM24.6499 37.2058C23.3899 37.2758 22.1299 37.556 21.0099 37.9763C20.6599 38.1164 20.4499 38.5367 20.5899 38.8869C20.6599 39.1671 20.9399 39.3773 21.2199 39.3773C21.2899 39.3773 21.3599 39.3773 21.4299 39.3072C22.4799 38.957 23.5999 38.6768 24.7199 38.6068C25.1399 38.6068 25.4199 38.2565 25.3499 37.8362C25.4199 37.4159 25.0699 37.1357 24.6499 37.2058ZM96.6799 37.8362C96.6799 37.4159 96.3999 37.1357 95.9799 37.1357H92.4099C91.9899 37.1357 91.7099 37.4159 91.7099 37.8362C91.7099 38.2565 91.9899 38.5367 92.4099 38.5367H95.9799C96.3999 38.5367 96.6799 38.2565 96.6799 37.8362ZM49.6399 38.5367H53.2099C53.6299 38.5367 53.9099 38.2565 53.9099 37.8362C53.9099 37.4159 53.6299 37.1357 53.2099 37.1357H49.6399C49.2199 37.1357 48.9399 37.4159 48.9399 37.8362C48.9399 38.2565 49.2899 38.5367 49.6399 38.5367ZM63.9199 38.5367H67.4899C67.9099 38.5367 68.1899 38.2565 68.1899 37.8362C68.1899 37.4159 67.9099 37.1357 67.4899 37.1357H63.9199C63.4999 37.1357 63.2199 37.4159 63.2199 37.8362C63.2199 38.2565 63.4999 38.5367 63.9199 38.5367ZM78.1999 38.5367H81.7699C82.1899 38.5367 82.4699 38.2565 82.4699 37.8362C82.4699 37.4159 82.1899 37.1357 81.7699 37.1357H78.1999C77.7799 37.1357 77.4999 37.4159 77.4999 37.8362C77.4999 38.2565 77.7799 38.5367 78.1999 38.5367ZM71.0599 38.5367H74.6299C75.0499 38.5367 75.3299 38.2565 75.3299 37.8362C75.3299 37.4159 75.0499 37.1357 74.6299 37.1357H71.0599C70.6399 37.1357 70.3599 37.4159 70.3599 37.8362C70.3599 38.2565 70.6399 38.5367 71.0599 38.5367ZM85.2699 38.5367H88.8399C89.2599 38.5367 89.5399 38.2565 89.5399 37.8362C89.5399 37.4159 89.2599 37.1357 88.8399 37.1357H85.2699C84.8499 37.1357 84.5699 37.4159 84.5699 37.8362C84.5699 38.2565 84.9199 38.5367 85.2699 38.5367ZM56.7799 38.5367H60.3499C60.7699 38.5367 61.0499 38.2565 61.0499 37.8362C61.0499 37.4159 60.7699 37.1357 60.3499 37.1357H56.7799C56.3599 37.1357 56.0799 37.4159 56.0799 37.8362C56.0799 38.2565 56.4299 38.5367 56.7799 38.5367ZM15.7599 43.7903C15.8299 43.7903 15.9699 43.8604 16.0399 43.8604C16.3199 43.8604 16.5999 43.7203 16.6699 43.4401C17.0199 42.5295 17.7199 41.6188 18.6299 40.9184C18.9099 40.6382 18.9799 40.2179 18.6999 39.9377C18.4199 39.6575 17.9999 39.5874 17.7199 39.8676C16.6699 40.7783 15.8299 41.829 15.4099 42.9498C15.1999 43.2299 15.4099 43.6502 15.7599 43.7903ZM15.6199 50.9353C16.0399 50.9353 16.3199 50.6551 16.3199 50.2348V46.6623C16.3199 46.242 16.0399 45.9618 15.6199 45.9618C15.1999 45.9618 14.9199 46.242 14.9199 46.6623V50.2348C14.9199 50.585 15.1999 50.9353 15.6199 50.9353ZM125.17 37.8362C125.17 37.4159 124.89 37.1357 124.47 37.1357H120.9C120.48 37.1357 120.2 37.4159 120.2 37.8362C120.2 38.2565 120.48 38.5367 120.9 38.5367H124.47C124.89 38.5367 125.17 38.2565 125.17 37.8362ZM146.59 37.8362C146.59 37.4159 146.31 37.1357 145.89 37.1357H142.32C141.9 37.1357 141.62 37.4159 141.62 37.8362C141.62 38.2565 141.9 38.5367 142.32 38.5367H145.89C146.24 38.5367 146.59 38.2565 146.59 37.8362ZM174.45 37.2058C174.03 37.1357 173.54 37.1357 173.12 37.1357H170.81C170.39 37.1357 170.11 37.4159 170.11 37.8362C170.11 38.2565 170.39 38.5367 170.81 38.5367H173.12C173.54 38.5367 173.89 38.5367 174.31 38.6068H174.38C174.73 38.6068 175.01 38.3266 175.08 37.9763C175.08 37.556 174.8 37.2758 174.45 37.2058ZM167.24 37.1357H163.67C163.25 37.1357 162.97 37.4159 162.97 37.8362C162.97 38.2565 163.25 38.5367 163.67 38.5367H167.24C167.66 38.5367 167.94 38.2565 167.94 37.8362C167.94 37.4159 167.66 37.1357 167.24 37.1357ZM160.1 38.5367C160.52 38.5367 160.8 38.2565 160.8 37.8362C160.8 37.4159 160.52 37.1357 160.1 37.1357H156.53C156.11 37.1357 155.83 37.4159 155.83 37.8362C155.83 38.2565 156.11 38.5367 156.53 38.5367H160.1ZM152.96 38.5367C153.38 38.5367 153.66 38.2565 153.66 37.8362C153.66 37.4159 153.38 37.1357 152.96 37.1357H149.39C148.97 37.1357 148.69 37.4159 148.69 37.8362C148.69 38.2565 148.97 38.5367 149.39 38.5367H152.96ZM139.45 37.8362C139.45 37.4159 139.17 37.1357 138.75 37.1357H135.18C134.76 37.1357 134.48 37.4159 134.48 37.8362C134.48 38.2565 134.76 38.5367 135.18 38.5367H138.75C139.1 38.5367 139.45 38.2565 139.45 37.8362ZM183.06 49.9546C182.64 49.9546 182.36 50.2348 182.36 50.6551V52.5464C182.36 52.9667 182.64 53.2469 183.06 53.2469C183.48 53.2469 183.76 52.9667 183.76 52.5464V50.6551C183.76 50.2348 183.48 49.9546 183.06 49.9546ZM132.31 37.8362C132.31 37.4159 132.03 37.1357 131.61 37.1357H128.04C127.62 37.1357 127.34 37.4159 127.34 37.8362C127.34 38.2565 127.62 38.5367 128.04 38.5367H131.61C132.03 38.5367 132.31 38.2565 132.31 37.8362ZM178.09 38.1164C177.74 37.9763 177.32 38.1164 177.18 38.5367C177.04 38.8869 177.18 39.3072 177.6 39.4473C178.65 39.8676 179.63 40.4981 180.4 41.1985C180.54 41.3386 180.68 41.4087 180.89 41.4087C181.1 41.4087 181.24 41.3386 181.38 41.1985C181.66 40.9184 181.59 40.4981 181.31 40.2179C180.4 39.2372 179.35 38.6068 178.09 38.1164ZM183.48 43.3C183.34 42.9498 182.99 42.7396 182.57 42.8797C182.22 43.0198 182.01 43.37 182.15 43.7903C182.29 44.2807 182.43 44.8411 182.43 45.3314V47.0826C182.43 47.5029 182.71 47.7831 183.13 47.7831C183.55 47.7831 183.83 47.5029 183.83 47.0826V45.3314C183.76 44.6309 183.69 43.9304 183.48 43.3ZM125.94 56.399H122.51C122.09 56.399 121.81 56.6792 121.81 57.0995C121.81 57.5198 122.09 57.8 122.51 57.8H125.94C126.36 57.8 126.64 57.5198 126.64 57.0995C126.64 56.6792 126.36 56.399 125.94 56.399ZM36.5499 56.399H33.1199C32.6999 56.399 32.4199 56.6792 32.4199 57.0995C32.4199 57.5198 32.6999 57.8 33.1199 57.8H36.5499C36.9699 57.8 37.2499 57.5198 37.2499 57.0995C37.2499 56.6792 36.9699 56.399 36.5499 56.399ZM29.6899 56.399H26.2599C25.8399 56.399 25.5599 56.6792 25.5599 57.0995C25.5599 57.5198 25.8399 57.8 26.2599 57.8H29.6899C30.1099 57.8 30.3899 57.5198 30.3899 57.0995C30.3899 56.6792 30.1099 56.399 29.6899 56.399ZM22.8299 56.399H21.6399C21.2199 56.399 20.9399 56.6792 20.9399 57.0995C20.9399 57.5198 21.2199 57.8 21.6399 57.8H22.8299C23.2499 57.8 23.5299 57.5198 23.5299 57.0995C23.5299 56.6792 23.2499 56.399 22.8299 56.399ZM43.4799 56.399H40.0499C39.6299 56.399 39.3499 56.6792 39.3499 57.0995C39.3499 57.5198 39.6299 57.8 40.0499 57.8H43.4799C43.8999 57.8 44.1799 57.5198 44.1799 57.0995C44.1799 56.6792 43.8299 56.399 43.4799 56.399ZM174.03 56.399H170.6C170.18 56.399 169.9 56.6792 169.9 57.0995C169.9 57.5198 170.18 57.8 170.6 57.8H174.03C174.45 57.8 174.73 57.5198 174.73 57.0995C174.73 56.6792 174.45 56.399 174.03 56.399ZM167.17 56.399H163.74C163.32 56.399 163.04 56.6792 163.04 57.0995C163.04 57.5198 163.32 57.8 163.74 57.8H167.17C167.59 57.8 167.87 57.5198 167.87 57.0995C167.87 56.6792 167.59 56.399 167.17 56.399ZM160.31 56.399H156.88C156.46 56.399 156.18 56.6792 156.18 57.0995C156.18 57.5198 156.46 57.8 156.88 57.8H160.31C160.73 57.8 161.01 57.5198 161.01 57.0995C161.01 56.6792 160.73 56.399 160.31 56.399ZM153.45 56.399H150.02C149.6 56.399 149.32 56.6792 149.32 57.0995C149.32 57.5198 149.6 57.8 150.02 57.8H153.45C153.87 57.8 154.15 57.5198 154.15 57.0995C154.15 56.6792 153.8 56.399 153.45 56.399ZM98.4299 56.399H94.9999C94.5799 56.399 94.2999 56.6792 94.2999 57.0995C94.2999 57.5198 94.5799 57.8 94.9999 57.8H98.4299C98.8499 57.8 99.1299 57.5198 99.1299 57.0995C99.1299 56.6792 98.8499 56.399 98.4299 56.399ZM91.5699 56.399H88.1399C87.7199 56.399 87.4399 56.6792 87.4399 57.0995C87.4399 57.5198 87.7199 57.8 88.1399 57.8H91.5699C91.9899 57.8 92.2699 57.5198 92.2699 57.0995C92.2699 56.6792 91.9899 56.399 91.5699 56.399ZM139.66 56.399H136.23C135.81 56.399 135.53 56.6792 135.53 57.0995C135.53 57.5198 135.81 57.8 136.23 57.8H139.66C140.08 57.8 140.36 57.5198 140.36 57.0995C140.36 56.6792 140.08 56.399 139.66 56.399ZM105.29 56.399H101.86C101.44 56.399 101.16 56.6792 101.16 57.0995C101.16 57.5198 101.44 57.8 101.86 57.8H105.29C105.71 57.8 105.99 57.5198 105.99 57.0995C105.99 56.6792 105.71 56.399 105.29 56.399ZM132.8 56.399H129.37C128.95 56.399 128.67 56.6792 128.67 57.0995C128.67 57.5198 128.95 57.8 129.37 57.8H132.8C133.22 57.8 133.5 57.5198 133.5 57.0995C133.5 56.6792 133.22 56.399 132.8 56.399ZM119.08 56.399H115.65C115.23 56.399 114.95 56.6792 114.95 57.0995C114.95 57.5198 115.23 57.8 115.65 57.8H119.08C119.5 57.8 119.78 57.5198 119.78 57.0995C119.78 56.6792 119.43 56.399 119.08 56.399ZM112.22 56.399H108.79C108.37 56.399 108.09 56.6792 108.09 57.0995C108.09 57.5198 108.37 57.8 108.79 57.8H112.22C112.64 57.8 112.92 57.5198 112.92 57.0995C112.92 56.6792 112.57 56.399 112.22 56.399ZM77.8499 56.399H74.4199C73.9999 56.399 73.7199 56.6792 73.7199 57.0995C73.7199 57.5198 73.9999 57.8 74.4199 57.8H77.8499C78.2699 57.8 78.5499 57.5198 78.5499 57.0995C78.5499 56.6792 78.1999 56.399 77.8499 56.399ZM57.1999 56.399H53.7699C53.3499 56.399 53.0699 56.6792 53.0699 57.0995C53.0699 57.5198 53.3499 57.8 53.7699 57.8H57.1999C57.6199 57.8 57.8999 57.5198 57.8999 57.0995C57.8999 56.6792 57.6199 56.399 57.1999 56.399ZM84.7099 56.399H81.2799C80.8599 56.399 80.5799 56.6792 80.5799 57.0995C80.5799 57.5198 80.8599 57.8 81.2799 57.8H84.7099C85.1299 57.8 85.4099 57.5198 85.4099 57.0995C85.4099 56.6792 85.0599 56.399 84.7099 56.399ZM64.0599 56.399H60.6299C60.2099 56.399 59.9299 56.6792 59.9299 57.0995C59.9299 57.5198 60.2099 57.8 60.6299 57.8H64.0599C64.4799 57.8 64.7599 57.5198 64.7599 57.0995C64.7599 56.6792 64.4799 56.399 64.0599 56.399ZM50.3399 56.399H46.9099C46.4899 56.399 46.2099 56.6792 46.2099 57.0995C46.2099 57.5198 46.4899 57.8 46.9099 57.8H50.3399C50.7599 57.8 51.0399 57.5198 51.0399 57.0995C51.0399 56.6792 50.6899 56.399 50.3399 56.399ZM146.59 56.399H143.16C142.74 56.399 142.46 56.6792 142.46 57.0995C142.46 57.5198 142.74 57.8 143.16 57.8H146.59C147.01 57.8 147.29 57.5198 147.29 57.0995C147.29 56.6792 146.94 56.399 146.59 56.399ZM70.9199 56.399H67.4899C67.0699 56.399 66.7899 56.6792 66.7899 57.0995C66.7899 57.5198 67.0699 57.8 67.4899 57.8H70.9199C71.3399 57.8 71.6199 57.5198 71.6199 57.0995C71.6199 56.6792 71.3399 56.399 70.9199 56.399ZM18.6299 55.7686H16.3199V54.2275C16.3199 53.8072 16.0399 53.527 15.6199 53.527C15.1999 53.527 14.9199 53.8072 14.9199 54.2275V56.4691C14.9199 56.8894 15.1999 57.1696 15.6199 57.1696H18.6299C19.0499 57.1696 19.3299 56.8894 19.3299 56.4691C19.3299 56.0488 19.0499 55.7686 18.6299 55.7686Z" fill="#DDDDDD"/>
<path d="M4 145.57L11.21 109.355L40.12 109.426L33.75 145.64" fill="white"/>
<path d="M3.71997 145.5C4.20997 142.487 4.83997 139.405 5.39997 136.393L7.21997 127.357L10.79 109.214L10.86 108.864H11.21L40.12 109.004H40.54L40.47 109.425L37.25 127.567L35.57 136.603C35.01 139.615 34.38 142.628 33.82 145.64L33.61 145.57C34.03 142.557 34.52 139.475 35.01 136.463L36.55 127.427L39.7 109.285L40.05 109.705L11.14 109.635L11.49 109.355L7.84997 127.497L6.02997 136.533C5.39997 139.545 4.83997 142.557 4.06997 145.57L3.71997 145.5Z" fill="#DBE9F8"/>
<path d="M33.19 120.914C31.72 120.914 30.04 120.914 28.29 120.843C26.47 120.843 24.58 120.773 22.62 120.773H12.05C9.18002 120.773 7.22002 120.843 7.22002 120.843V121.334C7.22002 121.334 9.11002 121.334 12.05 121.404C14.92 121.404 18.77 121.474 22.62 121.474H33.19C36.06 121.474 38.02 121.404 38.02 121.404V120.914C38.02 120.984 36.06 120.914 33.19 120.914ZM25.98 134.223C24.16 134.223 22.2 134.153 20.31 134.153H9.60002C6.66002 134.153 4.77002 134.223 4.77002 134.223V134.713C4.77002 134.713 6.73002 134.713 9.60002 134.783C12.54 134.783 16.39 134.853 20.31 134.853H30.95C33.89 134.853 35.78 134.783 35.78 134.783V134.293C35.78 134.293 33.82 134.223 30.95 134.223H25.98Z" fill="#DBE9F8"/>
<path d="M145.12 101.93C145.12 101.93 150.3 92.8238 151.63 93.104L151.7 98.0074C153.38 97.447 154.71 96.1861 155.41 94.575C157.02 91.633 161.57 95.4156 155.41 101.23C148.97 104.522 147.01 106.343 147.01 106.343M124.19 107.604V115.099L117.12 114.749V109.775C117.12 109.775 111.24 108.094 112.22 101.09L112.99 97.0267" fill="#949494"/>
<path d="M91.71 118.601L88.28 115.449L91.22 108.094L93.74 107.674L94.3 115.239L91.71 118.601Z" fill="#949494"/>
<path d="M89.4001 116.57C89.3301 116.57 89.2601 116.57 89.2601 116.5C84.9901 114.258 84.9201 110.335 86.1801 107.603C86.9501 105.992 88.0001 105.082 88.8401 105.432C89.2601 105.572 89.3301 106.202 89.4701 107.674C89.5401 108.864 89.6801 110.686 90.2401 111.036C90.3101 111.106 90.4501 111.106 90.6601 111.036C91.0801 110.896 91.0801 110.125 90.9401 109.145C90.8701 108.234 90.7301 107.253 91.5701 107.113C91.9201 107.043 92.2001 107.183 92.5501 107.463C93.6001 108.374 94.6501 110.896 94.6501 113.838C94.6501 114.048 94.5101 114.188 94.3001 114.188C94.0901 114.188 93.9501 114.048 93.9501 113.838C93.9501 111.246 92.9701 108.794 92.0601 108.024C91.9201 107.884 91.7101 107.814 91.6401 107.814C91.5001 107.814 91.5701 108.654 91.6401 109.074C91.7101 110.055 91.8501 111.316 90.8701 111.666C90.3801 111.806 90.0301 111.666 89.8201 111.596C88.9801 111.036 88.8401 109.285 88.7701 107.674C88.7001 107.043 88.7001 106.202 88.5601 105.992C88.2101 105.922 87.4401 106.553 86.8801 107.814C85.7601 110.265 85.8301 113.768 89.6801 115.799C89.8201 115.869 89.8901 116.079 89.8201 116.289C89.6801 116.5 89.5401 116.57 89.4001 116.57ZM88.4901 106.062C88.5601 106.062 88.5601 106.062 88.4901 106.062V106.062Z" fill="#061A80"/>
<path d="M86.6001 111.107C93.5202 111.107 99.1301 105.493 99.1301 98.5679C99.1301 91.643 93.5202 86.0293 86.6001 86.0293C79.6799 86.0293 74.0701 91.643 74.0701 98.5679C74.0701 105.493 79.6799 111.107 86.6001 111.107Z" fill="#3858E9"/>
<path d="M135.53 73.1396H186.84V97.5165H135.53V73.1396Z" fill="#BBE0FA"/>
<path d="M117.47 113.137C117.33 113.137 117.12 112.997 117.12 112.857L116.77 109.985C113.48 109.355 112.71 106.833 112.08 104.101C111.1 99.478 112.92 94.0843 117.68 92.8935C121.32 92.0529 124.54 93.3838 125.52 96.1157C126.57 98.9176 127.48 101.579 127.48 102.49C127.48 102.7 127.34 102.84 127.13 102.84C126.92 102.84 126.78 102.7 126.78 102.49C126.78 101.579 125.59 98.2872 124.89 96.3259C124.05 93.8742 121.11 92.7534 117.82 93.5239C113.48 94.5747 111.87 99.6181 112.78 103.891C113.34 106.553 114.04 108.794 117.12 109.285C117.26 109.285 117.4 109.425 117.4 109.565L117.75 112.647C117.82 112.997 117.68 113.137 117.47 113.137Z" fill="#061A80"/>
<path d="M90.6601 111.386C88.5601 112.087 89.3301 105.993 88.6301 105.713C87.0201 105.082 82.7501 112.717 89.4001 116.15" fill="#949494"/>
<path d="M89.4001 116.57C89.3301 116.57 89.2601 116.57 89.2601 116.5C84.9901 114.258 84.9201 110.335 86.1801 107.603C86.9501 105.992 88.0001 105.082 88.8401 105.432C89.2601 105.572 89.3301 106.202 89.4701 107.674C89.5401 108.864 89.6801 110.686 90.2401 111.036C90.3101 111.106 90.4501 111.106 90.6601 111.036C90.8701 110.966 91.0101 111.106 91.0801 111.246C91.1501 111.386 91.0101 111.596 90.8701 111.666C90.3801 111.806 90.0301 111.666 89.8201 111.526C88.9801 110.966 88.8401 109.215 88.7701 107.603C88.7001 106.973 88.7001 106.132 88.5601 105.922C88.2101 105.922 87.4401 106.483 86.8801 107.744C85.7601 110.195 85.8301 113.698 89.6801 115.729C89.8201 115.799 89.8901 116.009 89.8201 116.219C89.6801 116.5 89.5401 116.57 89.4001 116.57Z" fill="#061A80"/>
<path d="M151.91 105.292L146.45 99.6182C143.79 104.942 135.81 112.927 129.86 114.398C129.72 114.328 129.58 114.258 129.44 114.258C127.48 113.558 116.56 112.787 113.9 113.908C112.22 114.608 111.1 115.169 110.33 115.869C107.32 118.181 104.52 120.773 101.86 123.505L95.5599 113.628L89.8899 117.691C89.8899 117.691 94.7199 135.483 102.21 135.133C104.66 134.923 107.11 134.292 109.28 133.171L109.7 145.92H135.81L134.48 124.976C143.72 120.072 151.91 105.292 151.91 105.292Z" fill="#CCCCCC"/>
<path d="M146.94 100.179C148.27 99.0582 150.65 92.0534 151.56 93.1041L151.63 98.0075C152.61 97.7973 153.52 97.307 154.15 96.6065" fill="#949494"/>
<path d="M146.94 100.529C146.87 100.529 146.73 100.459 146.66 100.389C146.52 100.249 146.52 100.039 146.73 99.8986C147.22 99.4783 147.99 97.8672 148.69 96.5362C149.88 94.1546 150.58 92.7536 151.28 92.6836C151.49 92.6836 151.7 92.7536 151.84 92.8937C151.91 92.9638 151.91 93.0338 151.91 93.1039L151.98 97.587C152.75 97.3768 153.38 96.9565 153.94 96.3961C154.08 96.256 154.29 96.256 154.43 96.3961C154.57 96.5362 154.57 96.7464 154.43 96.8865C153.73 97.657 152.75 98.2174 151.7 98.4276C151.63 98.4276 151.49 98.4275 151.42 98.3575C151.35 98.2875 151.28 98.2174 151.28 98.0773L151.21 93.4541C150.72 93.8744 149.81 95.6957 149.32 96.8164C148.55 98.4275 147.78 99.8986 147.22 100.459C147.08 100.459 147.01 100.529 146.94 100.529Z" fill="#061A80"/>
<path d="M150.44 104.171C150.23 104.171 150.09 104.031 150.09 103.821C150.09 103.611 150.23 103.471 150.44 103.471C151.21 103.471 155.76 100.949 157.86 96.8863C157.93 96.7462 158.14 96.6762 158.35 96.7462C158.49 96.8163 158.56 97.0264 158.49 97.2366C156.25 101.439 151.56 104.171 150.44 104.171Z" fill="#061A80"/>
<path d="M112.5 97.1663C111.59 99.9682 115.23 99.4078 115.23 99.4078L114.67 104.521C114.67 105.712 115.37 106.833 116.42 107.463C117.96 108.304 120.27 109.705 123.21 109.074C129.09 107.744 129.02 94.2242 124.68 92.6131C119.85 90.8619 114.81 89.9513 112.5 97.1663Z" fill="#061A80"/>
<path d="M111.24 103.891C110.96 103.891 110.75 103.821 110.61 103.68C109.84 103.19 109.63 101.859 109.77 100.738C109.91 99.4776 110.75 98.7771 111.38 98.637C111.8 98.5669 112.15 98.707 112.29 98.9872C112.36 99.1273 112.36 99.3375 112.15 99.4776C112.01 99.5476 111.8 99.5476 111.66 99.3375C111.66 99.3375 111.52 99.3375 111.38 99.4075C111.03 99.5476 110.61 99.9679 110.47 100.668H110.61L116.07 102.49C116.28 102.56 116.35 102.77 116.28 102.91C116.21 103.05 116 103.19 115.86 103.12L110.4 101.299C110.4 102.139 110.61 102.84 110.96 103.12C111.17 103.26 111.45 103.19 111.8 102.98C111.94 102.91 112.15 102.91 112.29 103.05C112.36 103.19 112.36 103.4 112.22 103.54C111.87 103.821 111.52 103.891 111.24 103.891Z" fill="#061A80"/>
<path d="M39.91 109.846C39.91 109.846 40.05 110.406 40.26 111.387C40.47 112.367 40.68 113.768 40.96 115.45C41.24 117.131 41.59 119.092 41.94 121.194C42.29 123.295 42.64 125.537 43.06 127.778C43.41 130.02 43.76 132.261 44.11 134.363C44.46 136.464 44.81 138.425 45.02 140.107C45.3 141.788 45.44 143.189 45.58 144.169C45.72 145.15 45.72 145.71 45.72 145.71L45.51 145.78C45.51 145.78 45.37 145.22 45.16 144.239C44.95 143.259 44.67 141.858 44.39 140.177C44.04 138.495 43.76 136.534 43.41 134.433C43.06 132.331 42.71 130.09 42.29 127.848C41.94 125.607 41.52 123.365 41.17 121.264C40.82 119.162 40.54 117.201 40.26 115.52C39.98 113.838 39.77 112.437 39.63 111.457C39.49 110.476 39.49 109.916 39.49 109.916L39.91 109.846Z" fill="#DBE9F8"/>
<path d="M11.3501 109.495C11.3501 109.495 11.4901 110.056 11.7001 111.036C11.9101 112.017 12.1201 113.418 12.4001 115.169C12.6801 116.85 13.0301 118.882 13.3801 120.983C13.7301 123.084 14.1501 125.396 14.5001 127.638C14.8501 129.879 15.2701 132.191 15.6201 134.292C15.9701 136.394 16.3201 138.425 16.5301 140.106C16.8101 141.787 16.9501 143.258 17.0901 144.239C17.2301 145.22 17.2301 145.78 17.2301 145.78L17.0201 145.85C17.0201 145.85 16.8801 145.29 16.6701 144.309C16.4601 143.328 16.1801 141.927 15.8301 140.246C15.4801 138.565 15.2001 136.534 14.8501 134.432C14.5001 132.331 14.0801 130.019 13.7301 127.778C13.3801 125.536 12.9601 123.225 12.6101 121.123C12.2601 119.022 11.9101 116.99 11.6301 115.309C11.3501 113.628 11.0701 112.227 11.0001 111.176C10.8601 110.196 10.8601 109.635 10.8601 109.635L11.3501 109.495Z" fill="#DBE9F8"/>
<path d="M114.67 104.522C114.67 104.522 114.6 110.826 112.08 111.667C109.56 112.507 123.49 120.353 130.56 113.138C130.56 113.138 131.96 110.896 129.23 110.896C126.71 110.966 133.57 106.623 129.02 100.249L114.67 104.522Z" fill="#061A80"/>
<path d="M130.07 91.9828C128.53 89.391 126.92 87.0794 121.81 86.7992C119.71 86.6591 118.17 87.3596 117.12 88.2002C116.35 87.6398 115.44 87.4296 114.53 87.99C111.52 89.8113 114.46 95.6953 114.88 96.5359C116.56 101.089 121.46 105.922 126.92 103.681C127.83 103.541 128.6 102.91 129.23 102.07C129.72 101.509 130 100.879 130.21 100.178C130.28 99.8982 130.42 99.618 130.49 99.3378C131.19 96.7461 130.91 93.4538 130.07 91.9828Z" fill="#CCCCCC"/>
<path d="M127.76 92.9638C127.48 92.0532 127.13 91.2126 126.78 90.372C126.43 89.5314 125.94 88.6909 125.45 87.9203C124.89 87.1498 124.26 86.3793 123.21 86.029H123.07L119.43 85.959H118.52L119.29 86.5194C119.43 86.6595 119.64 86.7996 119.85 87.0097C120.06 87.1498 120.2 87.3599 120.41 87.5C120.76 87.8503 121.11 88.2005 121.39 88.6208C121.74 89.0411 122.02 89.3914 122.3 89.8116L122.72 90.4421L123.14 91.0725C123.42 91.4928 123.63 91.9831 123.84 92.4034C124.05 92.8938 124.26 93.3141 124.4 93.8044C124.47 94.0145 124.61 94.2947 124.68 94.5049L124.89 95.2054L125.31 96.6764H125.52C125.45 96.186 125.45 95.6257 125.31 95.1353C125.17 94.645 125.1 94.1546 124.89 93.6643C124.75 93.174 124.54 92.6836 124.33 92.1933C124.12 91.7029 123.91 91.2827 123.63 90.7923C123.49 90.5822 123.35 90.372 123.21 90.0918L122.79 89.4614C122.51 89.0411 122.16 88.6208 121.88 88.2005C121.53 87.7802 121.18 87.43 120.83 87.0097L120.34 86.5194L123.07 86.5894C123.84 86.8696 124.4 87.5 124.96 88.2005C125.45 88.901 125.87 89.7416 126.29 90.5822C126.64 91.4228 126.99 92.2633 127.27 93.1039C127.55 93.9445 127.83 94.8551 128.11 95.6957L128.46 95.6257C128.32 94.715 128.04 93.8044 127.76 92.9638Z" fill="#FAFAFA"/>
<path d="M70.5001 17.172C70.6401 25.2976 65.8801 27.6792 64.0601 28.0995C60.7001 28.8 55.7301 24.3169 54.1901 17.8024C54.1901 17.8024 49.6401 5.68405 63.7801 6.24444C69.1701 6.45458 70.5001 17.172 70.5001 17.172Z" fill="#CCCCCC"/>
<path d="M53.84 15.5607C53.84 15.5607 54.05 16.1211 54.33 17.1018C54.68 18.0825 55.1 19.5535 55.8 21.1646C56.15 22.0052 56.57 22.8457 57.13 23.6863C57.69 24.5269 58.32 25.3675 59.09 26.138C59.86 26.8385 60.84 27.4689 61.96 27.6791C63.01 27.8892 64.2 27.7491 65.25 27.2588C66.3 26.8385 67.21 26.068 67.91 25.2274C68.61 24.3167 69.1 23.3361 69.52 22.2853C70.22 20.1839 70.36 18.0825 70.36 16.3312C70.36 14.58 70.15 13.039 70.01 12.0583C69.94 11.568 69.87 11.1477 69.8 10.8675C69.87 10.4472 69.8 10.3071 69.8 10.3071C69.8 10.237 69.8 10.167 69.87 10.167C69.94 10.167 70.01 10.167 70.01 10.237C70.01 10.237 70.22 10.7974 70.43 11.8482C70.57 12.3385 70.64 12.9689 70.78 13.7395C70.92 14.4399 70.99 15.2805 70.99 16.1911C71.06 18.0124 70.92 20.1839 70.15 22.4254C69.73 23.5462 69.24 24.5969 68.47 25.5776C67.7 26.5583 66.72 27.3989 65.53 27.8892C64.41 28.3796 63.08 28.5897 61.82 28.3796C60.56 28.0994 59.44 27.4689 58.6 26.6283C57.76 25.8578 57.06 24.9472 56.5 24.0366C55.94 23.1259 55.52 22.2153 55.1 21.4448C54.4 19.7636 53.91 18.2926 53.63 17.3119C53.35 16.2612 53.28 15.7008 53.28 15.7008C53.28 15.5607 53.35 15.4907 53.49 15.4206C53.7 15.3506 53.84 15.4206 53.84 15.5607Z" fill="#061A80"/>
<path d="M58.53 6.45409C53.35 7.64491 50.41 11.0773 51.95 12.8285C53.35 14.3695 61.96 9.18597 64.55 10.8671C66.23 11.9179 66.93 14.9299 67.14 16.8913C67.28 18.0121 68.19 18.9227 69.31 19.1328L70.64 19.4831C72.04 11.9179 72.11 3.23186 58.53 6.45409ZM61.05 18.0121C61.05 18.0121 61.12 18.2222 61.26 18.5024C61.4 18.7826 61.47 19.2029 61.61 19.6232C61.75 20.0435 61.82 20.4637 61.89 20.814C61.96 21.1642 61.96 21.3744 61.96 21.3744C61.96 21.5145 61.89 21.6546 61.75 21.6546C61.61 21.6546 61.54 21.5845 61.47 21.5145C61.47 21.5145 61.4 21.3043 61.26 21.0241C61.12 20.7439 61.05 20.2536 60.98 19.8333C60.91 19.413 60.84 18.9927 60.77 18.6425C60.7 18.2922 60.7 18.0821 60.7 18.0821C60.7 18.0121 60.77 17.872 60.84 17.872C60.98 17.872 60.98 17.942 61.05 18.0121Z" fill="#061A80"/>
<path d="M58.04 20.5333C57.69 20.6034 57.34 20.3932 57.27 20.043L57.06 19.0623C56.99 18.7121 57.2 18.3618 57.55 18.2918C57.9 18.2217 58.25 18.4319 58.32 18.7821L58.53 19.7628C58.6 20.113 58.39 20.3932 58.04 20.5333ZM64.34 18.9923C63.99 19.0623 63.64 18.8522 63.57 18.5019L63.36 17.5213C63.29 17.171 63.5 16.8208 63.85 16.7507C64.2 16.6807 64.55 16.8908 64.62 17.2411L64.83 18.2217C64.9 18.572 64.69 18.9222 64.34 18.9923Z" fill="#061A80"/>
<path d="M62.17 25.1573C61.75 25.1573 61.26 25.0172 60.98 24.8071C60.84 24.667 60.84 24.4568 60.91 24.3167C60.98 24.1766 61.26 24.1766 61.4 24.2467C61.68 24.4568 62.1 24.5269 62.59 24.3868C63.01 24.2467 63.29 24.0365 63.36 23.7564C63.43 23.5462 63.64 23.4762 63.78 23.5462C63.99 23.6163 64.06 23.8264 63.99 23.9665C63.85 24.4568 63.36 24.8771 62.73 25.0873C62.59 25.1573 62.38 25.1573 62.17 25.1573ZM62.73 14.0196L62.8 13.9496C62.87 13.8795 63.01 13.8095 63.15 13.7394C63.29 13.6694 63.43 13.5993 63.64 13.5993C63.78 13.5993 63.99 13.5293 64.2 13.5293C64.55 13.5293 64.97 13.5993 65.25 13.7394C65.53 13.8795 65.67 14.0196 65.67 14.0196C65.74 14.0897 65.74 14.2298 65.67 14.3699C65.6 14.4399 65.53 14.4399 65.39 14.4399C65.39 14.4399 65.25 14.3699 65.04 14.3699C64.83 14.2998 64.55 14.2998 64.2 14.2998C63.92 14.2998 63.57 14.3699 63.36 14.3699C63.22 14.3699 63.15 14.4399 63.15 14.4399C63.08 14.4399 63.08 14.51 63.08 14.51C62.94 14.58 62.8 14.51 62.73 14.3699C62.66 14.1597 62.66 14.0897 62.73 14.0196ZM57.48 15.7008H57.34C57.34 15.7008 57.27 15.7008 57.13 15.7708C56.92 15.8409 56.64 15.9109 56.36 16.051C56.08 16.1911 55.8 16.3312 55.66 16.4713C55.45 16.6114 55.38 16.6815 55.38 16.6815C55.31 16.7515 55.17 16.8216 55.03 16.6815C54.96 16.6114 54.96 16.5414 54.96 16.4013C54.96 16.4013 55.03 16.1911 55.24 15.981C55.45 15.7708 55.73 15.4906 56.08 15.3506C56.22 15.2805 56.43 15.2105 56.57 15.1404C56.71 15.0704 56.92 15.0704 57.06 15.0704C57.2 15.0704 57.34 15.0704 57.48 15.1404C57.55 15.1404 57.62 15.2105 57.62 15.2105C57.76 15.2805 57.76 15.4206 57.69 15.5607C57.62 15.6307 57.55 15.7008 57.48 15.7008Z" fill="#061A80"/>
<path d="M51.53 13.0386C50.62 3.09176 68.19 -0.760898 70.85 10.3768L51.53 13.0386Z" fill="#3858E9"/>
<path d="M47.3301 13.8793C47.3301 13.8793 48.8001 13.529 51.1101 13.1088C52.2301 12.8986 53.5601 12.6885 54.9601 12.4783C56.3601 12.2682 57.9001 12.058 59.4401 11.7778C62.4501 11.3575 65.5301 10.9373 67.7701 10.587C70.0801 10.3068 71.5501 10.0967 71.5501 10.0967C71.6901 10.0967 71.7601 10.1667 71.8301 10.3068C71.8301 10.4469 71.7601 10.517 71.6201 10.587C71.6201 10.587 70.0801 10.8672 67.8401 11.2175C65.6001 11.5677 62.5201 12.058 59.5101 12.4783C57.9701 12.6885 56.5001 12.8986 55.0301 13.1088C53.6301 13.3189 52.3001 13.529 51.1101 13.6691C48.8001 13.9493 47.2601 14.0894 47.2601 14.0894C47.1901 14.0894 47.1201 14.0194 47.1201 13.9493C47.1901 13.9493 47.2601 13.8793 47.3301 13.8793ZM61.9601 11.6377C57.2001 10.8672 49.2901 9.74644 47.3301 14.0194L61.9601 11.6377Z" fill="#CCCCCC"/>
<path d="M61.9599 11.7777C61.9599 11.7777 60.9799 11.7777 59.5099 11.5676C58.8099 11.4975 57.8999 11.4275 56.9899 11.3574C56.0799 11.2874 55.0999 11.2173 54.1199 11.2874C53.6299 11.2874 53.1399 11.3574 52.7199 11.3574C52.2299 11.4275 51.8099 11.4975 51.3899 11.5676C51.1799 11.6376 50.9699 11.6376 50.7599 11.7077C50.5499 11.7777 50.3399 11.8478 50.1999 11.9178C49.9899 11.9879 49.8499 12.0579 49.6399 12.128C49.4999 12.198 49.2899 12.2681 49.1499 12.4082C48.8699 12.6183 48.5899 12.7584 48.4499 12.9686C48.2399 13.1787 48.0299 13.3188 47.9599 13.5289C47.7499 13.8792 47.6099 14.0893 47.6099 14.0893V14.1594C47.5399 14.2995 47.3999 14.2995 47.2599 14.2294C47.1899 14.1594 47.1199 14.0193 47.1899 13.9492C47.1899 13.9492 47.3299 13.7391 47.5399 13.3188C47.6099 13.1087 47.8199 12.8985 48.0299 12.6884C48.2399 12.4082 48.5199 12.2681 48.7999 11.9879C48.9399 11.8478 49.1499 11.7777 49.2899 11.7077C49.4999 11.6376 49.6399 11.4975 49.8499 11.4275L50.4799 11.2173C50.6899 11.1473 50.8999 11.0773 51.1799 11.0072C51.6699 10.8671 52.1599 10.7971 52.6499 10.727C53.1399 10.657 53.6299 10.657 54.1199 10.5869C55.0999 10.5869 56.1499 10.657 57.0599 10.727C57.9699 10.7971 58.8799 10.9372 59.5799 11.0072C59.9299 11.0773 60.2799 11.1473 60.5599 11.2173C60.8399 11.2874 61.1199 11.3574 61.3299 11.3574C61.7499 11.4275 61.9599 11.4975 61.9599 11.4975C62.0299 11.4975 62.0999 11.5676 62.0299 11.7077L61.9599 11.7777Z" fill="#CCCCCC"/>
<path d="M46.2099 35.4541C46.2099 35.4541 43.8299 39.727 47.2599 40.7077C50.6899 41.6884 51.5999 41.4782 52.2299 40.3574C53.2099 38.6062 52.2999 37.6256 53.6999 39.0966C55.0999 40.6376 56.7099 40.3574 56.4299 38.256C56.1499 36.1545 54.6799 35.314 51.6699 35.1038C48.7999 34.8937 47.1899 34.4033 46.2099 35.4541Z" fill="#CCCCCC"/>
<path d="M46.3501 35.6642C46.1401 36.1545 46.0001 36.7149 45.8601 37.2052C45.7901 37.4854 45.7901 37.6956 45.7901 37.9758C45.7901 38.256 45.7901 38.4661 45.8601 38.7463C45.8601 38.8864 45.9301 38.9564 46.0001 39.0965C46.0701 39.2366 46.0701 39.3067 46.2101 39.4468C46.3501 39.6569 46.4901 39.797 46.7001 40.0072L47.3301 40.4275C47.6101 40.4975 47.8201 40.6376 48.1001 40.7076L48.8701 40.9178C49.1501 40.9878 49.3601 40.9878 49.6401 40.9878C50.2001 40.9878 50.6901 40.9178 51.1801 40.7777C51.3901 40.7076 51.6001 40.5675 51.8101 40.3574C52.0201 40.2173 52.1601 40.0072 52.2301 39.797L52.3701 39.4468L52.5101 39.0965C52.5801 38.8864 52.5801 38.6062 52.6501 38.326V38.256C52.7201 38.0458 52.8601 37.9057 53.0701 37.9758C53.1401 37.9758 53.2801 38.0458 53.2801 38.1159C53.5601 38.4661 53.8401 38.7463 54.1201 39.0265C54.2601 39.1666 54.4701 39.3067 54.6101 39.3767C54.7501 39.5168 54.9601 39.5869 55.1001 39.5869C55.2401 39.6569 55.4501 39.6569 55.5901 39.5869L56.0101 39.3767L56.1501 39.2366L56.2201 39.1666C56.2901 39.0965 56.2901 39.0265 56.2901 38.9564C56.3601 38.8163 56.3601 38.6062 56.3601 38.396C56.3601 38.1859 56.2901 38.0458 56.2201 37.8357C56.1501 37.6255 56.0801 37.4854 56.0101 37.2753L55.8701 36.9951L55.6601 36.7849L55.2401 36.3646C55.1001 36.2246 54.8901 36.0845 54.7501 36.0144C54.5401 35.8743 54.4001 35.8043 54.1901 35.7342L53.5601 35.5241L52.9301 35.384C52.8601 35.384 52.8601 35.3139 52.8601 35.2439C52.8601 35.1738 52.9301 35.1738 53.0001 35.1738H53.7001C53.9101 35.2439 54.1901 35.2439 54.4001 35.3139C54.8201 35.454 55.3101 35.5941 55.7301 35.8743C55.9401 36.0144 56.1501 36.1545 56.2901 36.3646L56.5701 36.6448L56.7801 36.925C56.9201 37.1352 57.0601 37.3453 57.1301 37.6255C57.2001 37.8357 57.2701 38.1159 57.2701 38.396C57.2701 38.6762 57.2701 38.9564 57.2001 39.1666C57.1301 39.3067 57.1301 39.4468 56.9901 39.5869L56.8501 39.797L56.7101 39.9371C56.5001 40.1473 56.2901 40.2874 55.9401 40.3574C55.6601 40.4275 55.3801 40.4275 55.1001 40.3574C54.8201 40.2874 54.6101 40.1473 54.4001 40.0772C54.1901 39.9371 53.9801 39.797 53.8401 39.6569C53.4901 39.3767 53.1401 39.0265 52.8601 38.6062L53.5601 38.396C53.4901 38.6762 53.4901 39.0265 53.4201 39.3067L53.0701 39.727L52.8601 40.1473C52.7201 40.4274 52.5101 40.7076 52.2301 40.9178C52.0201 41.1279 51.6701 41.3381 51.3901 41.4081C50.7601 41.6883 50.1301 41.7584 49.5701 41.6883C49.2901 41.6883 48.9401 41.6183 48.6601 41.5482L47.8201 41.3381C47.5401 41.268 47.2601 41.1279 46.9801 40.9878C46.7001 40.8477 46.4201 40.7076 46.2101 40.4975C46.0001 40.2874 45.7201 40.0772 45.5801 39.797L45.3701 39.3767C45.3001 39.2366 45.2301 39.0965 45.2301 38.8864C45.1601 38.6062 45.1601 38.256 45.0901 37.9057C45.0901 37.6255 45.1601 37.2753 45.2301 36.9951C45.3001 36.7149 45.4401 36.4347 45.5101 36.1545C45.6501 35.8743 45.7901 35.5941 46.0001 35.384C46.0701 35.3139 46.2101 35.2439 46.3501 35.384C46.3501 35.454 46.4201 35.5941 46.3501 35.6642Z" fill="#061A80"/>
<path d="M56.2199 36.7853C56.2199 36.7853 56.2199 36.7153 56.2899 36.6452C56.3599 36.5752 56.43 36.5752 56.5 36.5051C56.71 36.365 56.92 36.0848 57.13 35.8046C57.27 35.6645 57.34 35.5244 57.48 35.3843C57.62 35.2442 57.69 35.1041 57.76 35.0341C57.9 34.824 58.18 34.7539 58.18 34.7539C58.25 34.7539 58.3199 34.7539 58.3899 34.824C58.3899 34.824 58.4599 35.0341 58.3199 35.3143C58.1799 35.5945 58.04 35.9447 57.76 36.2249C57.55 36.5051 57.1999 36.7853 56.9199 36.9955C56.7799 37.0655 56.7099 37.1355 56.5699 37.2056H56.36C56.22 37.2756 56.08 37.2056 56.08 37.0655C56.01 36.9254 56.0799 36.8554 56.2199 36.7853Z" fill="#061A80"/>
<path d="M101.58 134.503C101.58 134.503 101.86 134.433 102.42 134.363C102.91 134.293 103.68 134.293 104.59 134.082C105.5 133.942 106.48 133.662 107.53 133.242C108.02 133.032 108.58 132.751 109 132.471C109.49 132.121 109.91 131.771 110.33 131.35C110.75 130.93 111.1 130.44 111.38 129.95C111.73 129.459 112.01 128.969 112.22 128.478C112.43 127.988 112.64 127.498 112.78 127.007C112.92 126.517 113.06 126.027 113.2 125.607C113.41 124.766 113.55 123.995 113.69 123.505C113.76 123.015 113.83 122.664 113.83 122.664C113.83 122.594 113.9 122.524 113.97 122.594C114.04 122.594 114.04 122.664 114.04 122.735V123.575C114.04 123.855 114.04 124.206 113.97 124.556C113.97 124.906 113.9 125.326 113.83 125.817C113.62 126.727 113.34 127.778 112.85 128.829C112.64 129.389 112.29 129.879 112.01 130.44C111.66 130.93 111.31 131.491 110.89 131.911C110.47 132.401 109.98 132.821 109.42 133.172C108.86 133.522 108.3 133.802 107.81 134.012C106.69 134.433 105.64 134.713 104.73 134.853C103.82 134.993 103.05 135.063 102.49 135.063C101.93 135.063 101.65 134.993 101.65 134.993C101.51 134.993 101.44 134.853 101.44 134.713C101.37 134.643 101.44 134.573 101.58 134.503Z" fill="#061A80"/>
<path d="M60.49 29.9905C60.49 29.9905 70.57 29.0098 78.76 30.761C78.76 30.761 83.8 31.6016 85.2 34.4736C86.81 37.7659 93.88 48.4833 87.65 52.8963C81 57.6596 69.94 62.563 69.94 62.563L66.93 55.1379L79.32 48.3432C79.32 48.3432 80.3 47.7828 79.88 46.592C79.25 44.4905 77.22 37.976 77.22 37.976L59.23 37.4857L60.49 29.9905Z" fill="#3858E9"/>
<path d="M61.4 29.9202C61.4 29.9202 56.99 34.1932 62.1 34.1932C67.21 34.1932 70.15 29.7801 70.15 29.7801C70.15 29.7801 68.96 27.1883 68.82 25.8574L65.88 29.0096L61.4 29.9202Z" fill="#CCCCCC"/>
<path d="M76.73 36.2951C77.01 36.7154 77.1499 37.2057 77.2899 37.6961L77.78 39.1671L78.76 42.0391C79.46 44.0004 80.02 45.8917 80.65 47.8531C80.72 47.9932 80.6499 48.2033 80.4399 48.2734L77.71 49.7444C76.8 50.2347 75.8199 50.655 74.8399 51.0052C74.7699 51.0052 74.7 51.0052 74.7 50.9352C74.7 50.8652 74.7 50.7951 74.77 50.7951C75.61 50.1647 76.52 49.6743 77.43 49.1139L80.16 47.6429L80.0199 48.0632C79.39 46.1019 78.69 44.2106 78.06 42.2492L77.15 39.3072L76.66 37.8362C76.52 37.3458 76.38 36.8555 76.31 36.3652C76.31 36.2251 76.38 36.085 76.52 36.085L76.73 36.2951Z" fill="#061A80"/>
<path d="M139.17 22.7055C139.1 21.9349 139.03 21.1644 138.82 20.3939C138.47 18.8528 137.77 17.3818 136.72 16.191C135.67 15.0002 134.27 14.0895 132.8 13.5992C132.03 13.319 131.26 13.1789 130.49 13.1088C129.65 13.0388 128.95 12.9688 128.18 12.9688C127.41 12.9688 126.64 13.0388 125.87 13.1789C125.1 13.319 124.33 13.5291 123.56 13.7393C122.86 14.0195 122.09 14.3697 121.46 14.8601C120.83 15.3504 120.2 15.8407 119.71 16.4712C118.66 17.732 118.03 19.2031 117.75 20.7441C117.61 21.5146 117.47 22.2852 117.47 23.0557C117.47 23.8262 117.47 24.5968 117.61 25.4373L117.68 25.7175H117.96C118.38 25.7175 118.73 25.6475 119.15 25.6475V33.4929C119.15 34.6837 119.15 35.9446 119.29 37.1354H119.78C119.92 35.9446 119.92 34.6837 119.92 33.4929V27.2586C120.06 27.3987 120.2 27.6088 120.34 27.7489C120.62 28.0992 121.04 28.4494 121.46 28.7997C121.88 29.1499 122.51 29.4301 123.14 29.6402C123.84 29.7803 124.61 29.7803 125.31 29.5702C125.66 29.5002 126.01 29.29 126.36 29.1499C126.71 28.9398 126.99 28.7296 127.27 28.5195L127.69 28.2393L128.11 28.0291C128.39 27.889 128.67 27.819 128.88 27.889C129.37 28.0291 129.79 28.6596 130.07 29.29C130.42 29.9204 130.7 30.5509 131.05 31.1813C131.4 31.8117 131.75 32.3721 132.17 32.8625C132.59 33.3528 133.15 33.7731 133.71 33.9832C134.27 34.1934 134.83 34.1934 135.32 34.1233C135.81 34.0533 136.16 33.9832 136.51 33.8431C136.79 33.7031 137.07 33.633 137.21 33.563C137.21 34.6837 137.28 35.8745 137.35 36.9953H137.56C137.7 34.6137 137.77 32.232 137.77 29.7803V25.2973C138.12 25.2973 138.54 25.3673 138.89 25.3673H139.03V25.1572C139.24 24.2465 139.24 23.476 139.17 22.7055ZM137 33.1427C136.86 33.2127 136.58 33.2828 136.3 33.3528C136.02 33.4229 135.6 33.4929 135.18 33.4929C134.76 33.4929 134.27 33.4229 133.85 33.2828C133.36 33.0726 132.94 32.7924 132.59 32.3021C132.17 31.8818 131.89 31.3214 131.54 30.691C131.26 30.0605 130.91 29.4301 130.63 28.7997C130.42 28.4494 130.28 28.1692 130 27.819C129.72 27.5388 129.44 27.1886 128.95 27.0485C127.97 26.7683 127.13 27.3987 126.64 27.819C126.36 28.0291 126.08 28.2393 125.8 28.3794C125.52 28.5195 125.24 28.7296 124.89 28.7997C124.33 29.0098 123.7 29.0098 123.14 28.8697C122.58 28.7296 122.09 28.5195 121.67 28.1692C121.25 27.889 120.9 27.5388 120.62 27.1886C120.34 26.8383 120.13 26.5581 119.92 26.2779C119.85 26.1378 119.71 26.0678 119.64 25.9277V22.7755H136.93V29.5702C136.93 30.691 136.93 31.8818 137 33.0026C137.14 33.1427 137.07 33.1427 137 33.1427ZM137.42 22.1451C131.4 22.1451 125.38 22.075 119.43 22.1451H119.08V25.1572C118.8 25.1572 118.45 25.0871 118.17 25.0871C118.1 24.4567 118.1 23.7562 118.17 23.1258C118.24 22.3552 118.31 21.6547 118.45 20.9543C118.8 19.4832 119.36 18.1523 120.34 17.0316C120.83 16.4712 121.32 15.9808 121.95 15.5605C122.58 15.1402 123.21 14.8601 123.91 14.5799C124.61 14.3697 125.31 14.1596 126.08 14.0195C126.78 13.8794 127.55 13.8093 128.32 13.8093C129.02 13.8093 129.86 13.8093 130.56 13.8794C131.26 13.9494 132.03 14.0895 132.73 14.3697C134.13 14.79 135.39 15.6306 136.37 16.6813C137.35 17.8021 137.98 19.133 138.4 20.534C138.61 21.2345 138.75 22.005 138.82 22.7055C138.89 23.4059 138.96 24.1064 138.89 24.8069C138.61 24.8069 138.26 24.8069 137.98 24.877V22.1451H137.42Z" fill="#DBE9F8"/>
<path d="M54.05 51.7754H63.43V60.3213H54.05V51.7754Z" fill="#DBE9F8"/>
<path d="M63.57 59.5512C63.57 59.5512 63.57 59.6212 63.64 59.7613C63.64 59.9714 63.64 60.3217 63.36 60.5318C63.08 60.812 62.8 60.9521 62.38 61.0222C62.03 61.1623 61.61 61.1623 61.12 61.2323C60.7 61.3024 60.21 61.3024 59.65 61.3024C59.16 61.3024 58.6 61.3024 58.11 61.3724C57.97 61.3724 57.83 61.4425 57.76 61.4425L57.83 61.3724V61.3024V61.4425C57.83 61.4425 57.83 61.5125 57.9 61.6526C57.97 61.7227 57.97 61.8627 58.04 61.9328C58.32 62.3531 58.74 62.7033 59.23 62.9835C60.14 63.614 61.26 63.9642 62.31 63.9642C63.36 64.0342 64.27 63.684 65.04 63.2637C65.25 63.1937 65.39 63.0536 65.53 62.9135C65.67 62.7734 65.81 62.7033 65.95 62.5632C66.23 62.3531 66.44 62.1429 66.58 61.9328C66.79 61.7927 66.86 61.5826 67 61.5125L67.14 61.3724C67.21 61.3024 67.28 61.3024 67.28 61.3724C67.35 61.4425 67.35 61.4425 67.28 61.5125C67.28 61.5125 67.21 61.5826 67.21 61.7227C67.14 61.8627 67.07 62.0028 66.86 62.213C66.72 62.4231 66.51 62.7033 66.23 62.9835C65.95 63.2637 65.67 63.5439 65.25 63.8241C64.48 64.3144 63.36 64.6647 62.17 64.6647C60.98 64.6647 59.79 64.2444 58.74 63.614C58.18 63.2637 57.69 62.9135 57.34 62.3531C57.27 62.213 57.13 62.0729 57.06 61.8627C57.06 61.7927 56.99 61.7226 56.99 61.5826V61.2323C56.99 61.1623 56.99 61.1623 57.06 61.0922V61.0222C57.13 60.9521 57.13 60.9521 57.13 60.8821C57.2 60.742 57.27 60.742 57.34 60.6719C57.41 60.6019 57.48 60.6019 57.48 60.6019C57.69 60.5318 57.83 60.5318 57.97 60.5318C58.53 60.4618 59.09 60.4618 59.58 60.4618C60.07 60.4618 60.56 60.4618 60.98 60.3917C61.82 60.3217 62.52 60.1115 62.8 59.9014C62.94 59.8313 62.94 59.6912 63.01 59.6212V59.4111C63.01 59.271 63.08 59.2009 63.22 59.1309C63.43 59.341 63.5 59.4111 63.57 59.5512Z" fill="#061A80"/>
<path d="M63.2899 56.5382C63.2899 56.5382 63.2899 56.4681 63.3599 56.3981C63.4299 56.328 63.5699 56.328 63.6399 56.328C63.9199 56.258 64.2699 56.1879 64.5499 56.1179C64.8999 56.0479 65.2499 56.0479 65.5299 56.0479C65.8099 56.0479 66.0199 56.1879 66.0199 56.1879C66.0899 56.258 66.0899 56.328 66.0899 56.3981C66.0899 56.3981 65.9499 56.6082 65.6699 56.6783C65.3899 56.7483 65.1099 56.8184 64.7599 56.8884C64.4099 56.9585 64.0599 56.9585 63.7799 57.0285C63.6399 57.0285 63.5699 57.0986 63.4299 57.0285C63.3599 57.0285 63.2899 56.9585 63.2899 56.9585C63.2899 56.8884 63.2199 56.6783 63.2899 56.5382Z" fill="#061A80"/>
</g>
</g>
<defs>
<clipPath id="clip0_696_22772">
<rect width="190" height="146" fill="white"/>
</clipPath>
<clipPath id="clip1_696_22772">
<rect width="189" height="145" fill="white" transform="translate(0.5 0.5)"/>
</clipPath>
</defs>
</svg>
