<svg width="24" height="24" viewBox="0 0 24 24" fill="none" xmlns="http://www.w3.org/2000/svg">
<title>Status: closed</title>
<path d="M16.8164 9.26435C16.9372 9.12183 17.003 8.93333 16.9999 8.73856C16.9968 8.54379 16.925 8.35795 16.7996 8.2202C16.6743 8.08246 16.5052 8.00355 16.3279 8.00012C16.1507 7.99668 15.9791 8.06898 15.8495 8.20178L10.4037 14.1863L8.15054 11.7103C8.02085 11.5775 7.84932 11.5052 7.67208 11.5086C7.49484 11.512 7.32573 11.591 7.20038 11.7287C7.07503 11.8664 7.00323 12.0523 7.00011 12.2471C6.99698 12.4418 7.06277 12.6303 7.18362 12.7728L9.9202 15.7801C10.0485 15.9209 10.2224 16 10.4037 16C10.585 16 10.7588 15.9209 10.8871 15.7801L16.8164 9.26435Z" fill="#7A00DF"/>
<path d="M12 2C14.6522 2 17.1957 3.05357 19.0711 4.92893C20.9464 6.8043 22 9.34784 22 12C22 14.6522 20.9464 17.1957 19.0711 19.0711C17.1957 20.9464 14.6522 22 12 22C9.34784 22 6.8043 20.9464 4.92893 19.0711C3.05357 17.1957 2 14.6522 2 12C2 9.34784 3.05357 6.8043 4.92893 4.92893C6.8043 3.05357 9.34784 2 12 2ZM3.875 12C3.875 14.1549 4.73102 16.2215 6.25476 17.7452C7.77849 19.269 9.84512 20.125 12 20.125C14.1549 20.125 16.2215 19.269 17.7452 17.7452C19.269 16.2215 20.125 14.1549 20.125 12C20.125 9.84512 19.269 7.77849 17.7452 6.25476C16.2215 4.73102 14.1549 3.875 12 3.875C9.84512 3.875 7.77849 4.73102 6.25476 6.25476C4.73102 7.77849 3.875 9.84512 3.875 12Z" fill="#7A00DF"/>
</svg>
