<svg width="300" height="188" viewBox="0 0 300 188" fill="none" xmlns="http://www.w3.org/2000/svg">
<path d="M30.15 159.499C50.1 159.048 70.125 158.973 90.075 158.897L150 158.822C189.975 158.897 229.95 158.897 269.85 159.349C269.93 159.349 270.006 159.38 270.062 159.437C270.118 159.493 270.15 159.57 270.15 159.649C270.15 159.729 270.118 159.806 270.062 159.862C270.006 159.919 269.93 159.95 269.85 159.95C229.875 160.477 189.9 160.401 150 160.477L90.075 160.401C70.125 160.326 50.1 160.176 30.15 159.8C30.1102 159.8 30.0721 159.784 30.0439 159.756C30.0158 159.728 30 159.689 30 159.649C30 159.61 30.0158 159.571 30.0439 159.543C30.0721 159.515 30.1102 159.499 30.15 159.499Z" fill="#DDDDDD"/>
<path d="M132.975 57.0021C135.225 55.7237 141.525 56.1749 143.775 57.2277L139.125 62.3413" fill="#DDDDDD"/>
<path d="M134.4 50.9102H142.275V62.2654H134.4V50.9102Z" fill="#BBBBBB"/>
<path d="M142.875 41.1348C144.9 45.5716 144.525 54.1444 137.475 54.1444C130.425 54.1444 130.05 45.5716 132.075 41.1348" fill="#BBBBBB"/>
<path d="M134.4 53.6924V56.0988C134.4 56.0988 138.675 55.6476 140.4 53.6924H134.4Z" fill="#757575"/>
<path d="M151.35 119.417L158.475 153.558L153.6 154.611L151.2 150.625C149.85 145.286 147.675 143.707 145.725 133.705C145.564 132.82 145.287 131.96 144.9 131.148C143.775 128.742 141.45 122.952 141.675 117.161" fill="#BBBBBB"/>
<path d="M151.35 119.417L158.475 153.558L153.6 154.611L151.2 150.625C149.85 145.286 147.675 143.707 145.725 133.705C145.564 132.82 145.287 131.96 144.9 131.149C143.775 128.742 141.45 122.952 141.675 117.161M125.85 118.44C125.85 118.44 128.4 144.233 127.95 153.182L130.575 154.611L134.25 151.453C134.775 146.264 137.1 141.827 136.275 136.262C135.825 134.105 135.825 131.877 136.275 129.72C137.025 126.486 137.475 122.425 136.65 113.627" fill="#BBBBBB"/>
<path d="M122.25 120.47C120.525 108.814 120.45 90.1643 127.425 81.4411C134.4 72.7179 146.325 80.2379 146.325 80.2379C152.025 85.6523 156.15 96.3307 153.75 120.395" fill="#DDDDDD"/>
<path d="M142.425 51.8877C142.425 51.8877 143.625 53.6173 146.25 52.1133C148.875 50.6093 147.975 46.9245 147.975 46.9245C147.975 46.9245 149.7 45.7965 149.175 42.8637C148.8 40.3821 146.025 39.4797 146.025 39.4797C146.025 39.4797 146.4 37.5997 144.075 35.5693C141.3 33.2381 137.775 35.2685 137.775 35.2685C137.775 35.2685 135.825 33.6893 132.075 34.8173C127.425 36.2461 128.775 40.7581 128.775 40.7581C124.2 43.0141 125.625 50.6093 131.55 50.9101C131.55 50.9101 128.4 37.9757 138 37.9757C148.125 37.9757 142.425 51.8877 142.425 51.8877ZM120.975 120.169C122.421 120.043 123.873 119.993 125.325 120.019H146.925C149.775 120.019 152.7 120.094 155.55 120.245C155.589 120.248 155.625 120.265 155.652 120.292C155.68 120.32 155.697 120.356 155.7 120.395C155.7 120.47 155.625 120.47 155.55 120.545C152.7 120.771 149.775 120.771 146.925 120.771H125.325C123.873 120.832 122.419 120.782 120.975 120.621C120.825 120.621 120.75 120.47 120.75 120.32C120.817 120.259 120.893 120.208 120.975 120.169Z" fill="#061A80"/>
<path d="M142.875 41.1348C144.9 45.5716 144.525 54.1444 137.475 54.1444C130.425 54.1444 130.05 45.5716 132.075 41.1348" stroke="#061A80" stroke-linecap="round" stroke-linejoin="round"/>
<path d="M131.475 37.374C131.775 41.8108 134.55 47.6764 143.925 47.2252C143.925 47.2252 146.25 37.6748 138.975 37.2988" fill="#061A80"/>
<path d="M131.475 58.1295C126.975 57.9039 120.525 66.1759 118.05 69.1839C117.932 69.332 117.844 69.502 117.791 69.6842C117.738 69.8665 117.722 70.0573 117.743 70.2459C117.764 70.4344 117.821 70.617 117.913 70.7832C118.004 70.9494 118.127 71.0959 118.275 71.2143L124.8 76.2527L130.5 71.5903M145.95 58.6559C149.475 58.6559 155.475 66.1759 157.95 69.1839C158.068 69.332 158.156 69.502 158.209 69.6842C158.262 69.8665 158.278 70.0573 158.257 70.2459C158.236 70.4344 158.178 70.617 158.087 70.7832C157.996 70.9494 157.873 71.0959 157.725 71.2143L151.875 76.1775L150.3 74.5983C152.625 64.3711 145.95 58.6559 145.95 58.6559Z" fill="#061A80"/>
<path d="M150.825 68.4324C150.825 82.194 145.95 84.1492 138.15 84.2244C131.4 84.2996 125.925 87.6836 125.925 70.4628C125.925 66.2516 128.775 58.0548 133.35 56.7012L138.225 61.5892L143.1 56.7012C147.9 58.13 150.825 63.9204 150.825 68.4324Z" fill="#DDDDDD"/>
<path d="M133.5 56.4756C133.983 56.8101 134.435 57.1876 134.85 57.6036L136.125 58.8068L138.6 61.2884H138C138.825 60.4612 139.65 59.7092 140.475 58.882C141.279 58.0511 142.158 57.2959 143.1 56.626C143.11 56.616 143.121 56.608 143.134 56.6026C143.147 56.5972 143.161 56.5944 143.175 56.5944C143.189 56.5944 143.203 56.5972 143.216 56.6026C143.228 56.608 143.24 56.616 143.25 56.626V56.7764C142.582 57.7209 141.829 58.6019 141 59.4084C140.175 60.2356 139.425 61.0628 138.6 61.89C138.517 61.9625 138.41 62.0024 138.3 62.0024C138.19 62.0024 138.083 61.9625 138 61.89L135.525 59.4084L134.325 58.13C133.91 57.7137 133.534 57.2606 133.2 56.7764C133.172 56.7137 133.164 56.6438 133.178 56.5764C133.191 56.509 133.225 56.4475 133.275 56.4004C133.305 56.4288 133.34 56.4503 133.379 56.4633C133.418 56.4763 133.459 56.4805 133.5 56.4756ZM146.475 80.0884C147.88 81.2224 149.074 82.5973 150 84.1492C150.469 84.9011 150.895 85.6794 151.275 86.4804C151.5 86.8564 151.65 87.3076 151.875 87.6836L152.4 88.962C153.648 92.3013 154.455 95.7902 154.8 99.3396C155.162 102.862 155.262 106.406 155.1 109.943L154.95 112.575L154.65 115.207C154.575 116.109 154.425 116.936 154.275 117.839C154.125 118.741 153.975 119.568 153.825 120.471C153.825 120.546 153.75 120.546 153.675 120.546C153.6 120.546 153.6 120.471 153.6 120.396C153.825 116.861 154.275 113.402 154.35 109.868C154.512 106.356 154.412 102.836 154.05 99.3396C153.722 95.8436 152.941 92.4054 151.725 89.1124L151.275 87.9092C151.125 87.5332 150.9 87.1572 150.75 86.706C150.37 85.9294 149.944 85.1761 149.475 84.45C148.55 82.9833 147.468 81.6217 146.25 80.3892C146.213 80.3335 146.193 80.2681 146.193 80.2012C146.193 80.1343 146.213 80.0688 146.25 80.0132C146.329 80.0224 146.406 80.048 146.475 80.0884Z" fill="#061A80"/>
<path d="M151.425 67.4541C151.64 68.0569 151.741 68.6943 151.725 69.3341V70.2365L151.65 71.1389C151.591 72.381 151.415 73.6147 151.125 74.8237C150.838 76.0375 150.436 77.2211 149.925 78.3581C149.495 79.5323 148.831 80.6068 147.975 81.5165C147.9 81.5917 147.825 81.5917 147.825 81.5165C147.825 81.4413 147.75 81.4413 147.825 81.3661C148.275 80.2381 148.8 79.1101 149.25 78.0573C149.703 76.9314 150.079 75.7756 150.375 74.5981C150.69 73.4425 150.891 72.2587 150.975 71.0637L151.05 70.1613V69.2589C150.975 68.6597 150.975 68.0534 151.05 67.4541C151.05 67.3037 151.2 67.2285 151.35 67.2285C151.275 67.3037 151.35 67.3789 151.425 67.4541ZM132.675 158.973C132.624 158.095 132.649 157.214 132.75 156.341C132.833 155.426 133.143 154.548 133.65 153.784C133.669 153.753 133.694 153.727 133.723 153.707C133.753 153.686 133.786 153.672 133.821 153.665C133.856 153.658 133.893 153.658 133.928 153.666C133.963 153.673 133.996 153.688 134.025 153.709C134.1 153.709 134.1 153.784 134.1 153.859C134.371 154.735 134.423 155.665 134.25 156.566C134.13 157.435 133.929 158.291 133.65 159.123C133.575 159.424 133.275 159.499 132.975 159.424C132.825 159.273 132.675 159.123 132.675 158.973Z" fill="#061A80"/>
<path d="M128.1 152.205C128.1 152.127 128.077 152.05 128.034 151.985C127.991 151.919 127.931 151.868 127.859 151.836C127.788 151.804 127.709 151.794 127.632 151.806C127.555 151.818 127.483 151.852 127.425 151.904C122.4 156.868 118.65 158.597 119.4 159.65C120.9 161.53 131.475 157.62 133.05 156.567C134.625 155.514 135.075 154.16 134.175 151.528C134.175 151.528 131.85 153.408 129.9 153.258C129.15 153.183 128.1 152.656 128.1 152.205Z" fill="#061A80"/>
<path d="M151.875 158.446C151.569 157.622 151.368 156.763 151.275 155.889C151.102 154.988 151.153 154.058 151.425 153.182C151.439 153.147 151.46 153.115 151.486 153.088C151.513 153.061 151.545 153.04 151.58 153.026C151.615 153.012 151.653 153.005 151.691 153.006C151.728 153.007 151.766 153.016 151.8 153.032C151.875 153.032 151.875 153.107 151.95 153.107C152.457 153.871 152.767 154.75 152.85 155.664C152.987 156.534 153.012 157.419 152.925 158.296C152.923 158.368 152.904 158.439 152.871 158.503C152.838 158.567 152.791 158.623 152.733 158.666C152.675 158.709 152.609 158.739 152.538 158.753C152.467 158.767 152.395 158.765 152.325 158.747C152.229 158.744 152.136 158.714 152.057 158.661C151.977 158.608 151.914 158.534 151.875 158.446Z" fill="#061A80"/>
<path d="M157.725 151.604C157.725 151.525 157.748 151.449 157.791 151.383C157.834 151.318 157.894 151.266 157.965 151.234C158.037 151.203 158.116 151.192 158.193 151.204C158.27 151.216 158.342 151.251 158.4 151.303C163.425 156.266 167.175 157.996 166.425 159.048C164.925 160.928 154.125 157.018 152.475 155.965C150.825 154.912 150.3 153.333 151.275 150.701C151.275 150.701 153.975 152.807 155.85 152.581C156.6 152.506 157.725 152.055 157.725 151.604Z" fill="#061A80"/>
<path d="M137.4 46.6992C137.524 47.1903 137.574 47.6972 137.55 48.2032C137.562 48.7057 137.537 49.2085 137.475 49.7072C137.475 49.8576 137.325 49.9328 137.175 49.9328C137.116 49.9293 137.061 49.9043 137.02 49.8628C136.978 49.8212 136.953 49.7659 136.95 49.7072C136.888 49.2085 136.862 48.7057 136.875 48.2032C136.888 47.6989 136.938 47.1961 137.025 46.6992C137.025 46.624 137.175 46.5488 137.25 46.5488C137.325 46.5488 137.4 46.624 137.4 46.6992Z" fill="#061A80"/>
<path d="M134.475 48.2032C134.405 48.2053 134.336 48.1931 134.272 48.1674C134.207 48.1417 134.148 48.103 134.099 48.0537C134.05 48.0044 134.011 47.9455 133.986 47.8807C133.96 47.8159 133.948 47.7465 133.95 47.6768V46.8496C133.95 46.7805 133.964 46.7121 133.99 46.6482C134.016 46.5843 134.055 46.5263 134.104 46.4774C134.152 46.4285 134.21 46.3898 134.274 46.3633C134.338 46.3369 134.406 46.3232 134.475 46.3232C134.544 46.3232 134.612 46.3369 134.676 46.3633C134.74 46.3898 134.797 46.4285 134.846 46.4774C134.895 46.5263 134.934 46.5843 134.96 46.6482C134.986 46.7121 135 46.7805 135 46.8496V47.6768C135.002 47.7465 134.99 47.8159 134.964 47.8807C134.939 47.9455 134.9 48.0044 134.851 48.0537C134.802 48.103 134.743 48.1417 134.678 48.1674C134.614 48.1931 134.544 48.2053 134.475 48.2032ZM139.95 48.2032C139.88 48.2053 139.811 48.1931 139.747 48.1674C139.682 48.1417 139.623 48.103 139.574 48.0537C139.525 48.0044 139.486 47.9455 139.461 47.8807C139.435 47.8159 139.423 47.7465 139.425 47.6768V46.8496C139.425 46.71 139.48 46.5761 139.579 46.4774C139.677 46.3787 139.811 46.3232 139.95 46.3232C140.089 46.3232 140.223 46.3787 140.321 46.4774C140.42 46.5761 140.475 46.71 140.475 46.8496V47.6768C140.466 47.8135 140.408 47.9424 140.311 48.0392C140.215 48.1361 140.086 48.1944 139.95 48.2032Z" fill="#061A80"/>
<path d="M136.425 51.1361C136.7 51.2895 137.01 51.3674 137.325 51.3617C137.475 51.3696 137.626 51.347 137.768 51.2953C137.91 51.2437 138.039 51.1639 138.15 51.0609C138.205 51.0237 138.271 51.0039 138.337 51.0039C138.404 51.0039 138.469 51.0237 138.525 51.0609C138.553 51.0906 138.575 51.1263 138.588 51.1653C138.601 51.2043 138.605 51.2457 138.6 51.2865C138.49 51.536 138.307 51.7459 138.075 51.8881C137.845 52.0097 137.584 52.0619 137.325 52.0385C137.069 52.0248 136.816 51.9742 136.575 51.8881C136.342 51.7542 136.138 51.5753 135.975 51.3617C135.9 51.2113 135.975 51.0609 136.125 51.0609C136.275 51.0609 136.35 51.0609 136.425 51.1361ZM134.85 44.6689C134.548 44.6595 134.246 44.6847 133.95 44.7441C133.65 44.8193 133.275 44.8945 133.05 44.9697H132.975C132.825 45.0449 132.675 44.9697 132.675 44.8193V44.5937C132.967 44.2665 133.366 44.0535 133.8 43.9921C134.023 43.9545 134.251 43.9545 134.475 43.9921C134.723 44.0275 134.957 44.1317 135.15 44.2929C135.187 44.3343 135.207 44.3878 135.207 44.4433C135.207 44.4988 135.187 44.5524 135.15 44.5937C135.075 44.6689 135.075 44.6689 135 44.6689H134.85ZM138.75 44.0673C138.97 43.8322 139.259 43.674 139.575 43.6161C139.819 43.5407 140.08 43.5407 140.325 43.6161C140.583 43.659 140.829 43.7545 141.048 43.8968C141.267 44.0391 141.455 44.2251 141.6 44.4433C141.637 44.4903 141.663 44.5452 141.675 44.6037C141.688 44.6623 141.687 44.723 141.673 44.7812C141.658 44.8393 141.63 44.8933 141.592 44.9391C141.553 44.9848 141.505 45.021 141.45 45.0449C141.375 45.0449 141.3 45.1201 141.225 45.1201H140.85C140.573 45.1293 140.296 45.104 140.025 45.0449C139.875 45.0449 139.725 44.9697 139.575 44.9697C139.517 44.9686 139.46 44.9545 139.408 44.9285C139.356 44.9025 139.311 44.8652 139.275 44.8193C139.221 44.8541 139.16 44.8778 139.097 44.889C139.034 44.9003 138.969 44.8988 138.906 44.8849C138.843 44.8709 138.784 44.8446 138.731 44.8076C138.679 44.7705 138.634 44.7234 138.6 44.6689C138.565 44.621 138.542 44.5661 138.531 44.5082C138.52 44.4502 138.521 44.3905 138.536 44.3332C138.55 44.276 138.576 44.2225 138.613 44.1766C138.65 44.1307 138.697 44.0934 138.75 44.0673Z" fill="#061A80"/>
<path d="M161.85 93.6996L159.375 97.4596L118.575 62.3412L124.575 56.7012L161.175 88.2852C161.942 88.9395 162.438 89.8585 162.562 90.8608C162.687 91.8631 162.433 92.876 161.85 93.6996Z" fill="#3858E9"/>
<path d="M122.465 55.2324C127.43 47.7197 125.381 37.5938 117.888 32.6155C110.395 27.6373 100.296 29.6919 95.3314 37.2047C90.3665 44.7174 92.4156 54.8433 99.9083 59.8215C107.401 64.7997 117.5 62.7451 122.465 55.2324Z" stroke="#3858E9" stroke-width="8" stroke-linecap="round" stroke-linejoin="round"/>
<path d="M119.25 72.1171C114.45 77.6067 115.95 84.6755 120 86.6307C126.75 89.7891 136.275 75.3507 137.1 74.0723C137.925 72.7939 140.475 72.2675 141.375 70.5379C142.275 68.8083 142.5 66.4771 141.825 65.6499C141.15 64.8227 140.325 65.6499 140.325 65.6499C139.8 67.8307 137.025 69.6355 137.025 69.6355C137.025 69.6355 138.6 66.7027 137.475 66.7027C136.2 66.7027 135.15 69.4099 134.25 70.8387C133.35 72.2675 124.35 74.0723 122.175 79.5619L124.725 76.2531" fill="#BBBBBB"/>
<path d="M140.625 65.65C140.464 66.5671 140.018 67.4095 139.35 68.0564C138.748 68.7353 138.068 69.341 137.325 69.8612C137.286 69.8929 137.242 69.9162 137.194 69.9296C137.146 69.943 137.095 69.9463 137.046 69.9393C136.997 69.9322 136.949 69.9149 136.907 69.8885C136.865 69.8622 136.828 69.8272 136.8 69.786C136.763 69.7304 136.743 69.6649 136.743 69.598C136.743 69.5311 136.763 69.4657 136.8 69.41C137.031 68.9733 137.232 68.521 137.4 68.0564C137.485 67.8402 137.536 67.6118 137.55 67.3796C137.625 67.154 137.55 66.9284 137.55 67.0036C137.55 67.0788 137.475 67.0036 137.325 67.0788C137.157 67.1812 137.006 67.3079 136.875 67.4548C136.575 67.7556 136.35 68.2068 136.05 68.5828C135.75 68.9588 135.6 69.41 135.375 69.8612L135 70.538C134.874 70.7978 134.695 71.0283 134.475 71.2148C134.045 71.5616 133.564 71.8405 133.05 72.042C132.615 72.2737 132.163 72.4747 131.7 72.6436C129.877 73.3949 128.12 74.3005 126.45 75.3508C124.78 76.3731 123.389 77.7941 122.4 79.4868C122.4 79.562 122.325 79.562 122.25 79.562C122.175 79.562 122.175 79.4868 122.175 79.4116C122.903 77.4551 124.28 75.809 126.075 74.7492C127.778 73.6894 129.558 72.7593 131.4 71.9668C131.85 71.7412 132.3 71.5908 132.75 71.3652C133.168 71.1723 133.569 70.9459 133.95 70.6884C134.086 70.521 134.211 70.3452 134.325 70.162L134.7 69.4852C134.921 69.0185 135.172 68.5664 135.45 68.1316C135.707 67.6763 136.008 67.248 136.35 66.8532C136.541 66.6375 136.77 66.4591 137.025 66.3268C137.184 66.2327 137.365 66.181 137.55 66.1764H137.85C137.982 66.2061 138.109 66.2569 138.225 66.3268C138.375 66.402 138.375 66.5524 138.45 66.6276C138.525 66.7028 138.525 66.8532 138.525 66.9284V67.3796C138.45 67.6804 138.375 67.906 138.3 68.1316C138.152 68.6408 137.924 69.1232 137.625 69.5604L137.1 69.034C137.792 68.5644 138.423 68.0085 138.975 67.3796C139.534 66.7827 139.991 66.0965 140.325 65.3492C140.354 65.297 140.399 65.2548 140.452 65.228C140.506 65.2013 140.566 65.1911 140.625 65.1988C140.625 65.4244 140.7 65.4996 140.625 65.65Z" fill="#061A80"/>
<path d="M150.075 87.6837C150.6 82.8709 153.825 78.4341 153.825 78.4341L152.1 75.9525L157.95 70.9141C160.5 73.8469 162.225 74.7493 162.075 77.9829C161.925 81.2165 154.95 88.9621 154.95 88.9621C153.075 91.4437 150.525 94.3765 149.325 94.6773C148.125 94.9781 145.65 95.4293 145.275 94.0757C144.75 92.3461 147.225 91.2181 148.95 90.3909C149.85 89.9397 149.55 89.1125 148.725 89.4133C147.9 89.7141 146.625 88.8869 148.35 88.2853L150.075 87.6837Z" fill="#BBBBBB"/>
<path d="M154.35 78.0576C154.007 78.4355 153.728 78.8674 153.525 79.336L152.85 80.6896C152.4 81.6672 152.025 82.5696 151.65 83.5472C151.275 84.5248 150.9 85.5024 150.6 86.48L150.375 87.232L150.3 87.3824C150.305 87.4232 150.301 87.4647 150.288 87.5037C150.275 87.5427 150.253 87.5783 150.225 87.608C150.196 87.7046 150.148 87.7943 150.083 87.8719C150.019 87.9494 149.94 88.0131 149.85 88.0592C149.391 88.4305 148.852 88.6882 148.275 88.8112C148.046 88.875 147.821 88.9503 147.6 89.0368L147.675 88.9616C147.703 88.9319 147.725 88.8963 147.738 88.8573C147.751 88.8183 147.755 88.7768 147.75 88.736V88.6608C147.75 88.736 147.75 88.736 147.825 88.8112C147.825 88.8312 147.833 88.8503 147.847 88.8644C147.861 88.8785 147.88 88.8864 147.9 88.8864C147.975 88.9616 148.2 88.9616 148.425 88.9616C148.699 88.9235 148.976 88.9235 149.25 88.9616C149.355 88.9585 149.459 88.9845 149.55 89.0368C149.625 89.0368 149.7 89.112 149.775 89.112C149.868 89.1977 149.944 89.2997 150 89.4128C150 89.7136 149.925 89.7888 149.85 89.864L149.625 90.0896C149.418 90.2656 149.192 90.417 148.95 90.5408L147.6 91.368C147.15 91.6688 146.7 91.8944 146.325 92.1952C145.966 92.4398 145.681 92.7778 145.5 93.1728C145.5 93.6992 145.5 94.1504 145.8 94.376C146.224 94.5799 146.681 94.7072 147.15 94.752C147.19 94.752 147.228 94.7679 147.256 94.7961C147.284 94.8243 147.3 94.8625 147.3 94.9024C147.3 94.9423 147.284 94.9806 147.256 95.0088C147.228 95.037 147.19 95.0528 147.15 95.0528C146.59 95.1267 146.02 95.0488 145.5 94.8272C145.363 94.7477 145.245 94.6392 145.155 94.5093C145.064 94.3794 145.003 94.2313 144.975 94.0752C144.916 93.8036 144.891 93.5258 144.9 93.248C144.932 92.9162 145.062 92.6017 145.275 92.3456C145.456 92.1266 145.657 91.9252 145.875 91.744C146.282 91.3947 146.707 91.0683 147.15 90.7664C147.583 90.4636 148.034 90.1873 148.5 89.9392C148.713 89.8072 148.914 89.6562 149.1 89.488C149.175 89.4128 149.175 89.488 149.175 89.4128V89.5632C149.25 89.7136 149.325 89.7136 149.325 89.7136H149.25C148.875 89.6384 148.275 89.9392 147.525 89.5632C147.34 89.4529 147.185 89.2977 147.075 89.112C147.047 89.0823 147.025 89.0467 147.012 89.0077C146.999 88.9687 146.995 88.9272 147 88.8864V88.8112C147 88.6608 147 88.5856 147.075 88.5104C147.15 88.4352 147.225 88.36 147.3 88.36C147.675 88.2096 147.9 88.1344 148.125 88.0592C148.572 87.9434 149.001 87.7663 149.4 87.5328L149.55 87.3824C149.555 87.3247 149.582 87.2711 149.625 87.232L149.7 87.0064L149.925 86.2544C150.3 85.2768 150.6 84.2992 151.05 83.3216C151.5 82.344 151.875 81.3664 152.4 80.464C152.853 79.4987 153.52 78.6498 154.35 77.9824H154.425C154.405 77.9824 154.386 77.9903 154.372 78.0044C154.358 78.0186 154.35 78.0377 154.35 78.0576Z" fill="#061A80"/>
<path d="M82.9501 122.05C84.4947 120.786 85.6195 119.081 86.1751 117.162C86.6994 115.254 86.8522 113.262 86.6251 111.296C86.0942 107.38 84.8213 103.603 82.8751 100.166C80.8958 96.7556 78.2414 93.7869 75.0751 91.4432C73.5024 90.2982 71.7881 89.3629 69.9751 88.6608C68.1724 87.9844 66.2009 87.9054 64.3501 88.4352C62.5325 89.0324 61.0061 90.2944 60.0751 91.9696C59.175 93.6755 58.8588 95.6307 59.1751 97.5344C59.5501 101.445 61.1251 105.13 62.9251 108.664C64.7921 112.168 67.0845 115.426 69.7501 118.365C71.0891 119.822 72.6002 121.11 74.2501 122.2C75.0564 122.737 75.9423 123.143 76.8751 123.403C77.7965 123.67 78.7835 123.59 79.6501 123.178C79.7251 123.102 79.8001 123.178 79.8751 123.253C79.9501 123.328 79.8751 123.403 79.8001 123.478C78.8706 123.938 77.8138 124.071 76.8001 123.854C75.8098 123.59 74.8534 123.212 73.9501 122.726C72.2531 121.639 70.692 120.351 69.3001 118.891C66.5474 115.972 64.1782 112.712 62.2501 109.19C61.2739 107.433 60.4461 105.597 59.7751 103.701C59.0721 101.808 58.5938 99.8397 58.3501 97.8352C58.034 95.7525 58.3749 93.6229 59.3251 91.744C60.3518 89.8896 62.0395 88.4928 64.0501 87.8336C66.0816 87.2918 68.2308 87.3969 70.2001 88.1344C72.1014 88.8285 73.8944 89.7907 75.5251 90.992C78.7823 93.4018 81.4921 96.4776 83.4751 100.016C84.4584 101.786 85.2624 103.65 85.8751 105.581C86.5291 107.505 86.957 109.498 87.1501 111.522C87.3268 113.547 87.1233 115.587 86.5501 117.538C85.9293 119.484 84.7245 121.191 83.1001 122.426H83.0251C82.9887 122.303 82.9636 122.177 82.9501 122.05ZM90.9001 127.163C89.9397 125.565 89.374 123.761 89.2501 121.899C89.1735 120.045 89.4015 118.19 89.9251 116.41C91.0412 112.833 93.1169 109.633 95.9251 107.16C95.9587 107.124 95.9994 107.095 96.0446 107.076C96.0897 107.056 96.1384 107.046 96.1876 107.046C96.2368 107.046 96.2854 107.056 96.3306 107.076C96.3757 107.095 96.4164 107.124 96.4501 107.16C96.5251 107.235 96.5251 107.235 96.5251 107.31L98.3251 113.627L97.5751 113.702L98.4751 106.558C98.4803 106.48 98.5136 106.407 98.5688 106.352C98.6239 106.296 98.6972 106.263 98.7751 106.258C100.42 105.72 102.17 105.591 103.875 105.882C104.743 106.048 105.579 106.352 106.35 106.784C107.096 107.245 107.735 107.86 108.225 108.589C109.291 109.955 109.942 111.599 110.1 113.326C110.206 115.047 109.924 116.769 109.275 118.365C107.936 121.464 105.752 124.123 102.975 126.035C101.64 127.036 100.143 127.799 98.5501 128.291C96.9391 128.829 95.194 128.802 93.6001 128.216C93.5251 128.216 93.5251 128.066 93.5251 127.99C93.5251 127.915 93.6751 127.915 93.7501 127.915C95.2929 128.429 96.9678 128.376 98.4751 127.765C99.9881 127.194 101.424 126.436 102.75 125.509C105.362 123.561 107.428 120.971 108.75 117.989C109.368 116.517 109.625 114.918 109.5 113.326C109.357 111.759 108.757 110.268 107.775 109.04C107.302 108.438 106.746 107.907 106.125 107.461C105.446 107.076 104.713 106.797 103.95 106.634C102.398 106.358 100.803 106.461 99.3001 106.934L99.6001 106.634L98.6251 113.778C98.6239 113.831 98.6099 113.883 98.5844 113.93C98.5588 113.976 98.5224 114.016 98.4782 114.046C98.434 114.075 98.3834 114.093 98.3306 114.099C98.2779 114.105 98.2245 114.098 98.1751 114.078C98.0972 114.073 98.024 114.04 97.9688 113.984C97.9136 113.929 97.8803 113.856 97.8751 113.778L96.1501 107.461L96.7501 107.611C94.0079 109.975 91.9595 113.042 90.8251 116.485C90.2173 118.197 89.9374 120.008 90.0001 121.824C89.9938 123.642 90.459 125.43 91.3501 127.013V127.088L90.9001 127.163Z" fill="#BBBBBB"/>
<path d="M88.65 133.254C88.8486 131.379 89.3555 129.55 90.15 127.84C90.9613 126.125 91.968 124.51 93.15 123.027C95.5366 120.13 98.2841 117.553 101.325 115.357C101.4 115.282 101.475 115.357 101.55 115.357C101.625 115.357 101.55 115.507 101.55 115.582C98.925 118.214 96.075 120.621 93.9 123.554C92.7444 124.959 91.7623 126.499 90.975 128.141C90.1587 129.786 89.4814 131.496 88.95 133.254C88.95 133.274 88.9421 133.294 88.928 133.308C88.9139 133.322 88.8949 133.33 88.875 133.33C88.65 133.33 88.575 133.33 88.65 133.254ZM83.475 133.254C83.3146 129.654 82.9641 126.064 82.425 122.501C81.8296 118.945 80.8488 115.465 79.5 112.123C78.1513 108.787 76.2775 105.69 73.95 102.949C71.6231 100.201 68.9215 97.7963 65.925 95.8049C65.9053 95.795 65.8877 95.7813 65.8733 95.7646C65.8589 95.748 65.8478 95.7286 65.8409 95.7077C65.8339 95.6867 65.8311 95.6646 65.8327 95.6426C65.8343 95.6205 65.8401 95.599 65.85 95.5793C65.8598 95.5595 65.8735 95.5419 65.8901 95.5274C65.9067 95.513 65.9261 95.5019 65.9469 95.495C65.9678 95.488 65.9899 95.4852 66.0119 95.4868C66.0338 95.4883 66.0553 95.4942 66.075 95.5041C69.2452 97.317 72.0856 99.6564 74.475 102.422C76.8512 105.212 78.7748 108.358 80.175 111.747C81.5927 115.118 82.5756 118.655 83.1 122.275C83.6239 125.885 83.7747 129.539 83.55 133.179C83.625 133.33 83.625 133.33 83.475 133.254Z" fill="#DDDDDD"/>
<path d="M85.7999 159.348C83.846 159.42 81.9073 158.979 80.1749 158.07C78.4385 157.165 76.9067 155.91 75.6749 154.385C73.2589 151.211 72.1575 147.224 72.5999 143.256V143.18L75.5249 133.104C75.5568 133.026 75.608 132.957 75.6736 132.904C75.7392 132.852 75.8171 132.817 75.8999 132.803H95.6999C95.7828 132.817 95.8607 132.852 95.9263 132.904C95.9919 132.957 96.043 133.026 96.0749 133.104L98.9999 143.18V143.256C99.4424 147.224 98.341 151.211 95.9249 154.385C94.7164 155.953 93.1805 157.236 91.4249 158.145C89.6982 159.063 87.7501 159.48 85.7999 159.348ZM85.7999 159.123C87.7142 159.104 89.5943 158.613 91.2749 157.694C92.9437 156.782 94.4008 155.527 95.5499 154.009C97.83 150.949 98.8259 147.117 98.3249 143.331V143.406L95.3249 133.404L95.6999 133.705H75.8999L76.2749 133.404L73.2749 143.406V143.331C73.0629 145.218 73.1899 147.128 73.6499 148.971C74.1089 150.793 74.9247 152.506 76.0499 154.009C77.1713 155.524 78.6035 156.781 80.2499 157.694C81.9301 158.682 83.853 159.177 85.7999 159.123Z" fill="#DDDDDD"/>
<path d="M72.8999 138.067C75.1499 137.842 77.3249 137.842 79.5749 137.767L86.2499 137.691C90.6749 137.767 95.0999 137.691 99.5249 137.992C99.5647 137.992 99.6029 138.008 99.631 138.036C99.6591 138.064 99.6749 138.103 99.6749 138.143C99.6749 138.182 99.6591 138.221 99.631 138.249C99.6029 138.277 99.5647 138.293 99.5249 138.293C95.0999 138.519 90.6749 138.519 86.2499 138.594L79.5749 138.519C77.3249 138.443 75.1499 138.443 72.8999 138.218C72.8899 138.208 72.882 138.196 72.8766 138.183C72.8712 138.17 72.8684 138.157 72.8684 138.143C72.8684 138.129 72.8712 138.115 72.8766 138.102C72.882 138.089 72.8899 138.077 72.8999 138.067Z" fill="#BBBBBB"/>
<path d="M201.3 110.996C201.075 121.975 199.35 131.976 199.125 135.285C199.111 135.613 198.97 135.922 198.732 136.147C198.494 136.372 198.177 136.495 197.85 136.488H188.4L187.125 121.674L185.4 136.488H175.8C175.632 136.489 175.466 136.457 175.311 136.393C175.156 136.329 175.015 136.235 174.896 136.116C174.778 135.997 174.684 135.856 174.62 135.7C174.556 135.545 174.524 135.378 174.525 135.21L172.725 111.823L177.3 103.852H200.1" fill="#1D35B4"/>
<path d="M200.348 96.2557C197.88 94.4145 195.592 92.3422 193.515 90.0667L192.675 89.3147V89.2395C191.941 89.1829 191.248 88.876 190.712 88.3698C190.175 87.8636 189.828 87.1887 189.728 86.4571C189.278 84.502 187.628 85.0283 186.653 85.4795C186.575 85.5189 186.488 85.5378 186.401 85.5346C186.314 85.5313 186.229 85.506 186.154 85.461C186.079 85.416 186.017 85.3527 185.973 85.277C185.929 85.2014 185.905 85.1158 185.903 85.0283C185.906 84.4365 186.108 83.8631 186.475 83.3996C186.842 82.9362 187.354 82.6094 187.928 82.4715C188.755 82.3067 189.61 82.3585 190.412 82.622C191.213 82.8855 191.933 83.3516 192.503 83.9755L190.853 81.1931L193.628 85.7803L198.428 87.886L205.403 84.502C200.303 69.6875 191.678 68.9355 191.678 68.9355L187.703 71.6427L183.653 68.9355C174.503 71.1915 171.278 82.5467 171.278 86.2315L178.103 88.1115L177.503 103.979H201.653L201.278 97.1355L200.348 96.2557ZM190.8 81.1405L191.775 83.0205L189.825 82.1933C189.45 80.9901 190.2 80.5389 190.8 81.1405Z" fill="#DDDDDD"/>
<path d="M192.75 89.1868C192.006 89.1432 191.3 88.8419 190.753 88.3344C190.206 87.827 189.851 87.1448 189.75 86.4044C189.3 84.4492 187.65 84.9756 186.675 85.4268C186.597 85.4661 186.51 85.485 186.423 85.4818C186.336 85.4786 186.251 85.4532 186.176 85.4082C186.101 85.3632 186.039 85.2999 185.995 85.2243C185.951 85.1486 185.927 85.0631 185.925 84.9756C185.929 84.3838 186.131 83.8103 186.498 83.3469C186.865 82.8834 187.376 82.5566 187.95 82.4188C188.544 82.2993 189.156 82.2993 189.75 82.4188L181.575 69.5596C179.635 70.4451 177.918 71.7556 176.55 73.3948L195.9 103.174L200.925 99.9404L196.56 93.0821C194.393 91.0593 192.75 89.1868 192.75 89.1868Z" fill="#1D35B4"/>
<path d="M182.25 52.941C181.843 54.2686 181.542 55.6265 181.35 57.0018C181.2 58.3836 181.276 59.7806 181.575 61.1378C181.83 62.4786 182.484 63.7106 183.45 64.6722C184.451 65.57 185.713 66.1233 187.05 66.2514C188.389 66.3759 189.732 66.059 190.875 65.349C192.055 64.6658 193.058 63.7124 193.8 62.5666C194.553 61.3946 195.086 60.095 195.375 58.7314C195.702 57.3901 195.65 55.984 195.225 54.6706C195.225 54.5954 195.225 54.5202 195.3 54.5202C195.375 54.5202 195.45 54.5202 195.45 54.5954C196.097 55.9248 196.307 57.4253 196.05 58.8818C195.818 60.3553 195.281 61.764 194.475 63.0178C193.66 64.2618 192.585 65.3137 191.325 66.101C190.008 66.8696 188.496 67.2355 186.975 67.1538C186.227 67.0947 185.493 66.917 184.8 66.6274C184.104 66.3168 183.469 65.8838 182.925 65.349C181.848 64.2674 181.14 62.8726 180.9 61.3634C180.601 59.9299 180.525 58.4586 180.675 57.0018C180.773 55.5287 181.182 54.0934 181.875 52.7906C181.95 52.6402 182.1 52.6402 182.25 52.7154V52.941Z" fill="#061A80"/>
<path d="M186.75 59.6338L186.825 61.3634C186.825 61.4631 186.785 61.5588 186.715 61.6293C186.645 61.6998 186.549 61.7394 186.45 61.7394C186.35 61.7394 186.255 61.6998 186.185 61.6293C186.114 61.5588 186.075 61.4631 186.075 61.3634V61.2882L186.15 59.5586C186.155 59.4806 186.189 59.4071 186.244 59.3518C186.299 59.2965 186.372 59.2631 186.45 59.2578C186.535 59.2767 186.612 59.3243 186.666 59.3927C186.721 59.4611 186.75 59.5462 186.75 59.6338Z" fill="#061A80"/>
<path d="M189 59.333V59.9346M183.9 59.333V59.9346" stroke="#061A80" stroke-linecap="round" stroke-linejoin="round"/>
<path d="M201.6 89.4883C201.024 89.3673 200.469 89.1648 199.95 88.8867L198.3 88.2099L195.075 86.8563L194.25 86.4803L193.875 86.3299C193.714 86.2475 193.563 86.1465 193.425 86.0291C193.278 85.8981 193.152 85.746 193.05 85.5779L192.825 85.2019L192.375 84.4499C191.775 83.4723 191.175 82.4195 190.575 81.4419L190.65 81.5171L190.425 81.2915C190.384 81.2866 190.343 81.2908 190.304 81.3038C190.265 81.3168 190.23 81.3383 190.2 81.3667C190.106 81.4695 190.053 81.6032 190.05 81.7427V82.2691C190.047 82.3078 190.03 82.3442 190.002 82.3717C189.975 82.3992 189.939 82.4161 189.9 82.4195C189.825 82.4195 189.825 82.4195 189.75 82.3443C189.644 82.1499 189.583 81.9345 189.57 81.7135C189.557 81.4925 189.593 81.2714 189.675 81.0659C189.748 80.9355 189.859 80.83 189.993 80.763C190.126 80.696 190.277 80.6705 190.425 80.6899C190.56 80.6892 190.693 80.7234 190.812 80.7892C190.93 80.8551 191.029 80.9504 191.1 81.0659C191.775 82.0435 192.375 83.0211 192.975 84.0739L193.425 84.8259L193.65 85.2019C193.725 85.3523 193.8 85.3523 193.875 85.4275C193.95 85.5027 194.025 85.5779 194.1 85.5779L194.475 85.7283L195.3 86.1043L198.525 87.5331L200.1 88.2851C200.654 88.5009 201.182 88.7784 201.675 89.1123C201.725 89.1594 201.759 89.2209 201.772 89.2883C201.786 89.3557 201.778 89.4256 201.75 89.4883C201.75 89.4131 201.675 89.4883 201.6 89.4883Z" fill="#061A80"/>
<path d="M192.3 84.0734C192 83.9982 191.85 83.7726 191.625 83.6222C191.412 83.4902 191.211 83.3392 191.025 83.171C190.597 82.8863 190.109 82.7061 189.6 82.6446C189.126 82.5567 188.637 82.5825 188.175 82.7198C187.725 82.8702 187.2 83.0958 186.675 83.2462C186.6 83.2462 186.525 83.2462 186.525 83.171V83.0958C186.86 82.5865 187.365 82.2133 187.95 82.043C188.52 81.8087 189.149 81.7561 189.75 81.8926C190.343 81.9923 190.907 82.2235 191.4 82.5694C191.625 82.7198 191.85 82.9454 192.075 83.0958C192.3 83.2462 192.525 83.4718 192.6 83.7726C192.601 83.8501 192.581 83.9265 192.541 83.993C192.501 84.0594 192.444 84.1134 192.375 84.1486C192.375 84.1287 192.367 84.1095 192.353 84.0954C192.339 84.0813 192.32 84.0734 192.3 84.0734Z" fill="#061A80"/>
<path d="M190.35 84.3741C190.05 84.3741 189.975 84.2237 189.825 84.1485C189.66 84.0322 189.484 83.9315 189.3 83.8477C188.964 83.7031 188.611 83.602 188.25 83.5469C187.901 83.4591 187.533 83.4855 187.2 83.6221C186.83 83.7412 186.455 83.8416 186.075 83.9229C186.036 83.9196 186 83.9026 185.973 83.8751C185.945 83.8476 185.928 83.8113 185.925 83.7725V83.6973C186.011 83.4787 186.154 83.287 186.339 83.1417C186.523 82.9964 186.743 82.9027 186.975 82.8701C187.406 82.7093 187.869 82.6576 188.325 82.7197C188.774 82.7901 189.206 82.9431 189.6 83.1709C189.803 83.2516 189.983 83.3807 190.125 83.5469C190.275 83.6973 190.5 83.7725 190.575 83.9981C190.65 84.2237 190.575 84.2989 190.35 84.3741ZM197.325 87.5325C197.025 87.4573 196.95 87.2317 196.875 87.0061L196.5 86.4797C196.275 86.1037 196.05 85.6525 195.825 85.2765C195.605 84.8703 195.429 84.4418 195.3 83.9981C195.121 83.5682 195.02 83.1099 195 82.6445C195.003 82.6058 195.02 82.5695 195.048 82.542C195.075 82.5145 195.111 82.4975 195.15 82.4941H195.225C195.566 82.8003 195.824 83.1884 195.975 83.6221L196.575 84.8253L197.175 86.0285L197.475 86.6301C197.55 86.8557 197.775 87.0061 197.7 87.2317C197.625 87.4573 197.55 87.6077 197.325 87.5325ZM173.1 86.1037C173.029 87.0176 172.879 87.9235 172.65 88.8109C172.5 89.7133 172.275 90.6157 172.125 91.5181C171.823 93.3323 171.673 95.1685 171.675 97.0077C171.689 98.8284 171.89 100.643 172.275 102.422C172.65 104.227 173.025 106.032 173.325 107.837C173.325 107.912 173.325 107.987 173.25 107.987C173.175 107.987 173.1 107.987 173.1 107.912C172.418 106.189 171.915 104.399 171.6 102.573C171.223 100.739 170.997 98.8781 170.925 97.0077C170.873 95.1383 171.049 93.2694 171.45 91.4429C171.6 90.5405 171.825 89.6381 171.975 88.7357C172.155 87.8153 172.406 86.9102 172.725 86.0285C172.8 85.8781 172.95 85.8029 173.025 85.8781C173.062 85.9489 173.087 86.025 173.1 86.1037ZM174.9 92.9469C174.912 93.2746 174.887 93.6026 174.825 93.9245C174.765 94.2487 174.638 94.5563 174.45 94.8269C174.437 94.8441 174.42 94.858 174.4 94.8676C174.381 94.8772 174.359 94.8821 174.337 94.8821C174.316 94.8821 174.294 94.8772 174.275 94.8676C174.255 94.858 174.238 94.8441 174.225 94.8269C174.14 94.6663 174.09 94.4897 174.077 94.3085C174.064 94.1272 174.089 93.9452 174.15 93.7741C174.208 93.4263 174.336 93.0938 174.525 92.7965C174.6 92.6461 174.75 92.6461 174.9 92.7213C174.825 92.7213 174.9 92.7965 174.9 92.9469Z" fill="#061A80"/>
<path d="M177.45 103.776L172.95 111.823" stroke="#3858E9" stroke-linecap="round" stroke-linejoin="round"/>
<path d="M197.1 137.39C197.213 138.213 197.213 139.048 197.1 139.872L197.025 142.353C196.95 144.008 196.95 145.662 196.8 147.316L196.575 152.28C196.537 153.942 196.386 155.6 196.125 157.243C196.125 157.318 196.05 157.393 195.975 157.318C195.9 157.243 195.9 157.243 195.9 157.168C195.763 155.517 195.738 153.859 195.825 152.204L195.975 147.241L196.2 142.278L196.35 139.796C196.351 138.964 196.426 138.133 196.575 137.315C196.575 137.164 196.725 137.089 196.875 137.164C197.025 137.24 197.1 137.315 197.1 137.39ZM189.375 137.39C189.6 138.217 189.6 139.044 189.75 139.872L189.975 142.353C190.125 144.008 190.275 145.737 190.425 147.392L190.8 152.43C190.962 154.104 191.013 155.787 190.95 157.468C190.947 157.507 190.93 157.543 190.902 157.571C190.875 157.598 190.839 157.615 190.8 157.619C190.725 157.619 190.725 157.544 190.65 157.544C190.31 155.882 190.084 154.198 189.975 152.505L189.525 147.467C189.375 145.812 189.225 144.083 189.15 142.428L188.925 139.947C188.824 139.098 188.799 138.243 188.85 137.39C188.85 137.24 189 137.164 189.15 137.164C189.3 137.164 189.375 137.315 189.375 137.39ZM201 124.681C200.707 124.768 200.405 124.818 200.1 124.832H195.6C194.991 124.868 194.381 124.791 193.8 124.606C193.725 124.606 193.725 124.531 193.725 124.456C193.725 124.446 193.727 124.436 193.731 124.427C193.735 124.418 193.74 124.409 193.747 124.402C193.754 124.395 193.762 124.39 193.771 124.386C193.78 124.382 193.79 124.38 193.8 124.38C194.381 124.195 194.991 124.118 195.6 124.155H200.1C200.408 124.093 200.728 124.147 201 124.305C201.15 124.38 201.15 124.531 201.075 124.681C201.075 124.606 201.075 124.681 201 124.681Z" fill="#061A80"/>
<path d="M200.775 127.464C200.457 127.551 200.13 127.601 199.8 127.614H197.4C197.222 127.626 197.043 127.601 196.875 127.539C196.133 127.408 195.465 127.006 195 126.411C194.776 126.125 194.622 125.79 194.55 125.433C194.475 125.086 194.475 124.727 194.55 124.381C194.55 124.305 194.625 124.23 194.7 124.305C194.775 124.381 194.775 124.305 194.775 124.381C194.917 124.648 195.042 124.925 195.15 125.208C195.3 125.433 195.375 125.734 195.6 125.885C195.775 126.099 195.992 126.277 196.236 126.406C196.481 126.535 196.749 126.613 197.025 126.637H199.8C200.133 126.575 200.476 126.628 200.775 126.787C200.925 126.862 200.925 127.013 200.85 127.163C200.775 127.313 200.85 127.389 200.775 127.464ZM178.35 121.297C178.2 121.448 178.05 121.373 177.9 121.448H177.45L176.55 121.523L175.65 121.598C175.348 121.648 175.039 121.622 174.75 121.523C174.675 121.523 174.675 121.373 174.675 121.297V121.222C174.786 121.094 174.925 120.993 175.081 120.928C175.237 120.863 175.406 120.835 175.575 120.846C175.875 120.771 176.175 120.771 176.475 120.696H177.9C177.982 120.685 178.064 120.694 178.142 120.72C178.22 120.746 178.291 120.789 178.35 120.846C178.384 120.873 178.412 120.907 178.431 120.946C178.45 120.985 178.46 121.028 178.46 121.072C178.46 121.115 178.45 121.158 178.431 121.197C178.412 121.236 178.384 121.271 178.35 121.297Z" fill="#061A80"/>
<path d="M191.4 48.5795C191.175 51.0611 193.425 64.2211 193.425 64.2211C195.9 64.0707 198.975 55.9491 196.2 50.6099C194.475 47.1507 191.4 48.5795 191.4 48.5795Z" fill="#DDDDDD"/>
<path d="M192.9 50.4593C192.9 50.4593 189.75 55.1217 188.4 55.4225C186.45 55.8737 180.225 55.2721 180.225 55.2721C180.225 55.2721 181.2 48.2785 186.525 47.6017C191.85 46.9249 192.675 50.4593 192.675 50.4593" fill="#DDDDDD"/>
<path d="M188.175 57.3027C188.25 57.1842 188.348 57.0829 188.465 57.0052C188.581 56.9274 188.712 56.8751 188.85 56.8515C189.094 56.7761 189.356 56.7761 189.6 56.8515C190.085 56.9383 190.531 57.1749 190.875 57.5283C190.912 57.5839 190.932 57.6493 190.932 57.7163C190.932 57.7832 190.912 57.8486 190.875 57.9043C190.8 57.9795 190.725 57.9795 190.575 57.9043H190.5C190.164 57.7596 189.811 57.6586 189.45 57.6035C189.126 57.5124 188.781 57.5391 188.475 57.6787H188.4C188.25 57.7539 188.1 57.6787 188.1 57.5283C188.128 57.4986 188.15 57.4629 188.163 57.4239C188.176 57.3849 188.18 57.3435 188.175 57.3027ZM184.275 57.6787C183.955 57.6101 183.627 57.5848 183.3 57.6035C182.939 57.6586 182.586 57.7596 182.25 57.9043H182.175C182.025 57.9795 181.875 57.9043 181.875 57.7539V57.4531C182.199 57.0729 182.655 56.8309 183.15 56.7763C183.394 56.7009 183.656 56.7009 183.9 56.7763C184.166 56.8537 184.401 57.0112 184.575 57.2275C184.603 57.2902 184.611 57.3601 184.597 57.4275C184.584 57.4949 184.55 57.5564 184.5 57.6035C184.5 57.7539 184.425 57.7539 184.275 57.6787ZM187.65 63.0931C187.536 63.3204 187.352 63.5049 187.125 63.6195C186.914 63.7183 186.683 63.7695 186.45 63.7695C186.217 63.7695 185.986 63.7183 185.775 63.6195C185.548 63.5049 185.364 63.3204 185.25 63.0931C185.175 62.9427 185.25 62.7923 185.4 62.7923C185.441 62.7874 185.482 62.7916 185.521 62.8046C185.56 62.8176 185.595 62.839 185.625 62.8675C185.845 63.0202 186.108 63.0991 186.375 63.0931C186.666 63.0997 186.953 63.0213 187.2 62.8675H187.275C187.338 62.8394 187.407 62.8316 187.474 62.8451C187.542 62.8585 187.603 62.8926 187.65 62.9427C187.725 62.9427 187.725 63.0179 187.65 63.0931Z" fill="#061A80"/>
<path d="M191.625 51.2109C191.625 51.2109 191.925 53.3917 189.525 55.4973" stroke="#DDDDDD" stroke-linecap="round" stroke-linejoin="round"/>
<path d="M177.975 80.3141C177.75 81.2917 177.45 82.1941 177.3 83.0965C177.163 84.0246 177.214 84.971 177.45 85.8789C177.708 86.8041 178.034 87.7089 178.425 88.5861C178.5 88.8117 178.575 89.1125 178.65 89.4133C178.725 89.7141 178.65 89.9397 178.725 90.1653V91.6693C178.65 93.6245 178.5 95.6549 178.35 97.6101C178.236 99.5765 178.011 101.535 177.675 103.476C177.675 103.551 177.6 103.626 177.525 103.551C177.45 103.476 177.45 103.476 177.45 103.4C177.388 101.419 177.438 99.4355 177.6 97.4597C177.75 95.5045 177.825 93.5493 177.9 91.5189V89.3381C177.886 89.1302 177.835 88.9266 177.75 88.7365C177.369 87.8042 177.043 86.85 176.775 85.8789C176.563 84.8643 176.537 83.8194 176.7 82.7957C176.831 81.7873 177.163 80.8156 177.675 79.9381C177.75 79.7877 177.9 79.7877 178.05 79.8629C177.9 80.0885 177.975 80.1637 177.975 80.3141Z" fill="#061A80"/>
<path d="M201.6 121.9L213.225 116.485C211.275 109.642 205.425 101.972 203.1 99.1139C202.826 98.7797 202.448 98.5465 202.027 98.4512C201.606 98.3558 201.166 98.4038 200.775 98.5875L195.3 101.445C194.91 101.639 194.6 101.962 194.422 102.36C194.244 102.758 194.21 103.205 194.325 103.626C195.3 107.16 197.925 115.959 201.6 121.9Z" fill="white"/>
<path d="M201.6 121.674L201.675 121.599C203.625 120.546 205.5 119.643 207.375 118.741L213.075 116.034L212.85 116.485C211.65 112.424 209.475 108.739 207.15 105.205C205.95 103.475 204.675 101.746 203.4 100.091L202.875 99.4897C202.765 99.3036 202.611 99.1483 202.425 99.0385C202.249 98.9237 202.05 98.8505 201.842 98.8245C201.634 98.7984 201.423 98.8202 201.225 98.8881C201.112 98.9069 201.008 98.9593 200.925 99.0385L200.55 99.1889L199.875 99.5649L198.45 100.317L195.6 101.821C195.403 101.898 195.226 102.019 195.082 102.176C194.939 102.332 194.834 102.52 194.775 102.723C194.718 102.918 194.692 103.122 194.7 103.325C194.714 103.557 194.765 103.785 194.85 104.002C195.45 106.032 196.05 108.062 196.8 110.093C197.55 112.123 198.225 114.079 199.05 116.034C199.425 117.011 199.875 117.989 200.325 118.967C200.55 119.418 200.775 119.944 201 120.395C201.169 120.835 201.369 121.263 201.6 121.674ZM201.6 122.125L201.525 122.05C201.198 121.591 200.898 121.114 200.625 120.621C200.325 120.17 200.1 119.719 199.8 119.192C199.275 118.215 198.825 117.312 198.375 116.335C197.475 114.379 196.725 112.349 195.975 110.394C195.225 108.439 194.625 106.333 194.025 104.303C193.95 104.077 193.875 103.776 193.8 103.475C193.788 103.148 193.813 102.82 193.875 102.498C193.979 102.194 194.147 101.916 194.367 101.683C194.587 101.449 194.854 101.266 195.15 101.144L198 99.6401L199.425 98.8881L200.1 98.5121L200.475 98.3617C200.612 98.2783 200.766 98.2269 200.925 98.2113C201.241 98.1287 201.571 98.1127 201.894 98.1645C202.217 98.2163 202.525 98.3346 202.8 98.5121C203.057 98.6736 203.285 98.8769 203.475 99.1137L204 99.7153C205.35 101.37 206.625 103.099 207.825 104.904C210.294 108.44 212.239 112.315 213.6 116.41C213.675 116.56 213.525 116.786 213.375 116.861L207.45 119.568C205.425 120.471 203.475 121.298 201.6 122.125Z" fill="#1D35B4"/>
<path d="M203.85 84.8251C204.499 85.9136 205.075 87.0441 205.575 88.2091C206.127 89.3545 206.603 90.5352 207 91.7435C207.507 92.9806 207.713 94.3211 207.6 95.6539C207.509 96.377 207.163 97.0436 206.625 97.5339C206.361 97.7642 206.055 97.9427 205.725 98.0603L205.275 98.2859C205.107 98.3476 204.928 98.3732 204.75 98.3611C204.055 98.3966 203.361 98.2678 202.725 97.9851C202.128 97.7298 201.551 97.428 201 97.0827C199.913 96.391 198.885 95.6113 197.925 94.7515C195.978 93.1002 194.172 91.2892 192.525 89.3371L192.825 89.4875C192.007 89.4337 191.235 89.0867 190.65 88.5099C190.092 87.953 189.702 87.2491 189.525 86.4795C189.375 85.8027 189.15 85.2011 188.55 85.0507C187.892 84.9831 187.231 85.1422 186.675 85.5019C186.6 85.5019 186.525 85.5019 186.525 85.4267V85.2763C186.822 85.0326 187.15 84.8303 187.5 84.6747C187.877 84.5098 188.294 84.4576 188.7 84.5243C189.122 84.6106 189.497 84.852 189.75 85.2011C189.949 85.5287 190.101 85.8832 190.2 86.2539C190.309 86.9076 190.657 87.4973 191.175 87.9083C191.655 88.3379 192.26 88.6015 192.9 88.6603C193.013 88.6791 193.117 88.7315 193.2 88.8107C194.849 90.7147 196.655 92.4757 198.6 94.0747C199.549 94.8921 200.552 95.6457 201.6 96.3307C202.127 96.6511 202.679 96.9278 203.25 97.1579C203.771 97.3894 204.331 97.5171 204.9 97.5339C205.166 97.5292 205.426 97.4512 205.65 97.3083C205.95 97.2331 206.1 97.0075 206.325 96.8571C206.539 96.6816 206.716 96.4646 206.845 96.2191C206.974 95.9737 207.052 95.7047 207.075 95.4283C207.154 94.2261 206.975 93.0209 206.55 91.8939C206.14 90.6905 205.664 89.5106 205.125 88.3595C204.6 87.2315 204.075 86.1035 203.625 84.9003C203.55 84.7499 203.625 84.5995 203.775 84.5995C203.625 84.6747 203.775 84.6747 203.85 84.8251ZM190.65 158.672C190.678 158.854 190.768 159.021 190.904 159.145C191.041 159.268 191.216 159.34 191.4 159.348C200.925 159.424 203.4 160.552 203.925 158.747C204.375 157.243 194.325 155.062 191.175 154.686C191.064 154.674 190.951 154.687 190.846 154.725C190.74 154.762 190.645 154.823 190.566 154.902C190.486 154.981 190.426 155.077 190.389 155.183C190.352 155.289 190.338 155.402 190.35 155.513L190.65 158.672ZM177 137.089C177.186 137.826 177.262 138.586 177.225 139.345L177.375 141.601L177.675 146.038L177.9 150.475C178.013 151.977 178.013 153.485 177.9 154.987C177.897 155.025 177.88 155.062 177.852 155.089C177.825 155.117 177.789 155.134 177.75 155.137C177.675 155.137 177.675 155.062 177.6 155.062C177.314 153.598 177.139 152.115 177.075 150.625L176.775 146.188L176.55 141.752L176.475 139.496C176.4 138.745 176.4 137.99 176.475 137.24C176.475 137.089 176.625 137.014 176.775 137.014C176.925 137.014 177 137.014 177 137.089ZM187.5 120.771C187.5 122.275 187.275 123.779 187.125 125.283L186.6 129.795C186.225 132.803 185.925 135.811 185.55 138.819L184.425 147.843C184.05 150.851 183.675 153.859 183.075 156.867C183.075 156.942 183 157.017 182.925 156.942C182.85 156.867 182.85 156.867 182.85 156.792C183 153.784 183.3 150.7 183.675 147.692L184.725 138.668L185.85 129.644L186.375 125.132C186.6 123.628 186.675 122.124 187.05 120.62C187.05 120.47 187.2 120.395 187.35 120.47C187.396 120.506 187.433 120.551 187.459 120.603C187.485 120.655 187.499 120.713 187.5 120.771Z" fill="#061A80"/>
<path d="M183.45 158.672C183.422 158.854 183.333 159.021 183.196 159.145C183.059 159.268 182.884 159.34 182.7 159.348C173.175 159.424 170.7 160.552 170.175 158.747C169.725 157.243 179.775 155.137 183 154.686C183.111 154.674 183.224 154.687 183.329 154.725C183.435 154.762 183.53 154.823 183.61 154.902C183.689 154.981 183.749 155.077 183.786 155.183C183.824 155.289 183.837 155.402 183.825 155.513L183.45 158.672ZM185.475 66.4765C185.625 66.5517 185.625 66.6269 185.625 66.7021V67.4541C185.541 67.8532 185.389 68.2349 185.175 68.5821C184.918 68.8766 184.578 69.0863 184.2 69.1837C183.89 69.2498 183.588 69.3507 183.3 69.4845C182.712 69.7033 182.136 69.9544 181.575 70.2365C181.014 70.5186 180.438 70.7696 179.85 70.9885C179.775 70.9885 179.7 70.9885 179.7 70.9133V70.7629C180.138 70.2583 180.674 69.8488 181.275 69.5597C181.86 69.253 182.461 68.9769 183.075 68.7325C183.385 68.5881 183.713 68.4869 184.05 68.4317C184.275 68.3517 184.48 68.2234 184.65 68.0557C184.822 67.9 184.929 67.6852 184.95 67.4541V66.7773C184.95 66.7021 184.95 66.6269 185.1 66.5517C185.25 66.4765 185.325 66.4013 185.475 66.4765Z" fill="#061A80"/>
<path d="M191.775 66.5523C191.925 67.3043 192 68.0563 192.075 68.8083C192.075 68.8835 192 69.0339 191.925 69.0339C191.25 69.4851 190.65 70.0115 189.975 70.4627L187.95 71.8163C187.881 71.8531 187.803 71.8724 187.725 71.8724C187.647 71.8724 187.569 71.8531 187.5 71.8163C186.825 71.3651 186.15 70.9139 185.475 70.3875C184.8 69.8611 184.2 69.4099 183.525 68.8835C183.508 68.8701 183.494 68.853 183.484 68.8334C183.475 68.8139 183.47 68.7924 183.47 68.7707C183.47 68.7489 183.475 68.7274 183.484 68.7079C183.494 68.6883 183.508 68.6712 183.525 68.6579C183.6 68.5827 183.675 68.5827 183.675 68.6579C184.4 69.014 185.101 69.4158 185.775 69.8611C186.45 70.2371 187.125 70.6883 187.8 71.1395H187.35L189.375 69.7859C190.05 69.3347 190.725 68.8835 191.4 68.5075L191.25 68.8083C191.325 68.0563 191.4 67.3043 191.55 66.5523C191.563 66.5351 191.58 66.5212 191.6 66.5116C191.619 66.502 191.641 66.4971 191.663 66.4971C191.684 66.4971 191.706 66.502 191.725 66.5116C191.745 66.5212 191.762 66.5351 191.775 66.5523Z" fill="#061A80"/>
<path d="M224.175 139.722C224.175 132.127 224.325 128.066 229.125 123.479" stroke="#DDDDDD" stroke-width="0.88" stroke-miterlimit="10"/>
<path d="M223.8 134.984L223.725 134.909L223.575 134.683C223.5 134.533 223.35 134.458 223.275 134.307C223.069 134.086 222.843 133.885 222.6 133.706C222.158 133.352 221.647 133.096 221.1 132.954C220.553 132.828 219.983 132.854 219.45 133.029C219.164 133.095 218.887 133.196 218.625 133.33C218.539 133.36 218.46 133.41 218.395 133.475C218.33 133.54 218.281 133.619 218.25 133.706C218.226 133.794 218.22 133.886 218.233 133.977C218.245 134.067 218.277 134.154 218.325 134.232C218.485 134.469 218.689 134.673 218.925 134.834C219.367 135.187 219.878 135.443 220.425 135.586C220.99 135.736 221.585 135.736 222.15 135.586C222.45 135.51 222.75 135.435 222.975 135.36C223.11 135.302 223.236 135.226 223.35 135.134L223.575 134.984H223.8ZM224.025 135.21L223.875 135.36L223.65 135.51C223.5 135.586 223.35 135.736 223.2 135.811L222.3 136.262C221.652 136.498 220.951 136.55 220.275 136.413C219.573 136.281 218.908 135.999 218.325 135.586C218.039 135.374 217.786 135.12 217.575 134.834C217.433 134.657 217.338 134.447 217.299 134.223C217.259 134 217.277 133.77 217.35 133.555C217.398 133.337 217.498 133.134 217.642 132.964C217.785 132.793 217.969 132.661 218.175 132.578C218.487 132.42 218.813 132.294 219.15 132.202C219.842 132.051 220.558 132.051 221.25 132.202C221.952 132.383 222.58 132.777 223.05 133.33C223.291 133.573 223.494 133.852 223.65 134.157L223.875 134.608L223.95 134.834V135.134L224.025 135.21Z" fill="#BBBBBB"/>
<path d="M230.025 136.112C230.221 135.881 230.328 135.588 230.325 135.285C230.322 135.145 230.269 135.011 230.175 134.909L229.875 134.608C229.349 134.206 228.729 133.947 228.075 133.856C227.427 133.798 226.776 133.928 226.2 134.232C225.629 134.501 225.118 134.885 224.7 135.36V134.833C224.964 135.237 225.293 135.593 225.675 135.886C226.062 136.205 226.529 136.413 227.025 136.488C228.039 136.695 229.093 136.563 230.025 136.112ZM230.175 136.337C229.72 136.717 229.193 137 228.626 137.168C228.058 137.336 227.462 137.386 226.875 137.315C226.253 137.238 225.659 137.005 225.15 136.638C224.653 136.291 224.222 135.858 223.875 135.36C223.838 135.277 223.818 135.187 223.818 135.097C223.818 135.006 223.838 134.916 223.875 134.833C224.363 134.174 225.014 133.654 225.763 133.324C226.513 132.994 227.336 132.867 228.15 132.953C228.939 133.086 229.671 133.453 230.25 134.006C230.416 134.149 230.544 134.329 230.625 134.533C230.71 134.749 230.761 134.977 230.775 135.209C230.716 135.645 230.503 136.046 230.175 136.337ZM230.925 131.6C231.152 131.383 231.287 131.087 231.3 130.773C231.297 130.633 231.244 130.499 231.15 130.397C231.075 130.321 231 130.171 230.85 130.096C230.352 129.665 229.762 129.357 229.125 129.193C228.491 129.119 227.848 129.197 227.25 129.419C226.633 129.652 226.071 130.01 225.6 130.472L225.675 129.945C225.909 130.37 226.213 130.752 226.575 131.073C226.954 131.395 227.386 131.649 227.85 131.825C228.875 132.048 229.943 131.97 230.925 131.6ZM231 131.825C230.519 132.175 229.968 132.416 229.386 132.533C228.804 132.65 228.203 132.639 227.625 132.502C227.016 132.366 226.449 132.082 225.975 131.675C225.499 131.298 225.093 130.84 224.775 130.321C224.732 130.237 224.717 130.141 224.73 130.047C224.744 129.952 224.785 129.865 224.85 129.795C225.412 129.194 226.105 128.73 226.875 128.441C227.645 128.165 228.477 128.113 229.275 128.291C230.075 128.475 230.788 128.926 231.3 129.569C231.466 129.712 231.594 129.892 231.675 130.096C231.737 130.316 231.762 130.544 231.75 130.773C231.708 130.992 231.619 131.199 231.489 131.381C231.36 131.563 231.193 131.714 231 131.825ZM233.025 127.765C233.172 127.698 233.298 127.593 233.39 127.461C233.482 127.328 233.537 127.174 233.55 127.013V126.637C233.475 126.486 233.4 126.411 233.325 126.261C232.944 125.739 232.459 125.304 231.9 124.982C231.297 124.773 230.663 124.671 230.025 124.681C229.393 124.768 228.782 124.972 228.225 125.283L228.375 124.757C228.498 125.215 228.701 125.648 228.975 126.035C229.268 126.418 229.623 126.748 230.025 127.013C230.921 127.566 231.995 127.755 233.025 127.539V127.765ZM233.1 127.99C231.974 128.391 230.737 128.337 229.65 127.84C229.113 127.55 228.631 127.168 228.225 126.712C227.833 126.227 227.552 125.663 227.4 125.057C227.366 124.977 227.363 124.887 227.39 124.804C227.418 124.721 227.475 124.651 227.55 124.606C228.218 124.145 228.992 123.86 229.8 123.779C230.626 123.702 231.458 123.858 232.2 124.23C232.943 124.585 233.53 125.2 233.85 125.96C233.969 126.141 234.046 126.346 234.075 126.561C234.087 126.79 234.062 127.018 234 127.238C233.914 127.436 233.779 127.608 233.609 127.74C233.438 127.871 233.238 127.958 233.025 127.99H233.1Z" fill="#BBBBBB"/>
<path d="M225 129.72L224.925 129.495C224.85 129.344 224.85 129.194 224.775 129.044C224.682 128.755 224.556 128.477 224.4 128.216C224.121 127.71 223.705 127.293 223.2 127.013C222.719 126.727 222.182 126.547 221.625 126.487H220.8C220.714 126.492 220.629 126.514 220.552 126.553C220.475 126.592 220.406 126.646 220.35 126.712C220.299 126.789 220.266 126.876 220.253 126.967C220.24 127.058 220.248 127.151 220.275 127.239C220.35 127.464 220.5 127.765 220.575 127.991C220.855 128.497 221.27 128.914 221.775 129.194C222.279 129.504 222.84 129.709 223.425 129.796C223.721 129.858 224.023 129.883 224.325 129.871C224.479 129.883 224.633 129.857 224.775 129.796L225 129.72ZM225.15 130.096L224.925 130.172L224.7 130.247C224.55 130.322 224.4 130.322 224.25 130.397C223.904 130.462 223.552 130.488 223.2 130.472C222.496 130.44 221.806 130.26 221.175 129.946C220.242 129.423 219.545 128.562 219.225 127.54C219.149 127.325 219.13 127.095 219.169 126.871C219.209 126.647 219.306 126.437 219.45 126.261C219.725 125.9 220.128 125.658 220.575 125.584H221.625C222.334 125.641 223.011 125.902 223.575 126.336C224.178 126.724 224.628 127.308 224.85 127.991C224.984 128.305 225.085 128.633 225.15 128.968V130.096ZM227.7 124.757V124.456C227.7 124.306 227.625 124.156 227.625 124.005C227.571 123.715 227.47 123.435 227.325 123.178C227.114 122.654 226.78 122.19 226.35 121.824C225.908 121.471 225.397 121.215 224.85 121.072C224.7 121.072 224.55 120.997 224.4 120.997H224.025C223.826 120.997 223.635 121.076 223.495 121.217C223.354 121.358 223.275 121.55 223.275 121.749C223.3 122.012 223.376 122.268 223.5 122.501C223.711 123.025 224.045 123.49 224.475 123.855C224.914 124.23 225.424 124.512 225.975 124.682C226.268 124.769 226.57 124.819 226.875 124.832H227.55L227.7 124.757ZM227.775 125.058L227.55 125.133L227.325 125.208C227.175 125.208 227.025 125.284 226.8 125.284C226.473 125.296 226.146 125.271 225.825 125.208C225.132 125.124 224.48 124.836 223.95 124.381C223.348 123.994 222.897 123.409 222.675 122.727C222.478 122.384 222.375 121.995 222.375 121.599C222.363 121.154 222.524 120.723 222.825 120.396C223.123 120.088 223.523 119.901 223.95 119.869H224.475C224.625 119.869 224.85 119.944 225 119.944C225.676 120.145 226.293 120.506 226.8 120.997C227.33 121.473 227.698 122.105 227.85 122.802C227.912 123.124 227.937 123.452 227.925 123.78C227.931 123.958 227.906 124.136 227.85 124.306L227.775 124.532V125.058Z" fill="#BBBBBB"/>
<path d="M224.1 139.722C223.888 138.252 223.788 136.769 223.8 135.285C223.797 133.794 223.948 132.307 224.25 130.848C224.589 129.358 225.172 127.935 225.975 126.637C226.793 125.381 227.806 124.264 228.975 123.328C229.005 123.298 229.045 123.281 229.088 123.281C229.13 123.281 229.17 123.298 229.2 123.328C229.23 123.358 229.247 123.398 229.247 123.441C229.247 123.483 229.23 123.524 229.2 123.554C228.237 124.619 227.383 125.777 226.65 127.013C225.92 128.242 225.412 129.592 225.15 130.998C224.865 132.411 224.689 133.844 224.625 135.285C224.575 136.744 224.449 138.2 224.25 139.646C224.25 139.797 224.175 139.872 224.1 139.722Z" fill="#BBBBBB"/>
<path d="M222.525 139.646L230.175 139.421C230.253 139.426 230.326 139.46 230.381 139.515C230.436 139.57 230.47 139.644 230.475 139.722V139.872C229.8 141.376 229.05 142.88 228.3 144.309V143.933C229.118 145.42 229.724 147.015 230.1 148.67C230.55 150.309 230.702 152.016 230.55 153.709C230.37 155.474 229.541 157.11 228.225 158.296C226.798 159.363 225.055 159.919 223.275 159.875V158.898H223.425C223.484 158.898 223.543 158.909 223.597 158.932C223.652 158.955 223.701 158.988 223.743 159.03C223.785 159.072 223.818 159.121 223.841 159.176C223.863 159.231 223.875 159.29 223.875 159.349C223.875 159.408 223.863 159.467 223.841 159.522C223.818 159.576 223.785 159.626 223.743 159.668C223.701 159.71 223.652 159.743 223.597 159.766C223.543 159.788 223.484 159.8 223.425 159.8C221.645 159.844 219.902 159.288 218.475 158.221C217.797 157.655 217.241 156.956 216.841 156.167C216.442 155.379 216.206 154.517 216.15 153.634C215.994 151.941 216.147 150.234 216.6 148.595C217.042 146.96 217.645 145.373 218.4 143.858V144.234L216.225 139.797C216.191 139.716 216.188 139.626 216.215 139.543C216.243 139.46 216.3 139.39 216.375 139.346H216.525L224.175 139.496V139.872H222.525V139.646ZM222.525 139.571H224.175C224.233 139.575 224.289 139.6 224.33 139.641C224.372 139.683 224.396 139.738 224.4 139.797C224.404 139.827 224.4 139.858 224.39 139.887C224.38 139.916 224.364 139.943 224.342 139.964C224.32 139.986 224.294 140.003 224.265 140.013C224.236 140.023 224.205 140.026 224.175 140.022L216.525 140.173L216.825 139.722L219.15 144.083C219.187 144.139 219.207 144.204 219.207 144.271C219.207 144.338 219.187 144.404 219.15 144.459C218.412 145.914 217.858 147.455 217.5 149.046C217.081 150.588 216.953 152.195 217.125 153.784C217.179 154.551 217.386 155.299 217.734 155.983C218.081 156.668 218.563 157.275 219.15 157.77C220.403 158.706 221.938 159.184 223.5 159.123V160.101H223.35C223.29 160.103 223.231 160.093 223.175 160.071C223.12 160.049 223.069 160.016 223.027 159.973C222.985 159.931 222.952 159.881 222.93 159.825C222.908 159.769 222.898 159.71 222.9 159.65C222.909 159.533 222.959 159.423 223.041 159.34C223.124 159.258 223.233 159.207 223.35 159.198C224.912 159.26 226.447 158.782 227.7 157.845C228.287 157.351 228.768 156.743 229.116 156.058C229.464 155.374 229.671 154.626 229.725 153.859C229.899 152.271 229.772 150.663 229.35 149.122C228.946 147.544 228.393 146.008 227.7 144.534C227.663 144.479 227.643 144.413 227.643 144.346C227.643 144.28 227.663 144.214 227.7 144.158C228.45 142.73 229.2 141.226 230.025 139.797L230.325 140.248L222.675 140.022V139.571H222.525Z" fill="#DDDDDD"/>
</svg>
