<svg width="248" height="46" viewBox="0 0 248 46" fill="none" xmlns="http://www.w3.org/2000/svg">
<title>Bugomattic</title>
<path d="M7.152 32.216H15.456C17.248 32.216 18.8 32.136 20.112 31.976C21.456 31.816 22.56 31.496 23.424 31.016C24.288 30.504 24.928 29.8 25.344 28.904C25.792 27.976 26.016 26.76 26.016 25.256C26.016 23.816 25.776 22.664 25.296 21.8C24.816 20.904 24.128 20.216 23.232 19.736C22.336 19.256 21.264 18.936 20.016 18.776C18.768 18.584 17.376 18.488 15.84 18.488H7.152V32.216ZM7.152 15.704H15.408C17.104 15.704 18.528 15.56 19.68 15.272C20.832 14.984 21.76 14.568 22.464 14.024C23.168 13.448 23.664 12.76 23.952 11.96C24.272 11.128 24.432 10.184 24.432 9.128C24.432 8.04 24.256 7.128 23.904 6.392C23.552 5.624 22.992 5.016 22.224 4.568C21.456 4.088 20.448 3.752 19.2 3.56C17.984 3.336 16.48 3.224 14.688 3.224H7.152V15.704ZM3.888 35V0.439999H16.368C18.384 0.439999 20.112 0.647999 21.552 1.064C22.992 1.48 24.16 2.072 25.056 2.84C25.984 3.608 26.656 4.536 27.072 5.624C27.488 6.68 27.696 7.848 27.696 9.128C27.696 10.344 27.536 11.4 27.216 12.296C26.896 13.16 26.48 13.896 25.968 14.504C25.456 15.08 24.864 15.544 24.192 15.896C23.552 16.216 22.88 16.44 22.176 16.568V16.664C24.576 17.016 26.352 17.96 27.504 19.496C28.688 21.032 29.28 22.952 29.28 25.256C29.28 27.048 28.992 28.568 28.416 29.816C27.872 31.064 27.104 32.072 26.112 32.84C25.12 33.608 23.92 34.168 22.512 34.52C21.136 34.84 19.632 35 18 35H3.888ZM52.3196 10.136H55.1996V35H52.3196V31.544C51.9356 31.992 51.5036 32.456 51.0236 32.936C50.5436 33.416 49.9836 33.864 49.3436 34.28C48.7356 34.664 48.0156 34.984 47.1836 35.24C46.3516 35.528 45.3916 35.672 44.3036 35.672C42.6396 35.672 41.2476 35.448 40.1276 35C39.0076 34.52 38.0956 33.864 37.3916 33.032C36.7196 32.2 36.2236 31.24 35.9036 30.152C35.6156 29.032 35.4716 27.816 35.4716 26.504V10.136H38.3516V26.456C38.3516 28.6 38.8476 30.248 39.8396 31.4C40.8316 32.52 42.4636 33.08 44.7356 33.08C45.9196 33.08 46.9756 32.856 47.9036 32.408C48.8636 31.928 49.6636 31.272 50.3036 30.44C50.9436 29.608 51.4396 28.616 51.7916 27.464C52.1436 26.312 52.3196 25.048 52.3196 23.672V10.136ZM81.3435 22.664C81.3435 21.16 81.1515 19.768 80.7675 18.488C80.4155 17.176 79.8875 16.056 79.1835 15.128C78.4795 14.168 77.5995 13.416 76.5435 12.872C75.4875 12.328 74.2875 12.056 72.9435 12.056C71.7275 12.056 70.6075 12.28 69.5835 12.728C68.5595 13.144 67.6635 13.768 66.8955 14.6C66.1275 15.432 65.5195 16.456 65.0715 17.672C64.6555 18.856 64.4475 20.232 64.4475 21.8C64.3835 23.368 64.5115 24.84 64.8315 26.216C65.1515 27.56 65.6635 28.744 66.3675 29.768C67.0715 30.792 67.9675 31.608 69.0555 32.216C70.1435 32.792 71.4395 33.08 72.9435 33.08C74.2555 33.08 75.4235 32.808 76.4475 32.264C77.5035 31.688 78.3835 30.936 79.0875 30.008C79.8235 29.048 80.3835 27.944 80.7675 26.696C81.1515 25.416 81.3435 24.072 81.3435 22.664ZM81.3435 10.136H84.2235V32.6C84.2235 34.264 84.0475 35.848 83.6955 37.352C83.3755 38.888 82.7835 40.232 81.9195 41.384C81.0555 42.536 79.8715 43.448 78.3675 44.12C76.8635 44.824 74.9275 45.176 72.5595 45.176C70.7355 45.176 69.1675 44.936 67.8555 44.456C66.5435 44.008 65.4715 43.432 64.6395 42.728C63.8075 42.024 63.1675 41.24 62.7195 40.376C62.3035 39.544 62.0795 38.76 62.0475 38.024H65.1195C65.3435 38.952 65.6955 39.704 66.1755 40.28C66.6555 40.888 67.2155 41.352 67.8555 41.672C68.5275 42.024 69.2635 42.264 70.0635 42.392C70.8635 42.52 71.6955 42.584 72.5595 42.584C74.5115 42.584 76.0795 42.248 77.2635 41.576C78.4475 40.904 79.3435 40.024 79.9515 38.936C80.5595 37.848 80.9435 36.616 81.1035 35.24C81.2955 33.864 81.3755 32.456 81.3435 31.016C80.4155 32.552 79.1355 33.72 77.5035 34.52C75.9035 35.288 74.2235 35.672 72.4635 35.672C70.5755 35.672 68.9275 35.32 67.5195 34.616C66.1435 33.88 64.9915 32.92 64.0635 31.736C63.1675 30.52 62.4955 29.112 62.0475 27.512C61.5995 25.912 61.3755 24.248 61.3755 22.52C61.3755 20.696 61.5835 18.984 61.9995 17.384C62.4155 15.784 63.0715 14.408 63.9675 13.256C64.8955 12.072 66.0635 11.144 67.4715 10.472C68.8795 9.8 70.5915 9.464 72.6075 9.464C73.4075 9.464 74.2235 9.576 75.0555 9.8C75.8875 10.024 76.6875 10.344 77.4555 10.76C78.2555 11.176 78.9755 11.704 79.6155 12.344C80.2875 12.984 80.8315 13.704 81.2475 14.504H81.3435V10.136ZM102.489 35.672C100.889 35.64 99.3845 35.352 97.9765 34.808C96.6005 34.264 95.3845 33.448 94.3285 32.36C93.3045 31.272 92.4885 29.912 91.8805 28.28C91.2725 26.648 90.9685 24.744 90.9685 22.568C90.9685 20.744 91.2085 19.048 91.6885 17.48C92.1685 15.88 92.8885 14.488 93.8485 13.304C94.8085 12.12 96.0085 11.192 97.4485 10.52C98.8885 9.816 100.569 9.464 102.489 9.464C104.441 9.464 106.137 9.816 107.577 10.52C109.017 11.192 110.217 12.12 111.177 13.304C112.137 14.456 112.841 15.832 113.289 17.432C113.769 19.032 114.009 20.744 114.009 22.568C114.009 24.552 113.737 26.344 113.193 27.944C112.649 29.544 111.865 30.92 110.841 32.072C109.849 33.224 108.633 34.12 107.193 34.76C105.785 35.368 104.217 35.672 102.489 35.672ZM110.937 22.568C110.937 21.096 110.777 19.72 110.457 18.44C110.137 17.16 109.641 16.056 108.969 15.128C108.297 14.168 107.433 13.416 106.377 12.872C105.321 12.328 104.025 12.056 102.489 12.056C100.985 12.056 99.6885 12.36 98.6005 12.968C97.5445 13.544 96.6805 14.328 96.0085 15.32C95.3365 16.28 94.8405 17.4 94.5205 18.68C94.2005 19.928 94.0405 21.224 94.0405 22.568C94.0405 24.104 94.2165 25.528 94.5685 26.84C94.9525 28.12 95.4965 29.224 96.2005 30.152C96.9045 31.08 97.7845 31.8 98.8405 32.312C99.8965 32.824 101.113 33.08 102.489 33.08C103.993 33.08 105.273 32.792 106.329 32.216C107.417 31.608 108.297 30.808 108.969 29.816C109.641 28.824 110.137 27.704 110.457 26.456C110.777 25.208 110.937 23.912 110.937 22.568ZM123.717 35H120.837V10.136H123.717V13.88H123.813C124.549 12.44 125.605 11.352 126.981 10.616C128.357 9.848 129.861 9.464 131.493 9.464C132.645 9.464 133.621 9.592 134.421 9.848C135.221 10.104 135.893 10.456 136.437 10.904C137.013 11.32 137.477 11.816 137.829 12.392C138.213 12.968 138.533 13.592 138.789 14.264C139.621 12.632 140.725 11.432 142.101 10.664C143.509 9.864 145.109 9.464 146.901 9.464C148.597 9.464 149.941 9.752 150.933 10.328C151.957 10.872 152.741 11.608 153.285 12.536C153.829 13.432 154.181 14.472 154.341 15.656C154.533 16.84 154.629 18.056 154.629 19.304V35H151.749V17.816C151.749 16.024 151.365 14.616 150.597 13.592C149.861 12.568 148.469 12.056 146.421 12.056C145.365 12.056 144.341 12.296 143.349 12.776C142.389 13.224 141.541 13.928 140.805 14.888C140.485 15.304 140.213 15.8 139.989 16.376C139.797 16.92 139.637 17.496 139.509 18.104C139.381 18.712 139.285 19.32 139.221 19.928C139.189 20.536 139.173 21.096 139.173 21.608V35H136.293V17.816C136.293 16.024 135.909 14.616 135.141 13.592C134.405 12.568 133.013 12.056 130.965 12.056C129.909 12.056 128.885 12.296 127.893 12.776C126.933 13.224 126.085 13.928 125.349 14.888C125.029 15.304 124.757 15.8 124.533 16.376C124.341 16.92 124.181 17.496 124.053 18.104C123.925 18.712 123.829 19.32 123.765 19.928C123.733 20.536 123.717 21.096 123.717 21.608V35ZM177.477 21.944C176.261 22.456 175.029 22.792 173.781 22.952C172.533 23.112 171.285 23.24 170.037 23.336C167.829 23.496 166.101 23.992 164.853 24.824C163.637 25.656 163.029 26.92 163.029 28.616C163.029 29.384 163.173 30.056 163.461 30.632C163.781 31.176 164.181 31.64 164.661 32.024C165.173 32.376 165.749 32.648 166.389 32.84C167.061 33 167.733 33.08 168.405 33.08C169.557 33.08 170.677 32.936 171.765 32.648C172.853 32.36 173.813 31.928 174.645 31.352C175.509 30.744 176.197 29.992 176.709 29.096C177.221 28.168 177.477 27.08 177.477 25.832V21.944ZM172.629 20.504C173.173 20.44 173.813 20.344 174.549 20.216C175.317 20.088 175.941 19.912 176.421 19.688C176.901 19.464 177.189 19.096 177.285 18.584C177.413 18.04 177.477 17.544 177.477 17.096C177.477 15.624 176.997 14.424 176.037 13.496C175.109 12.536 173.525 12.056 171.285 12.056C170.293 12.056 169.381 12.152 168.549 12.344C167.717 12.504 166.981 12.808 166.341 13.256C165.733 13.672 165.221 14.248 164.805 14.984C164.421 15.688 164.165 16.584 164.037 17.672H161.109C161.205 16.2 161.541 14.952 162.117 13.928C162.693 12.872 163.429 12.024 164.325 11.384C165.253 10.712 166.309 10.232 167.493 9.944C168.709 9.624 169.989 9.464 171.333 9.464C172.581 9.464 173.749 9.608 174.837 9.896C175.957 10.152 176.917 10.584 177.717 11.192C178.549 11.768 179.189 12.552 179.637 13.544C180.117 14.536 180.357 15.752 180.357 17.192V30.728C180.357 31.848 180.549 32.568 180.933 32.888C181.349 33.176 182.165 33.096 183.381 32.648V34.904C183.157 34.968 182.821 35.064 182.373 35.192C181.957 35.32 181.541 35.384 181.125 35.384C180.677 35.384 180.245 35.336 179.829 35.24C179.349 35.176 178.965 35.032 178.677 34.808C178.389 34.552 178.149 34.264 177.957 33.944C177.797 33.592 177.685 33.224 177.621 32.84C177.557 32.424 177.525 31.992 177.525 31.544C176.309 32.888 174.917 33.912 173.349 34.616C171.781 35.32 170.085 35.672 168.261 35.672C167.173 35.672 166.117 35.528 165.093 35.24C164.101 34.952 163.221 34.504 162.453 33.896C161.685 33.288 161.077 32.552 160.629 31.688C160.181 30.792 159.957 29.736 159.957 28.52C159.957 24.296 162.853 21.8 168.645 21.032L172.629 20.504ZM196.613 35.096C196.261 35.16 195.797 35.272 195.221 35.432C194.645 35.592 194.005 35.672 193.301 35.672C191.861 35.672 190.757 35.32 189.989 34.616C189.253 33.88 188.885 32.584 188.885 30.728V12.536H185.381V10.136H188.885V3.224H191.765V10.136H196.421V12.536H191.765V29.576C191.765 30.184 191.781 30.712 191.813 31.16C191.845 31.608 191.941 31.976 192.101 32.264C192.261 32.552 192.501 32.76 192.821 32.888C193.173 33.016 193.653 33.08 194.261 33.08C194.645 33.08 195.029 33.048 195.413 32.984C195.829 32.92 196.229 32.84 196.613 32.744V35.096ZM209.972 35.096C209.62 35.16 209.156 35.272 208.58 35.432C208.004 35.592 207.364 35.672 206.66 35.672C205.22 35.672 204.116 35.32 203.348 34.616C202.612 33.88 202.244 32.584 202.244 30.728V12.536H198.74V10.136H202.244V3.224H205.124V10.136H209.78V12.536H205.124V29.576C205.124 30.184 205.14 30.712 205.172 31.16C205.204 31.608 205.3 31.976 205.46 32.264C205.62 32.552 205.86 32.76 206.18 32.888C206.532 33.016 207.012 33.08 207.62 33.08C208.004 33.08 208.388 33.048 208.772 32.984C209.188 32.92 209.588 32.84 209.972 32.744V35.096ZM214.184 35V10.136H217.064V35H214.184ZM214.04 4.712V0.439999H217.208V4.712H214.04ZM242.009 17.96C241.497 16.104 240.617 14.664 239.369 13.64C238.121 12.584 236.537 12.056 234.617 12.056C233.145 12.056 231.881 12.36 230.825 12.968C229.769 13.576 228.905 14.392 228.233 15.416C227.561 16.408 227.065 17.544 226.745 18.824C226.425 20.072 226.265 21.336 226.265 22.616C226.265 23.928 226.409 25.208 226.697 26.456C227.017 27.704 227.513 28.824 228.185 29.816C228.857 30.808 229.721 31.608 230.777 32.216C231.833 32.792 233.113 33.08 234.617 33.08C236.761 33.08 238.473 32.488 239.753 31.304C241.065 30.12 241.897 28.488 242.249 26.408H245.321C245.065 27.784 244.649 29.048 244.073 30.2C243.529 31.32 242.809 32.296 241.913 33.128C241.049 33.928 240.009 34.552 238.793 35C237.577 35.448 236.185 35.672 234.617 35.672C232.633 35.672 230.921 35.336 229.481 34.664C228.041 33.992 226.857 33.08 225.929 31.928C225.001 30.744 224.313 29.352 223.865 27.752C223.417 26.152 223.193 24.44 223.193 22.616C223.193 20.888 223.433 19.24 223.913 17.672C224.425 16.072 225.161 14.664 226.121 13.448C227.081 12.232 228.265 11.272 229.673 10.568C231.113 9.832 232.761 9.464 234.617 9.464C237.497 9.464 239.817 10.152 241.577 11.528C243.369 12.904 244.489 15.048 244.937 17.96H242.009Z" fill="#1E1E1E"/>
<path fill-rule="evenodd" clip-rule="evenodd" d="M88 21H93V18H88V21Z" fill="#1E1E1E"/>
<path fill-rule="evenodd" clip-rule="evenodd" d="M112 21H117V18H112V21Z" fill="#1E1E1E"/>
<path fill-rule="evenodd" clip-rule="evenodd" d="M88 28H93V25H88V28Z" fill="#1E1E1E"/>
<path fill-rule="evenodd" clip-rule="evenodd" d="M112 28H117V25H112V28Z" fill="#1E1E1E"/>
<path fill-rule="evenodd" clip-rule="evenodd" d="M95.4237 14.284L90.3052 9.16551L92.4707 7L97.5892 12.1185L95.4237 14.284Z" fill="#1E1E1E"/>
<path fill-rule="evenodd" clip-rule="evenodd" d="M108.54 14.284L113.659 9.16551L111.493 7L106.375 12.1185L108.54 14.284Z" fill="#1E1E1E"/>
</svg>
