<svg width="49" height="49" viewBox="0 0 49 49" fill="none" xmlns="http://www.w3.org/2000/svg">
<rect x="6.71387" y="6.71411" width="33.8962" height="33.8962" rx="5" fill="white"/>
<rect x="6.71387" y="6.71411" width="33.8962" height="33.8962" rx="5" fill="url(#paint0_linear_240_5172)" fill-opacity="0.2"/>
<rect x="6.71387" y="6.71411" width="33.8962" height="33.8962" rx="5" stroke="#0675C4" stroke-width="2"/>
<path fill-rule="evenodd" clip-rule="evenodd" d="M11.9902 20.3826L15.9053 21.4316C15.716 22.7854 15.897 24.1998 16.4912 25.5141L13.8823 27.0203L14.9982 28.9531L17.5753 27.4652L18.6912 29.3981L16.1141 30.886L17.2301 32.8188L19.936 31.2565C22.2308 33.8526 26.1087 34.5649 29.2257 32.7654C32.3426 30.9658 33.6646 27.2513 32.5637 23.9659L35.2697 22.4036L34.1538 20.4708L31.5767 21.9586L30.4608 20.0258L33.0379 18.5379L31.922 16.6051L29.3131 18.1114C28.4062 16.8479 27.1583 15.9424 25.7708 15.4489L26.7289 11.8732L24.5731 11.2956L23.5744 15.0227C22.2136 14.9664 20.8212 15.2829 19.5544 16.0143C18.1866 16.8039 17.1645 17.9623 16.5411 19.2914L12.5678 18.2268L11.9902 20.3826ZM18.7642 25.0608L20.996 28.9264C22.4341 31.4172 25.619 32.2706 28.1097 30.8325C30.6005 29.3945 31.4539 26.2096 30.0159 23.7188L27.784 19.8532C26.346 17.3624 23.1611 16.509 20.6703 17.9471C18.1796 19.3851 17.3262 22.57 18.7642 25.0608Z" fill="#0675C4"/>
<defs>
<linearGradient id="paint0_linear_240_5172" x1="23.6619" y1="5.71411" x2="23.6619" y2="41.6103" gradientUnits="userSpaceOnUse">
<stop stop-color="#365DE7" stop-opacity="0.25"/>
<stop offset="1" stop-color="#365DE7" stop-opacity="0.09"/>
</linearGradient>
</defs>
</svg>
