<svg width="24" height="24" viewBox="0 0 24 24" fill="none" xmlns="http://www.w3.org/2000/svg">
<path fill-rule="evenodd" clip-rule="evenodd" d="M6.12928 6.06066L8.05556 7.98694C7.49044 8.71128 7.12047 9.59531 7.02469 10.56H5V12.06H7V13.56H5V15.06H7.10002C7.56329 17.3422 9.58104 19.06 12 19.06C14.419 19.06 16.4367 17.3422 16.9 15.06H19V13.56H17V12.06H19V10.56H16.9753C16.872 9.51983 16.45 8.57344 15.8083 7.8199L17.5675 6.06066L16.5068 5L14.6731 6.83376C13.8999 6.34372 12.9831 6.06 12 6.06C10.9385 6.06 9.95431 6.39077 9.1448 6.95485L7.18994 5L6.12928 6.06066ZM8.5 11.06V14.06C8.5 15.993 10.067 17.56 12 17.56C13.933 17.56 15.5 15.993 15.5 14.06V11.06C15.5 9.127 13.933 7.56 12 7.56C10.067 7.56 8.5 9.127 8.5 11.06Z" fill="#1E1E1E"/>
</svg>
