<svg width="24" height="24" viewBox="0 0 24 24" fill="none" xmlns="http://www.w3.org/2000/svg">
<line x1="10" y1="18.25" x2="20" y2="18.25" stroke="#1E1E1E" stroke-width="1.5"/>
<line x1="15" y1="14.25" x2="20" y2="14.25" stroke="#1E1E1E" stroke-width="1.5"/>
<line x1="14" y1="6.25" x2="20" y2="6.25" stroke="#1E1E1E" stroke-width="1.5"/>
<line x1="16" y1="10.25" x2="20" y2="10.25" stroke="#1E1E1E" stroke-width="1.5"/>
<path fill-rule="evenodd" clip-rule="evenodd" d="M14 11.1293C14 13.4098 12.1513 15.2586 9.87071 15.2586C8.91648 15.2586 8.03786 14.9349 7.33862 14.3914L4.72996 17L4 16.27L6.60866 13.6614C6.0651 12.9622 5.74141 12.0835 5.74141 11.1293C5.74141 8.84874 7.59016 7 9.87071 7C12.1513 7 14 8.84874 14 11.1293ZM12.9677 11.1293C12.9677 12.8397 11.5811 14.2262 9.87071 14.2262C8.1603 14.2262 6.77374 12.8397 6.77374 11.1293C6.77374 9.41887 8.1603 8.03232 9.87071 8.03232C11.5811 8.03232 12.9677 9.41887 12.9677 11.1293Z" fill="#1E1E1E" stroke="#1E1E1E" stroke-width="0.3"/>
</svg>
