<svg width="24" height="24" viewBox="0 0 24 24" fill="none" xmlns="http://www.w3.org/2000/svg">
<path fill-rule="evenodd" clip-rule="evenodd" d="M5 13.25L6.86289 13.6441C6.64549 15.4162 7.72319 17.1424 9.48975 17.6825L9.92831 16.2481C8.91214 15.9374 8.27586 14.9726 8.33998 13.9565L12.6962 14.878C12.2859 15.9885 11.0747 16.5986 9.92831 16.2481L9.48975 17.6825C11.4703 18.2881 13.5668 17.1734 14.1724 15.1928L14.1461 15.1848L18 16H20V6.5H18L5 9.25H4.5C4.22386 9.25 4 9.47386 4 9.75V12.75C4 13.0261 4.22386 13.25 4.5 13.25H5ZM18.1569 8L5.5 10.6774V11.8226L18.1569 14.5H18.5V8H18.1569Z" fill="#1E1E1E"/>
</svg>
