<svg width="300" height="188" viewBox="0 0 300 188" fill="none" xmlns="http://www.w3.org/2000/svg">
<path d="M24.1568 159.02C45.0081 158.475 65.9379 158.384 86.7892 158.293L149.422 158.202C191.203 158.293 232.984 158.293 274.686 158.839C274.843 158.839 275 159.02 275 159.202C275 159.384 274.843 159.566 274.686 159.566C232.905 160.202 191.124 160.111 149.422 160.202L86.7892 160.111C65.9379 160.02 45.0081 159.839 24.1568 159.384C24.0784 159.384 24 159.293 24 159.202C24 159.111 24.0784 159.02 24.1568 159.02Z" fill="#BBBBBB"/>
<path d="M89 67.2021H107.323V114.202H89V67.2021ZM118.018 87.4018H163V114.202H118.018V87.4018ZM118.018 67.2021H163V75.4729H118.018V67.2021Z" stroke="#BBBBBB" stroke-miterlimit="10" stroke-linecap="round" stroke-linejoin="round" stroke-dasharray="5 5"/>
<path d="M76.703 124.497C76.3906 102.566 76.1562 80.6357 76.0781 58.7049L76 50.4808V46.3297C76 45.6247 76.0781 44.8415 76.3124 44.0582C76.5468 43.3533 76.9374 42.6484 77.3279 42.0218C78.2653 40.7686 79.5932 39.9071 81.1555 39.5154C81.9366 39.3588 82.7177 39.3588 83.3426 39.3588H93.5754L126.383 39.2805L159.19 39.2021H169.423C170.048 39.2021 170.907 39.2021 171.688 39.3588C173.251 39.6721 174.578 40.612 175.594 41.8652C176.063 42.4918 176.453 43.1967 176.688 43.9799C176.922 44.6848 177 45.5464 177 46.2513V58.6266L176.922 124.419C176.922 124.811 176.609 125.202 176.141 125.202L130.367 125.046L107.48 124.967L84.5924 124.811C84.4362 124.811 84.28 124.654 84.28 124.497C84.28 124.341 84.4362 124.184 84.5924 124.184L107.48 124.027L130.367 123.949L176.141 123.792L175.36 124.576L175.282 58.7832V46.408C175.282 45.7814 175.203 45.2331 175.047 44.6065C174.891 44.0583 174.578 43.51 174.266 43.04C173.563 42.1001 172.548 41.3952 171.376 41.1603C170.829 41.0036 170.282 41.0036 169.501 41.0036H159.268L126.461 40.9253L93.6535 40.847H83.4207C82.7177 40.847 82.1709 40.847 81.546 41.0036C80.3743 41.2386 79.3589 41.9435 78.5777 42.8834C78.1872 43.3533 77.9528 43.9016 77.7185 44.4499C77.5623 45.0765 77.4841 45.6247 77.4841 46.2513V58.6266C77.4841 80.5573 77.3279 102.488 77.0936 124.419C77.0936 124.497 77.0155 124.576 76.9374 124.576C76.7811 124.576 76.703 124.576 76.703 124.497Z" fill="#BBBBBB"/>
<path d="M176 55.2021H71M117.37 111.202C121.064 104.359 126.565 102.315 129.552 102.315C136.468 102.315 139.14 106.09 144.956 106.09C150.772 106.09 153.915 97.0448 162.954 97.0448" stroke="#BBBBBB" stroke-miterlimit="10" stroke-linecap="round" stroke-linejoin="round" stroke-dasharray="5 5"/>
<path d="M189.729 140.165C189.729 140.165 189.887 155.95 188.863 156.5C188.391 156.735 187.919 156.971 187.446 157.285C186.659 157.835 186.974 159.013 187.919 159.091C188.706 159.17 190.516 159.248 191.461 159.17C192.957 159.013 193.35 157.913 193.587 156.343L195.87 140.165M200.908 140.558C200.908 140.558 207.284 155.008 206.497 155.95C206.182 156.343 205.789 156.735 205.474 157.206C205.001 157.992 205.71 158.934 206.576 158.698C207.363 158.463 209.016 157.835 209.882 157.363C211.22 156.657 211.142 155.4 210.748 153.987L206.497 138.202" fill="#061A80"/>
<path d="M200 96.5115C202.649 95.5627 207.48 96.4324 210.441 104.339C213.012 111.218 212.701 119.678 207.246 121.18C204.052 122.05 200 96.5115 200 96.5115Z" fill="#3858E9"/>
<path d="M190 141.202H211.47C209.023 124.895 205.076 108.508 205.076 108.508L199.867 96.3168C199.867 96.3168 199.472 95.2085 196.788 96.5543C191.263 99.325 190.237 129.09 190 141.202ZM247.226 97.1084L244.622 101.067L196.157 60.1394L202.471 54.2021L246.516 91.4087C248.174 92.7545 248.489 95.2085 247.226 97.1084Z" fill="#CCCCCC"/>
<path d="M200.17 53.0192C205.356 45.1714 203.208 34.5988 195.373 29.4046C187.538 24.2104 176.983 26.3615 171.797 34.2093C166.611 42.0571 168.759 52.6297 176.594 57.8239C184.429 63.0181 194.984 60.867 200.17 53.0192Z" stroke="#CCCCCC" stroke-width="8.00104" stroke-miterlimit="10" stroke-linecap="round" stroke-linejoin="round"/>
<path d="M216 72.8657L220.769 58.2021L228 62.9557L221.154 75.2021L216 72.8657Z" fill="white"/>
<path d="M237.314 114.202C251.289 127.229 252.31 132.503 256 143.852L246.5 153.202L237 138.657" fill="#3858E9"/>
<path d="M223 93.2021C216.721 111.635 216.261 116.747 222.158 127.202L223 93.2021Z" fill="#3858E9"/>
<path d="M221 58.6027L229.86 65.0324L221.382 75.1473L222.68 90.2021H241.087C241.087 90.2021 243.76 86.4384 243.99 81.577C244.219 76.7156 240.705 51.3106 232.151 50.2912C223.52 49.1935 221 58.6027 221 58.6027Z" fill="#061A80"/>
<path d="M69.9253 145.714L73 153.819L67.3237 157.202C67.3237 157.202 62.1992 150.907 54 133.202" fill="white"/>
<path d="M70.5683 145.951L73.9385 153.959C74.0953 154.273 73.9385 154.588 73.625 154.745L70.8034 156.393C69.8629 156.943 68.9224 157.492 67.9819 158.12C67.7467 158.277 67.4332 158.199 67.1981 157.963C65.7873 156.079 64.6116 154.116 63.436 152.154C62.2603 150.191 61.1631 148.15 60.0658 146.109C58.9685 144.067 57.9496 142.026 56.9307 139.985C55.9118 137.944 54.9713 135.824 54.0307 133.783C53.9524 133.547 54.0308 133.39 54.1875 133.233C54.3443 133.154 54.5794 133.233 54.7361 133.39C55.6767 135.431 56.6956 137.472 57.7145 139.514C58.7334 141.555 59.8306 143.596 60.9279 145.559C62.0252 147.6 63.1225 149.563 64.3765 151.447C65.5522 153.41 66.8062 155.294 68.1386 157.1L67.3548 156.943L70.1764 155.294C71.1169 154.745 72.0575 154.195 72.9196 153.567L72.6845 154.352L69.8629 146.187C69.7845 145.951 69.8629 145.794 70.098 145.716C70.2548 145.716 70.4899 145.794 70.5683 145.951Z" fill="#061A80"/>
<path d="M66 156.275C68.7606 154.811 77.286 150.572 78.7475 150.341C80.209 150.032 80.4526 150.186 79.1535 151.343L67.2179 158.202L66 156.275Z" fill="#061A80" stroke="#061A80" stroke-width="0.7347" stroke-miterlimit="10"/>
<path d="M61 150.297L59.617 159.202H52.2952C52.2952 159.202 51.1562 150.939 53.3528 131.202" fill="white"/>
<path d="M60.9302 149.974L59.7907 158.655C59.7093 158.968 59.4651 159.202 59.1395 159.202C57.9186 159.124 56.6977 159.124 55.4767 159.124H51.814C51.4884 159.124 51.2442 158.889 51.2442 158.577C51 156.23 51 153.963 51 151.695C51 149.427 51.0814 147.081 51.2442 144.813L51.7326 138.009L52.4651 131.205C52.4651 130.971 52.7093 130.814 52.9535 130.893C53.1977 130.893 53.3605 131.127 53.2791 131.284C53.0349 133.552 52.7907 135.819 52.6279 138.087C52.4651 140.355 52.3023 142.623 52.2209 144.891C52.1395 147.159 52.0581 149.427 52.0581 151.695C52.0581 153.963 52.1395 156.23 52.3837 158.42L51.7326 157.873H55.3954C55.3954 157.873 57.8372 157.873 59.0581 157.794L58.407 158.342L60.1163 149.74C60.1977 149.505 60.3605 149.349 60.6046 149.427C60.7674 149.583 60.9302 149.818 60.9302 149.974ZM65.5698 112.202L72 148.723L60.8488 151.382" fill="#061A80"/>
<path d="M52.8339 91.2021C48.7897 108.715 51.2784 119.082 50.8118 123.087C50.2674 127.092 47.4675 143.663 48.0897 149.474L61.0003 151.202L68 99.7624" fill="#3858E9"/>
<path d="M70.7215 64.2979C71.3418 64.6854 71.7294 64.7629 72.5047 64.9953C75.606 65.7703 78.3196 64.2979 79.7927 61.7406C80.1804 61.0432 81.731 61.2757 81.9636 60.4232C82.2737 59.2608 80.4905 58.2534 80.8006 55.9287C81.1108 53.2939 78.9399 51.1241 76.0712 50.4266C72.0396 49.4192 68.0079 51.899 67 55.9287" fill="white"/>
<path d="M70.4054 64.3766C70.7201 64.5348 71.0347 64.6929 71.4281 64.7719C71.8214 64.851 72.2148 64.9301 72.5294 65.0091C73.2375 65.0882 74.0241 65.0882 74.7321 64.9301C76.1482 64.6138 77.3282 63.7442 78.1935 62.5583L78.5082 62.0839L78.6655 61.8467C78.7442 61.7677 78.7442 61.7677 78.9015 61.5305C79.1375 61.2143 79.4522 61.0561 79.6882 60.9771C79.9242 60.898 80.1602 60.819 80.3176 60.7399L80.7896 60.5818L80.8682 60.5027V60.3446C80.8682 60.3446 80.7896 60.1865 80.7896 60.0284C80.5536 59.4749 80.0029 58.6053 79.7669 57.7356C79.6882 57.2613 79.6096 56.7869 79.6882 56.3125L79.7669 55.7591V55.2848C79.6882 54.0198 78.7442 52.8339 77.4855 52.0433C76.2268 51.3318 74.8108 50.9365 73.3161 51.0155C70.3267 51.1737 67.5734 53.3083 66.7867 56.3125C66.708 56.5497 66.472 56.6288 66.3147 56.5497C66.0787 56.4707 66 56.3125 66 56.0754C66.3147 54.4151 67.18 52.8339 68.5174 51.7271C69.7761 50.5412 71.4281 49.8296 73.1588 49.6715C74.8895 49.5134 76.6202 49.9087 78.1935 50.7784C78.9802 51.2527 79.6882 51.8061 80.2389 52.5177C80.7896 53.2292 81.1829 54.1779 81.2616 55.1267C81.2616 55.3638 81.3403 55.601 81.2616 55.8382V56.4707C81.2616 56.7869 81.2616 57.1031 81.3403 57.4194C81.4976 58.0519 81.8123 58.6053 82.2056 59.4749C82.3629 59.8702 82.5989 60.5818 82.2056 61.2933C81.9696 61.6886 81.6549 61.8467 81.4189 62.0048L80.7109 62.242C80.3176 62.3211 80.0029 62.4792 80.0816 62.4792C80.0816 62.4002 80.0029 62.5583 79.9242 62.6373L79.7669 62.8745C79.6096 63.0326 79.5309 63.1907 79.3736 63.4279C78.2722 64.7719 76.6988 65.7997 74.9681 66.116C74.1028 66.2741 73.2375 66.195 72.3721 66.0369L71.1921 65.7207C70.7987 65.5625 70.4054 65.3254 70.0121 65.0882C69.8547 64.9301 69.7761 64.6929 69.9334 64.5348C70.0121 64.3766 70.2481 64.2976 70.4054 64.3766ZM224.359 48.5647C223.965 48.8019 223.572 49.0391 223.1 49.1181C222.628 49.2762 222.235 49.3553 221.841 49.4344C220.976 49.5925 220.032 49.5925 219.088 49.4344C217.278 49.0391 215.626 47.9322 214.604 46.4301L214.21 45.8767L214.053 45.5604C213.974 45.4814 213.896 45.3232 213.896 45.3232C213.896 45.3232 213.581 45.1651 213.188 45.007L212.48 44.7698C212.244 44.6117 211.85 44.4536 211.693 44.0583C211.3 43.2677 211.614 42.5562 211.772 42.1609C212.244 41.2912 212.637 40.7378 212.794 40.0262C212.873 39.71 212.952 39.3147 212.952 38.9985V38.366C212.952 38.1288 212.952 37.8916 213.03 37.6544C213.188 36.6267 213.66 35.757 214.21 34.9664C214.84 34.2549 215.626 33.6224 216.413 33.2271C218.065 32.3574 219.953 32.0412 221.763 32.2784C223.572 32.5156 225.303 33.3852 226.561 34.6502C227.899 35.9151 228.685 37.5754 229 39.3938C229 39.6309 228.921 39.7891 228.685 39.8681C228.449 39.8681 228.292 39.7891 228.213 39.5519C227.505 36.3895 224.673 33.9386 221.605 33.7015C220.111 33.5433 218.458 33.8596 217.121 34.6502C215.784 35.3617 214.761 36.5476 214.525 37.9707C214.525 38.1288 214.446 38.2869 214.525 38.5241V39.1566C214.525 39.6309 214.525 40.1844 214.368 40.6587C214.132 41.6074 213.502 42.4771 213.188 43.0305C213.109 43.1886 213.03 43.3468 213.03 43.4258V43.5839L213.188 43.663C213.266 43.7421 213.502 43.8211 213.66 43.8211C213.896 43.9002 214.053 43.9792 214.368 44.0583C214.604 44.1373 214.918 44.3745 215.154 44.6908C215.312 44.9279 215.312 44.9279 215.39 45.007L215.548 45.2442L215.862 45.7185C216.728 46.9835 217.986 48.0113 219.481 48.4066C220.189 48.5647 220.976 48.6438 221.763 48.5647C222.156 48.5647 222.549 48.4856 222.943 48.4066C223.336 48.3275 223.651 48.1694 224.044 48.0113C224.201 47.9322 224.437 48.0113 224.595 48.1694C224.595 48.2485 224.516 48.4856 224.359 48.5647Z" fill="#061A80"/>
<path d="M52 157.202C55.1033 157.266 64.4927 157.779 65.925 158.163C67.3573 158.547 67.4369 158.74 65.6863 159.06C64.0153 159.38 52 159.06 52 159.06V157.202Z" fill="#061A80" stroke="#061A80" stroke-width="0.7347" stroke-miterlimit="10"/>
<path d="M77 62.2021C77.4667 62.9521 78 63.2021 78 63.2021" stroke="#061A80" stroke-miterlimit="10" stroke-linecap="round" stroke-linejoin="round"/>
<path d="M77.2143 59.166C77.0238 59.0696 76.9603 58.6841 77.0238 58.3949L77.2778 57.5275C77.3413 57.2383 77.5952 57.1419 77.7857 57.2383C77.9762 57.3347 78.0397 57.7202 77.9762 58.0094L77.7222 58.8769C77.6587 59.166 77.4048 59.2624 77.2143 59.166Z" fill="#061A80"/>
<path d="M69.3095 91.3932L67.8425 100.202L48 95.955C48 95.955 53.3274 65.2808 64.3682 65.2021C67.9197 65.2021 71.5485 67.955 70.9309 73.7752" fill="#3858E9"/>
<path d="M69.8829 76.9203C71.9027 72.2388 74.3265 67.3271 78.2045 66.3295C82.0825 65.3318 78.77 70.4737 76.7502 72.1621C76.4271 74.311 78.9316 88.2786 69.5597 88.2018C57.6025 88.1251 58.4912 69.476 63.4195 68.3248C67.7823 67.3271 68.4286 73.9272 70.3676 79.9901" fill="white"/>
<path d="M69.5251 76.6831C70.2082 74.9148 70.8914 73.1464 71.7263 71.3781C72.5613 69.6901 73.624 68.0021 75.0662 66.6357C75.8252 65.9927 76.6602 65.43 77.6469 65.1889C77.8747 65.1085 78.1783 65.0281 78.406 65.0281C78.7096 65.0281 79.0132 65.0281 79.3928 65.2692C79.7723 65.5104 79.9241 65.9927 80 66.3142C80 66.6357 80 66.9572 79.9241 67.1983C79.6964 68.2433 79.165 69.1274 78.7096 70.0116C78.1783 70.8154 77.6469 71.6192 76.8879 72.3426L77.1156 71.8603C77.0397 72.3426 77.1156 73.066 77.1156 73.7091V75.7185C77.1156 77.085 77.1156 78.3711 76.9638 79.7375C76.812 81.1039 76.6602 82.39 76.2047 83.7565C75.8252 85.0425 75.218 86.3286 74.2312 87.3735C73.2444 88.4184 71.8782 89.0615 70.5878 89.1419C69.2215 89.3026 67.9311 89.1419 66.6407 88.6596C65.3503 88.1773 64.2117 87.3735 63.3009 86.409C62.39 85.364 61.7069 84.1584 61.1755 82.8723C60.1888 80.3002 59.8851 77.5673 60.037 74.8344C60.1129 73.4679 60.3406 72.1015 60.7201 70.8154C60.9478 70.1724 61.1755 69.5293 61.5551 68.8863C61.9346 68.3237 62.39 67.6806 63.1491 67.3591C63.3009 67.2787 63.5286 67.1983 63.6804 67.1983C63.8322 67.1983 64.0599 67.118 64.2117 67.118C64.5913 67.0376 64.9708 67.118 65.3503 67.1983C66.1094 67.3591 66.7166 67.9218 67.172 68.4844C68.007 69.6097 68.4624 70.9762 68.8419 72.1819C69.601 74.754 70.0564 77.3261 70.7396 79.8179C70.8155 80.059 70.6637 80.2198 70.5119 80.3002C70.2841 80.3805 70.1323 80.2198 70.0564 80.059L68.007 72.5034C67.6275 71.2977 67.172 70.092 66.4889 69.1274C66.1094 68.6452 65.7298 68.3237 65.2744 68.2433C65.0467 68.1629 64.819 68.1629 64.5154 68.2433L64.1358 68.3237C64.1358 68.3237 63.9081 68.404 63.8322 68.4844C62.9973 68.9667 62.39 70.1724 62.0105 71.2977C61.631 72.5034 61.4032 73.7091 61.3273 74.9951C61.1755 77.5673 61.4792 80.1394 62.39 82.4704C63.3009 84.8014 64.8949 86.8109 67.0961 87.5343C69.2215 88.2577 71.9541 88.1773 73.4722 86.4893C74.3071 85.6856 74.7625 84.5602 75.1421 83.3546C75.5216 82.1489 75.6734 80.8628 75.7493 79.5767C75.8252 78.2907 75.8252 77.0046 75.8252 75.7185L75.7493 73.7894C75.7493 73.1464 75.6734 72.5034 75.7493 71.6996C75.7493 71.5388 75.8252 71.3781 75.9011 71.2977L75.977 71.2173C76.5843 70.6546 77.1915 69.9312 77.6469 69.2078C78.1024 68.4844 78.6337 67.6806 78.7855 66.8768C78.8614 66.7161 78.8614 66.4749 78.8614 66.3946C78.8614 66.2338 78.8614 66.2338 78.7855 66.2338C78.7096 66.1534 78.2542 66.1534 77.8747 66.2338C77.1156 66.4749 76.3566 66.8768 75.6734 67.4395C74.383 68.5648 73.3204 70.1724 72.4854 71.78C71.6504 73.3875 70.8914 75.1559 70.2082 76.9242C70.1323 77.1654 69.9046 77.2457 69.6769 77.1654C69.5251 77.085 69.4492 76.8439 69.5251 76.6831ZM66.1853 57.9547C66.1853 60.4465 76.4325 58.9997 79.3928 51.2029C79.3928 51.2029 73.2444 47.6662 69.9805 49.9972C66.6407 52.489 66.1853 55.463 66.1853 57.9547ZM71.7263 64.7066L70.436 66.9572L70.3601 64.1439" fill="#061A80"/>
<path d="M71.8878 64.7523C71.5806 65.5327 71.1198 66.3131 70.7357 67.0155C70.6589 67.1715 70.4285 67.2496 70.1981 67.1715C70.1213 67.0935 70.0445 66.9374 70.0445 66.8594V65.5327C70.0445 65.0645 70.1213 64.5962 70.1981 64.2061C70.1981 64.128 70.3517 64.05 70.4285 64.05C70.5054 64.05 70.5821 64.128 70.5821 64.2061C70.6589 64.6743 70.7357 65.1425 70.7357 65.5327C70.7357 66.0009 70.8126 66.4692 70.8126 66.8594L70.1213 66.6253C70.5821 65.9229 71.043 65.2206 71.6574 64.5182C71.7342 64.4402 71.8878 64.4402 71.9646 64.5182C71.8878 64.5962 71.8878 64.6743 71.8878 64.7523ZM67.6637 45.5547C63.286 47.9739 66.8957 53.2025 71.043 51.1735C75.1902 49.1445 72.1182 43.1355 67.6637 45.5547ZM65.6669 40.6382C62.134 42.5892 64.8221 47.5057 68.1245 45.8668C71.427 44.228 69.2765 38.6092 65.6669 40.6382Z" fill="#061A80"/>
<path d="M58 98.2021C58.2 99.4021 58.2 101.802 59 104.202L58 98.2021Z" fill="white"/>
<path d="M58.6783 98.6257C58.7971 99.5433 58.8565 100.39 58.916 101.237C58.9754 102.085 59.0348 103.002 58.9754 103.849C58.9754 104.061 58.8565 104.202 58.6783 104.202C58.5594 104.202 58.4406 104.061 58.3812 103.92C58.1435 103.073 58.084 102.155 58.0246 101.237C57.9652 100.32 58.0246 99.4727 58.084 98.5551C58.084 98.3433 58.2623 98.2021 58.4406 98.2021C58.5594 98.3433 58.6783 98.4845 58.6783 98.6257Z" fill="#061A80"/>
<path d="M230 64.7302C230 64.7302 222.807 81.4711 218.617 82.1654C214.428 82.8597 206.997 73.5249 203.993 70.5933C198.381 70.1304 197.195 62.9558 198.46 62.03C200.357 60.7185 203.203 66.2731 204.389 65.4245C205.574 64.5759 202.808 62.1843 203.835 61.3357C204.784 60.5642 207.63 63.2644 208.341 66.1188C208.499 66.736 208.894 67.1989 209.448 67.4303C213.637 68.9732 217.431 70.9791 217.431 70.9791" fill="white"/>
<path d="M229.967 64.664C228.709 67.8276 227.292 70.9912 225.719 73.9966C224.932 75.4994 224.066 77.0021 223.122 78.5048C222.65 79.2166 222.178 79.9284 221.627 80.6402C221.076 81.352 220.447 81.9848 219.66 82.5384C219.503 82.6966 219.188 82.7757 218.952 82.9338C218.716 83.0129 218.401 83.1711 218.165 83.1711C217.614 83.2502 217.142 83.1711 216.67 83.0129C215.726 82.7757 214.939 82.3011 214.153 81.8266C212.658 80.8775 211.32 79.6911 210.061 78.5048C208.802 77.3184 207.622 76.053 206.52 74.7875C205.34 73.5221 204.239 72.1776 203.137 70.9912L203.609 71.2285C202.665 71.1494 201.642 70.833 200.855 70.3585C199.99 69.8839 199.282 69.1721 198.731 68.3812C198.18 67.5903 197.708 66.7203 197.472 65.8503C197.157 64.9803 197 64.0312 197 63.0822C197 62.8449 197 62.6076 197.079 62.2913C197.157 62.054 197.236 61.7376 197.472 61.4213L197.708 61.184L197.944 61.0258C198.102 60.9467 198.259 60.8676 198.495 60.8676C198.888 60.7885 199.203 60.8676 199.518 60.9467C200.069 61.184 200.462 61.4213 200.855 61.7376C201.249 62.054 201.564 62.3703 201.878 62.6867C202.508 63.3194 203.058 64.0313 203.609 64.4267C203.767 64.5058 203.845 64.5849 203.924 64.5849H203.845V64.4267C203.845 64.3476 203.767 64.1103 203.688 63.9522C203.531 63.6358 203.373 63.2403 203.137 62.8449C203.058 62.6076 202.901 62.4494 202.822 62.1331C202.744 61.8958 202.665 61.5794 202.744 61.1049C202.822 60.6304 203.216 60.314 203.609 60.2349C204.003 60.1558 204.396 60.2349 204.632 60.314C205.183 60.5513 205.576 60.7885 205.891 61.1049C206.599 61.7376 207.15 62.4494 207.622 63.2403C207.858 63.6358 208.094 64.0312 208.251 64.5058C208.33 64.7431 208.409 64.9803 208.487 65.1385L208.645 65.7712C208.724 66.0876 208.96 66.3249 209.196 66.4831C209.274 66.4831 209.353 66.5621 209.353 66.5621L209.668 66.7203L210.297 66.9576L212.658 67.9858C214.231 68.6976 215.805 69.4885 217.3 70.3585C217.457 70.4376 217.536 70.6748 217.457 70.9121C217.378 71.0703 217.142 71.1494 216.906 71.0703C215.411 70.2794 213.838 69.5676 212.264 68.8558L209.904 67.9067L209.274 67.6694L208.96 67.5903L208.566 67.4321C208.094 67.1158 207.701 66.6412 207.543 66.1667L207.386 65.534L207.15 64.9803C206.993 64.5849 206.835 64.2685 206.599 63.8731C206.206 63.1613 205.655 62.5285 205.104 62.054C204.789 61.8167 204.475 61.5794 204.239 61.5004C204.081 61.4213 204.003 61.4213 204.003 61.4213C204.003 61.4213 204.081 61.8958 204.239 62.2122C204.396 62.6076 204.632 62.924 204.868 63.3985C204.947 63.6358 205.025 63.8731 205.104 64.1894C205.183 64.5058 205.104 64.9803 204.868 65.2967C204.711 65.4549 204.632 65.6131 204.396 65.6921C204.16 65.8503 203.845 65.8503 203.688 65.7712C203.294 65.6921 203.058 65.534 202.822 65.3758C202.036 64.7431 201.485 64.1103 200.855 63.4776C200.305 62.924 199.596 62.2913 199.124 62.1331C198.967 62.054 198.888 62.054 198.888 62.1331H198.731C198.731 62.1331 198.652 62.2913 198.652 62.4494C198.652 62.6076 198.574 62.7658 198.574 63.0031C198.574 64.5058 199.124 66.1667 200.069 67.4321C201.013 68.6976 202.35 69.4885 203.845 69.6467C204.003 69.6467 204.239 69.7258 204.317 69.8839C206.678 72.4148 208.802 75.0248 211.241 77.3184C212.422 78.5048 213.68 79.6121 215.018 80.482C216.356 81.352 217.929 82.0639 218.952 81.273C219.581 80.8775 220.132 80.3239 220.683 79.6911C221.234 79.0584 221.706 78.4257 222.178 77.7139C223.122 76.3693 223.988 74.8666 224.774 73.3639C226.427 70.4376 227.922 67.353 229.338 64.2685C229.417 64.0312 229.653 63.9522 229.889 64.1103C229.967 64.2685 230.046 64.5058 229.967 64.664Z" fill="#061A80"/>
<path d="M211.012 33.1505C210.769 36.4543 214.336 36.9799 216.2 38.2564C218.146 39.6079 218.227 41.2598 220.091 41.7103C221.956 42.1608 222.766 41.3349 225.036 41.7854C227.144 42.1608 227.874 43.5124 230.306 43.1369C232.251 42.8366 233.629 42.0857 233.954 39.4577C234.278 36.8297 232.819 36.4543 232.251 33.9765C231.684 31.4986 231.603 30.1471 228.927 29.3211C226.495 28.5703 225.361 29.3211 223.334 28.6454C221.307 27.9696 220.578 27.0686 218.308 27.2187C216.768 27.2938 215.876 27.9696 214.579 29.3962C213.201 30.7478 211.174 30.3723 211.012 33.1505Z" fill="#3858E9"/>
<path d="M216 45.2021C215.4 45.2021 215 45.2021 215 45.2021" stroke="#061A80" stroke-miterlimit="10" stroke-linecap="round" stroke-linejoin="round"/>
<path d="M216.688 42.1802C216.875 42.0942 217 41.8362 217 41.4922L216.813 40.6322C216.75 40.3742 216.562 40.2021 216.312 40.2021C216.125 40.2882 216 40.5462 216 40.8902L216.188 41.7502C216.313 42.0942 216.5 42.2662 216.688 42.1802Z" fill="#061A80"/>
<path d="M222.935 90.2021L222 157.202L233.843 155.558C233.843 155.558 238.752 138.261 237.973 128.711C236.493 111.022 241.635 102.099 240.934 90.2021" fill="white"/>
<path d="M222.976 89.7539L222.66 123.489L222.502 140.357C222.502 145.953 222.265 151.628 222.186 157.225L221.474 156.594L233.49 154.939L233.016 155.333C234.439 150.052 235.704 144.613 236.494 139.175C236.889 136.495 237.206 133.736 237.285 130.977C237.285 129.637 237.206 128.297 237.126 126.879C237.047 125.46 236.968 124.12 236.968 122.701C236.968 119.942 237.047 117.105 237.364 114.346C237.68 111.587 238.075 108.829 238.549 106.07C239.498 100.631 240.605 95.1925 240.289 89.6751C240.289 89.4386 240.447 89.281 240.684 89.281C240.921 89.281 241.079 89.4386 241.079 89.6751C241.474 95.2714 240.368 100.789 239.498 106.227C239.024 108.986 238.628 111.666 238.312 114.425C237.996 117.184 237.917 119.942 237.917 122.622C237.917 123.962 237.996 125.381 238.075 126.721C238.154 128.061 238.312 129.48 238.312 130.898C238.312 133.736 237.996 136.495 237.601 139.253C236.81 144.771 235.545 150.21 234.123 155.569C234.043 155.806 233.885 155.964 233.648 155.964L221.632 157.619C221.316 157.698 221 157.461 221 157.146V157.067L221.158 140.199L221.474 123.332L222.107 89.5963C222.107 89.3598 222.265 89.2021 222.502 89.2021C222.818 89.3598 222.976 89.5174 222.976 89.7539ZM255.704 143.51C252.462 146.269 242.502 154.86 241.395 156.594C240.289 158.328 240.368 158.643 242.581 157.619C244.399 156.752 253.727 149.027 256.573 146.663C257.047 146.269 257.126 145.638 256.81 145.086L255.704 143.51Z" fill="#3858E9"/>
<path d="M223 48.8021L225 51.2021C224.565 50.6771 224.043 48.2021 224.043 48.2021" fill="#061A80"/>
<path d="M223 48.8021L225 51.2021C224.565 50.6771 224.043 48.2021 224.043 48.2021" stroke="#061A80" stroke-miterlimit="10" stroke-linecap="round" stroke-linejoin="round"/>
<path d="M197.441 102.836C197.147 101.97 197 101.026 197 100.081C197 99.1371 197.073 98.114 197.514 97.1696C197.588 96.9335 197.735 96.6974 197.881 96.4613C198.028 96.2252 198.249 95.9891 198.396 95.8317C198.836 95.4382 199.351 95.2021 199.938 95.2021C201.114 95.2808 201.922 95.9891 202.362 96.7761C202.509 96.9335 202.436 97.1696 202.289 97.327C202.142 97.4057 201.995 97.4057 201.848 97.327C201.26 96.7761 200.526 96.4613 200.012 96.54C199.718 96.6187 199.497 96.6974 199.351 96.9335C199.13 97.1696 198.983 97.4844 198.836 97.7992C198.543 98.5075 198.396 99.2945 198.322 100.081C198.249 100.947 198.175 101.734 198.102 102.679C198.102 102.915 197.881 103.072 197.661 103.072C197.588 103.072 197.514 102.993 197.441 102.836ZM202.436 116.766C202.95 117.159 203.317 117.631 203.758 118.025L204.933 119.205C205.374 119.52 205.741 119.835 206.182 119.913C206.402 119.992 206.549 119.992 206.77 119.913C206.99 119.913 207.21 119.756 207.357 119.599L207.431 119.52C207.578 119.363 207.798 119.441 207.945 119.599C208.018 119.677 208.018 119.835 207.945 119.992C207.798 120.386 207.504 120.7 207.137 120.937C206.77 121.173 206.402 121.251 205.962 121.173C205.154 121.094 204.566 120.7 203.978 120.307C203.684 120.071 203.464 119.835 203.244 119.599C203.023 119.363 202.803 119.126 202.656 118.812C202.289 118.261 201.995 117.71 201.775 117.08C201.701 116.844 201.775 116.608 201.995 116.529C202.215 116.608 202.362 116.687 202.436 116.766Z" fill="#3858E9"/>
<path d="M198.83 112.377C198.83 112.377 196.795 97.4392 199.888 97.207C204.854 96.82 207.865 119.652 200.946 120.193C194.515 120.658 190.852 102.393 197.609 99.9159" fill="#BBBBBB"/>
<path d="M198.799 112.568C198.322 109.708 198.083 106.927 197.924 104.067C197.845 102.637 197.845 101.207 198.083 99.6977C198.163 98.9827 198.322 98.1882 198.64 97.3938C198.878 96.9966 199.117 96.5199 199.752 96.2816C199.911 96.2022 200.07 96.2021 200.229 96.2021H200.627C200.865 96.2021 201.104 96.361 201.342 96.4405C202.216 96.8377 202.693 97.5527 203.09 98.1882C203.488 98.8238 203.806 99.5388 204.124 100.254C204.68 101.604 204.998 103.034 205.316 104.464C205.872 107.324 206.111 110.184 205.952 113.124C205.872 114.554 205.634 116.063 205.157 117.493C204.918 118.208 204.601 118.923 204.124 119.559C203.647 120.194 202.931 120.83 202.057 121.068C201.183 121.306 200.229 121.227 199.514 120.83C198.719 120.512 198.083 119.956 197.606 119.4C196.573 118.208 195.937 116.858 195.381 115.507C194.348 112.726 193.871 109.866 194.03 106.927C194.109 105.497 194.348 103.988 194.904 102.637C195.461 101.287 196.494 99.936 197.924 99.3799C198.163 99.3005 198.322 99.3799 198.401 99.6182C198.481 99.7771 198.401 100.015 198.163 100.095C196.971 100.572 196.176 101.763 195.778 102.955C195.302 104.226 195.143 105.577 195.143 106.927C195.143 109.708 195.62 112.488 196.653 115.03C197.13 116.301 197.845 117.493 198.64 118.446C199.514 119.4 200.627 119.956 201.66 119.638C202.614 119.32 203.329 118.208 203.726 116.937C204.124 115.666 204.362 114.315 204.442 112.965C204.601 110.184 204.362 107.404 203.885 104.703C203.647 103.352 203.249 102.002 202.773 100.73C202.534 100.095 202.296 99.4594 201.898 98.9032C201.58 98.3471 201.183 97.8705 200.786 97.6321C200.706 97.6321 200.627 97.5527 200.468 97.5527H200.229C200.229 97.5527 199.991 97.7116 199.911 97.9499C199.673 98.4266 199.514 99.1416 199.434 99.7771C199.196 101.128 199.196 102.558 199.196 103.908C199.196 106.689 199.355 109.549 199.673 112.329C199.673 112.568 199.514 112.726 199.276 112.726C198.958 112.965 198.799 112.806 198.799 112.568Z" fill="#061A80"/>
<path d="M202.914 88.6846C203.649 84.0903 199.563 78.6093 195.231 79.2541C189.51 80.1408 188.284 84.2515 189.346 87.9592C189.591 88.7652 188.938 89.8936 189.346 90.619C189.755 91.2638 190.736 90.6996 191.063 91.3444C192.615 93.7625 195.558 94.8909 198.337 93.7625C199.644 93.1983 201.279 92.0699 201.851 91.1832" fill="#BBBBBB"/>
<path d="M202.334 88.5494C202.569 86.9005 202.177 85.1732 201.393 83.7599C200.609 82.2681 199.434 81.0118 197.944 80.3052C197.239 79.9911 196.455 79.8341 195.671 79.9126C194.887 79.9911 194.025 80.2267 193.319 80.6192C191.83 81.2474 190.654 82.5036 190.262 83.9954C190.027 84.7806 190.027 85.5658 190.105 86.3509L190.341 87.5286C190.419 87.6857 190.497 88.0783 190.497 88.3923C190.497 88.7064 190.419 88.9419 190.419 89.1775C190.341 89.6486 190.262 90.0412 190.341 90.1982H190.733C190.733 90.1982 191.438 90.1982 191.83 90.5908L192.065 90.8263L192.144 90.9833L192.3 91.2189C192.535 91.533 192.771 91.847 193.084 92.0826C194.26 93.1033 195.828 93.4959 197.317 93.1818C198.023 93.0248 198.728 92.7107 199.512 92.3181C199.904 92.1611 200.218 91.9255 200.531 91.69C200.845 91.4544 201.237 91.2189 201.472 90.9833C201.629 90.8263 201.864 90.8263 202.02 90.9833C202.099 91.1404 202.177 91.2974 202.099 91.4544C201.629 92.3966 200.923 93.0248 200.218 93.5744C199.512 94.124 198.65 94.5951 197.631 94.8306C195.671 95.3017 193.555 94.6736 192.065 93.3388C191.673 93.0248 191.36 92.6322 191.046 92.2396L190.811 91.9255L190.733 91.7685C190.811 91.847 190.811 91.7685 190.576 91.7685C190.419 91.7685 190.105 91.7685 189.635 91.6115C189.243 91.4544 188.93 91.0619 188.851 90.6693C188.694 89.9626 188.851 89.4915 188.93 89.0204C188.93 88.7849 189.008 88.6279 189.008 88.4708C189.008 88.3138 189.008 88.3138 188.93 87.9997C188.773 87.5286 188.694 87.0576 188.694 86.5865C188.616 85.6443 188.694 84.7021 188.93 83.7599C189.165 82.8177 189.713 81.954 190.341 81.2474C191.046 80.5407 191.83 80.0696 192.692 79.6771C193.555 79.363 194.417 79.1274 195.357 79.0489C196.298 78.9704 197.317 79.1274 198.179 79.52C199.904 80.3052 201.158 81.797 202.02 83.4458C202.883 85.0947 203.275 86.979 202.961 88.7849C202.961 89.0205 202.726 89.1775 202.491 89.099C202.412 88.9419 202.256 88.7849 202.334 88.5494ZM190.654 81.954C191.987 84.0739 194.103 85.4087 196.376 86.4294C198.65 87.4501 201.158 88.0783 203.667 88.8634C203.902 88.9419 203.98 89.1775 203.902 89.3345C203.823 89.4915 203.667 89.6486 203.51 89.6486C202.177 89.5701 200.923 89.3345 199.59 89.099C198.258 88.7849 197.004 88.4708 195.749 87.9212C194.495 87.3716 193.319 86.7435 192.222 85.8013C191.203 84.8591 190.341 83.6814 189.949 82.3466C189.87 82.111 190.027 81.954 190.184 81.8755C190.341 81.7185 190.497 81.797 190.654 81.954Z" fill="#061A80"/>
<path d="M193.398 80.0698C194.417 77.7144 190.341 75.6729 188.616 78.8136C187.754 80.3839 188.538 82.6609 190.184 82.8179" fill="#061A80"/>
<path d="M193.084 79.9126C193.241 79.0489 192.771 78.4208 191.987 78.1067C191.281 77.7927 190.419 77.9497 189.87 78.4208C189.635 78.6563 189.321 79.0489 189.165 79.363C189.008 79.6771 188.93 80.0696 189.008 80.5407C189.086 81.3259 189.478 82.1111 190.262 82.4251C190.497 82.5036 190.576 82.7392 190.497 82.8962C190.419 83.0532 190.262 83.1318 190.105 83.1318C189.478 83.1318 188.851 82.8177 188.381 82.3466C187.91 81.8755 187.675 81.2474 187.519 80.6192C187.44 79.9911 187.44 79.363 187.675 78.7349C187.911 78.1067 188.302 77.6356 188.773 77.1645C189.243 76.772 189.949 76.4579 190.576 76.3794C191.281 76.3009 191.908 76.4579 192.457 76.772C193.006 77.086 193.476 77.5571 193.79 78.1853C194.025 78.8134 193.946 79.5985 193.633 80.0696C193.554 80.2267 193.241 80.3052 193.084 80.2267C193.084 80.2267 193.006 80.0696 193.084 79.9126Z" fill="#061A80"/>
<path d="M192.295 92.2931C192.609 92.3728 192.924 92.2931 193.239 92.2135L193.71 91.9746C193.868 91.8949 193.946 91.7356 194.025 91.656C194.104 91.4967 194.261 91.4967 194.418 91.5764C194.497 91.656 194.575 91.7357 194.575 91.8153C194.575 92.1338 194.418 92.3728 194.261 92.6117C194.104 92.8506 193.868 92.9302 193.632 93.0895C193.396 93.1692 193.081 93.2488 192.845 93.1692C192.609 93.1692 192.295 93.0895 192.059 92.8506C191.98 92.771 191.98 92.6117 192.059 92.4524C192.059 92.2931 192.138 92.2931 192.295 92.2931ZM200.866 81.8603C201.181 84.4884 207 85.6034 207 80.7454C207 75.8874 200.159 75.8077 200.866 81.8603Z" fill="#061A80"/>
<path d="M200.79 81.3493C200.865 82.0551 201.463 82.604 202.137 82.8393C202.81 83.0746 203.558 83.0746 204.157 82.8393C204.755 82.604 205.129 82.0551 205.354 81.4277C205.504 80.8003 205.578 79.9377 205.429 79.3103C205.279 78.6045 204.905 78.0555 204.381 77.6634C203.857 77.2713 203.109 77.1929 202.511 77.4282C201.912 77.6634 201.314 78.2124 201.089 78.9182C200.715 79.7024 200.715 80.4866 200.79 81.3493ZM200.042 81.4277C199.967 80.5651 199.967 79.5456 200.266 78.6829C200.565 77.8203 201.164 76.8792 202.062 76.4871C202.96 76.095 204.082 76.095 204.98 76.5655C205.878 77.0361 206.551 77.9771 206.85 78.9966C207 79.4671 207 80.0161 207 80.4866C207 80.9572 206.925 81.5061 206.776 81.9767C206.626 82.4472 206.327 82.9961 205.952 83.3098C205.578 83.7019 205.055 83.9372 204.606 84.0941C203.633 84.3293 202.66 84.1725 201.837 83.7019C201.388 83.4667 201.014 83.2314 200.715 82.8393C200.341 82.4472 200.042 81.8982 200.042 81.4277Z" fill="#061A80"/>
<path d="M220 60.6216C219.863 61.5281 219.657 62.4346 219.452 63.3411C219.178 64.2476 218.972 65.0716 218.63 65.9781L217.739 68.5328C217.397 69.3568 217.054 70.1809 216.643 71.005C216.575 71.1698 216.301 71.2522 216.164 71.1698C216.027 71.0874 215.958 70.9226 216.027 70.7578C216.164 69.8513 216.438 68.9448 216.643 68.0383C216.849 67.1318 217.123 66.3078 217.397 65.4013C217.671 64.4948 217.945 63.6707 218.287 62.8466C218.63 62.0226 218.972 61.1985 219.383 60.3744C219.52 60.2096 219.726 60.1272 219.863 60.292C220 60.292 220 60.4568 220 60.6216Z" fill="#061A80"/>
<path d="M191.827 80.572C189.169 80.572 190.332 81.7711 190.332 81.7711C190.332 81.7711 189.585 82.0109 190.332 82.9701C191.08 83.9294 195.814 87.3667 199.303 88.246C202.874 89.0454 202.459 89.445 202.625 89.0454C202.874 88.6457 203.705 86.0077 201.628 83.13C199.552 80.2523 197.725 78.8134 194.984 79.293L191.827 80.572Z" fill="#061A80"/>
<path d="M236 155.202C231.645 155.341 218.498 156.037 216.482 156.663C214.546 157.29 214.385 157.499 216.724 157.986C219.144 158.473 235.919 157.986 235.919 157.986V155.202H236Z" fill="#3858E9"/>
</svg>
