<svg width="1600" height="1001" viewBox="0 0 1600 1001" fill="none" xmlns="http://www.w3.org/2000/svg">
<path d="M160.8 845.322C267.2 842.922 374 842.522 480.4 842.122L800 841.722C1013.2 842.122 1226.4 842.122 1439.2 844.522C1440 844.522 1440.8 845.322 1440.8 846.122C1440.8 846.922 1440 847.722 1439.2 847.722C1226 850.522 1012.8 850.122 800 850.522L480.4 850.122C374 849.722 267.2 848.922 160.8 846.922C160.4 846.922 160 846.522 160 846.122C160 845.722 160.4 845.322 160.8 845.322Z" fill="#A7AAAD"/>
<path d="M492.4 378.122H585.6V614.522H492.4V378.122ZM640 479.722H868.8V614.522H640V479.722ZM640 378.122H868.8V419.722H640V378.122Z" stroke="#A7AAAD" stroke-miterlimit="10" stroke-linecap="round" stroke-linejoin="round" stroke-dasharray="5 5"/>
<path d="M426.8 670.122C425.2 558.122 424 446.122 423.6 334.122L423.2 292.122V270.922C423.2 267.322 423.6 263.322 424.8 259.322C426 255.722 428 252.122 430 248.922C434.8 242.522 441.6 238.122 449.6 236.122C453.6 235.322 457.6 235.322 460.8 235.322H513.2L681.2 234.922L849.2 234.522H901.6C904.8 234.522 909.2 234.522 913.2 235.322C921.2 236.922 928 241.722 933.2 248.122C935.6 251.322 937.6 254.922 938.8 258.922C940 262.522 940.4 266.922 940.4 270.522V333.722L940 669.722C940 671.722 938.4 673.722 936 673.722L701.6 672.922L584.4 672.522L467.2 671.722C466.4 671.722 465.6 670.922 465.6 670.122C465.6 669.322 466.4 668.522 467.2 668.522L584.4 667.722L701.6 667.322L936 666.522L932 670.522L931.6 334.522V271.322C931.6 268.122 931.2 265.322 930.4 262.122C929.6 259.322 928 256.522 926.4 254.122C922.8 249.322 917.6 245.722 911.6 244.522C908.8 243.722 906 243.722 902 243.722H849.6L681.6 243.322L513.6 242.922H461.2C457.6 242.922 454.8 242.922 451.6 243.722C445.6 244.922 440.4 248.522 436.4 253.322C434.4 255.722 433.2 258.522 432 261.322C431.2 264.522 430.8 267.322 430.8 270.522V333.722C430.8 445.722 430 557.722 428.8 669.722C428.8 670.122 428.4 670.522 428 670.522C427.2 670.522 426.8 670.522 426.8 670.122Z" fill="#A7AAAD"/>
<path d="M935.6 317.322H401.2M637.2 602.122C656 567.322 684 556.922 699.2 556.922C734.4 556.922 748 576.122 777.6 576.122C807.2 576.122 823.2 530.122 869.2 530.122" stroke="#A7AAAD" stroke-miterlimit="10" stroke-linecap="round" stroke-linejoin="round" stroke-dasharray="5 5"/>
<path d="M1007.2 747.322C1007.2 747.322 1008 827.722 1002.8 830.522C1000.4 831.722 998 832.922 995.6 834.522C991.6 837.322 993.2 843.322 998 843.722C1002 844.122 1011.2 844.522 1016 844.122C1023.6 843.322 1025.6 837.722 1026.8 829.722L1038.4 747.322M1064 749.322C1064 749.322 1096.4 822.922 1092.4 827.722C1090.8 829.722 1088.8 831.722 1087.2 834.122C1084.8 838.122 1088.4 842.922 1092.8 841.722C1096.8 840.522 1105.2 837.322 1109.6 834.922C1116.4 831.322 1116 824.922 1114 817.722L1092.4 737.322" fill="#004E6E"/>
<path d="M1056.8 525.322C1070.4 520.522 1095.2 524.922 1110.4 564.922C1123.6 599.722 1122 642.522 1094 650.122C1077.6 654.522 1056.8 525.322 1056.8 525.322Z" fill="#3895BA"/>
<path d="M1007.2 752.122H1116C1103.6 669.722 1083.6 586.922 1083.6 586.922L1057.2 525.322C1057.2 525.322 1055.2 519.722 1041.6 526.522C1013.6 540.522 1008.4 690.922 1007.2 752.122ZM1297.2 529.322L1284 549.322L1038.4 342.522L1070.4 312.522L1293.6 500.522C1302 507.322 1303.6 519.722 1297.2 529.322Z" fill="#C3C4C7"/>
<path d="M1058.96 304.313C1085.42 264.332 1074.46 210.47 1034.48 184.008C994.501 157.546 940.638 168.505 914.176 208.486C887.714 248.466 898.673 302.329 938.654 328.791C978.634 355.253 1032.5 344.293 1058.96 304.313Z" stroke="#C3C4C7" stroke-width="8.00104" stroke-miterlimit="10" stroke-linecap="round" stroke-linejoin="round"/>
<path d="M1138 404.522L1162.8 331.722L1200.4 355.322L1164.8 416.122L1138 404.522Z" fill="white"/>
<path d="M1248 618.122C1319.2 683.322 1324.4 709.722 1343.2 766.522L1294.8 813.322L1246.4 740.522" fill="#3895BA"/>
<path d="M1175.2 507.322C1142.4 602.522 1140 628.922 1170.8 682.922L1175.2 507.322Z" fill="#3895BA"/>
<path d="M1162.8 331.722L1209.2 364.522L1164.8 416.122L1171.6 492.922H1268C1268 492.922 1282 473.722 1283.2 448.922C1284.4 424.122 1266 294.522 1221.2 289.322C1176 283.722 1162.8 331.722 1162.8 331.722Z" fill="#004E6E"/>
<path d="M394.8 776.522L410.4 817.722L381.6 834.922C381.6 834.922 355.6 802.922 314 712.922" fill="white"/>
<path d="M396.8 775.722L414 816.522C414.8 818.122 414 819.722 412.4 820.522L398 828.922C393.2 831.722 388.4 834.522 383.6 837.722C382.4 838.522 380.8 838.122 379.6 836.922C372.4 827.322 366.4 817.322 360.4 807.322C354.4 797.322 348.8 786.922 343.2 776.522C337.6 766.122 332.4 755.722 327.2 745.322C322 734.922 317.2 724.122 312.4 713.722C312 712.522 312.4 711.722 313.2 710.922C314 710.522 315.2 710.922 316 711.722C320.8 722.122 326 732.522 331.2 742.922C336.4 753.322 342 763.722 347.6 773.722C353.2 784.122 358.8 794.122 365.2 803.722C371.2 813.722 377.6 823.322 384.4 832.522L380.4 831.722L394.8 823.322C399.6 820.522 404.4 817.722 408.8 814.522L407.6 818.522L393.2 776.922C392.8 775.722 393.2 774.922 394.4 774.522C395.2 774.522 396.4 774.922 396.8 775.722Z" fill="#004E6E"/>
<path d="M376.4 828.922C390 821.322 432 799.322 439.2 798.122C446.4 796.522 447.6 797.322 441.2 803.322L382.4 838.922L376.4 828.922Z" fill="#004E6E" stroke="#004E6E" stroke-width="0.7347" stroke-miterlimit="10"/>
<path d="M346.4 798.522L339.6 842.922H303.6C303.6 842.922 298 801.722 308.8 703.322" fill="white"/>
<path d="M348.4 798.922L342.8 843.322C342.4 844.922 341.2 846.122 339.6 846.122C333.6 845.722 327.6 845.722 321.6 845.722H303.6C302 845.722 300.8 844.522 300.8 842.922C299.6 830.922 299.6 819.322 299.6 807.722C299.6 796.122 300 784.122 300.8 772.522L303.2 737.722L306.8 702.922C306.8 701.722 308 700.922 309.2 701.322C310.4 701.322 311.2 702.522 310.8 703.322C309.6 714.922 308.4 726.522 307.6 738.122C306.8 749.722 306 761.322 305.6 772.922C305.2 784.522 304.8 796.122 304.8 807.722C304.8 819.322 305.2 830.922 306.4 842.122L303.2 839.322H321.2C321.2 839.322 333.2 839.322 339.2 838.922L336 841.722L344.4 797.722C344.8 796.522 345.6 795.722 346.8 796.122C347.6 796.922 348.4 798.122 348.4 798.922ZM371.2 605.722L402.8 792.522L348 806.122" fill="#004E6E"/>
<path d="M306 500.922C285.2 590.122 298 642.922 295.6 663.322C292.8 683.722 278.4 768.122 281.6 797.722L348 806.522L384 544.522" fill="#3895BA"/>
<path d="M397.2 361.722C400.4 363.722 402.4 364.122 406.4 365.322C422.4 369.322 436.4 361.722 444 348.522C446 344.922 454 346.122 455.2 341.722C456.8 335.722 447.6 330.522 449.2 318.522C450.8 304.922 439.6 293.722 424.8 290.122C404 284.922 383.2 297.722 378 318.522" fill="white"/>
<path d="M398.4 359.722C400 360.522 401.6 361.322 403.6 361.722C405.6 362.122 407.6 362.522 409.2 362.922C412.8 363.322 416.8 363.322 420.4 362.522C427.6 360.922 433.6 356.522 438 350.522L439.6 348.122L440.4 346.922C440.8 346.522 440.8 346.522 441.6 345.322C442.8 343.722 444.4 342.922 445.6 342.522C446.8 342.122 448 341.722 448.8 341.322L451.2 340.522L451.6 340.122V339.322C451.6 339.322 451.2 338.522 451.2 337.722C450 334.922 447.2 330.522 446 326.122C445.6 323.722 445.2 321.322 445.6 318.922L446 316.122V313.722C445.6 307.322 440.8 301.322 434.4 297.322C428 293.722 420.8 291.722 413.2 292.122C398 292.922 384 303.722 380 318.922C379.6 320.122 378.4 320.522 377.6 320.122C376.4 319.722 376 318.922 376 317.722C377.6 309.322 382 301.322 388.8 295.722C395.2 289.722 403.6 286.122 412.4 285.322C421.2 284.522 430 286.522 438 290.922C442 293.322 445.6 296.122 448.4 299.722C451.2 303.322 453.2 308.122 453.6 312.922C453.6 314.122 454 315.322 453.6 316.522V319.722C453.6 321.322 453.6 322.922 454 324.522C454.8 327.722 456.4 330.522 458.4 334.922C459.2 336.922 460.4 340.522 458.4 344.122C457.2 346.122 455.6 346.922 454.4 347.722L450.8 348.922C448.8 349.322 447.2 350.122 447.6 350.122C447.6 349.722 447.2 350.522 446.8 350.922L446 352.122C445.2 352.922 444.8 353.722 444 354.922C438.4 361.722 430.4 366.922 421.6 368.522C417.2 369.322 412.8 368.922 408.4 368.122L402.4 366.522C400.4 365.722 398.4 364.522 396.4 363.322C395.6 362.522 395.2 361.322 396 360.522C396.4 359.722 397.6 359.322 398.4 359.722ZM1181.2 279.722C1179.2 280.922 1177.2 282.122 1174.8 282.522C1172.4 283.322 1170.4 283.722 1168.4 284.122C1164 284.922 1159.2 284.922 1154.4 284.122C1145.2 282.122 1136.8 276.522 1131.6 268.922L1129.6 266.122L1128.8 264.522C1128.4 264.122 1128 263.322 1128 263.322C1128 263.322 1126.4 262.522 1124.4 261.722L1120.8 260.522C1119.6 259.722 1117.6 258.922 1116.8 256.922C1114.8 252.922 1116.4 249.322 1117.2 247.322C1119.6 242.922 1121.6 240.122 1122.4 236.522C1122.8 234.922 1123.2 232.922 1123.2 231.322V228.122C1123.2 226.922 1123.2 225.722 1123.6 224.522C1124.4 219.322 1126.8 214.922 1129.6 210.922C1132.8 207.322 1136.8 204.122 1140.8 202.122C1149.2 197.722 1158.8 196.122 1168 197.322C1177.2 198.522 1186 202.922 1192.4 209.322C1199.2 215.722 1203.2 224.122 1204.8 233.322C1204.8 234.522 1204.4 235.322 1203.2 235.722C1202 235.722 1201.2 235.322 1200.8 234.122C1197.2 218.122 1182.8 205.722 1167.2 204.522C1159.6 203.722 1151.2 205.322 1144.4 209.322C1137.6 212.922 1132.4 218.922 1131.2 226.122C1131.2 226.922 1130.8 227.722 1131.2 228.922V232.122C1131.2 234.522 1131.2 237.322 1130.4 239.722C1129.2 244.522 1126 248.922 1124.4 251.722C1124 252.522 1123.6 253.322 1123.6 253.722V254.522L1124.4 254.922C1124.8 255.322 1126 255.722 1126.8 255.722C1128 256.122 1128.8 256.522 1130.4 256.922C1131.6 257.322 1133.2 258.522 1134.4 260.122C1135.2 261.322 1135.2 261.322 1135.6 261.722L1136.4 262.922L1138 265.322C1142.4 271.722 1148.8 276.922 1156.4 278.922C1160 279.722 1164 280.122 1168 279.722C1170 279.722 1172 279.322 1174 278.922C1176 278.522 1177.6 277.722 1179.6 276.922C1180.4 276.522 1181.6 276.922 1182.4 277.722C1182.4 278.122 1182 279.322 1181.2 279.722Z" fill="#004E6E"/>
<path d="M301.6 834.922C317.2 835.322 364.4 838.522 371.6 840.922C378.8 843.322 379.2 844.522 370.4 846.522C362 848.522 301.6 846.522 301.6 846.522V834.922Z" fill="#004E6E" stroke="#004E6E" stroke-width="0.7347" stroke-miterlimit="10"/>
<path d="M429.6 351.322C432.4 353.722 435.6 354.522 435.6 354.522" stroke="#004E6E" stroke-miterlimit="10" stroke-linecap="round" stroke-linejoin="round"/>
<path d="M430.8 335.722C429.6 335.322 429.2 333.722 429.6 332.522L431.2 328.922C431.6 327.722 433.2 327.322 434.4 327.722C435.6 328.122 436 329.722 435.6 330.922L434 334.522C433.6 335.722 432 336.122 430.8 335.722Z" fill="#004E6E"/>
<path d="M391.6 499.322L384 544.122L281.2 522.522C281.2 522.522 308.8 366.522 366 366.122C384.4 366.122 403.2 380.122 400 409.722" fill="#3895BA"/>
<path d="M394 424.922C404 400.522 416 374.922 435.2 369.722C454.4 364.522 438 391.322 428 400.122C426.4 411.322 438.8 484.122 392.4 483.722C333.2 483.322 337.6 386.122 362 380.122C383.6 374.922 386.8 409.322 396.4 440.922" fill="white"/>
<path d="M392 424.122C395.6 415.322 399.2 406.522 403.6 397.722C408 389.322 413.6 380.922 421.2 374.122C425.2 370.922 429.6 368.122 434.8 366.922C436 366.522 437.6 366.122 438.8 366.122C440.4 366.122 442 366.122 444 367.322C446 368.522 446.8 370.922 447.2 372.522C447.2 374.122 447.2 375.722 446.8 376.922C445.6 382.122 442.8 386.522 440.4 390.922C437.6 394.922 434.8 398.922 430.8 402.522L432 400.122C431.6 402.522 432 406.122 432 409.322V419.322C432 426.122 432 432.522 431.2 439.322C430.4 446.122 429.6 452.522 427.2 459.322C425.2 465.722 422 472.122 416.8 477.322C411.6 482.522 404.4 485.722 397.6 486.122C390.4 486.922 383.6 486.122 376.8 483.722C370 481.322 364 477.322 359.2 472.522C354.4 467.322 350.8 461.322 348 454.922C342.8 442.122 341.2 428.522 342 414.922C342.4 408.122 343.6 401.322 345.6 394.922C346.8 391.722 348 388.522 350 385.322C352 382.522 354.4 379.322 358.4 377.722C359.2 377.322 360.4 376.922 361.2 376.922C362 376.922 363.2 376.522 364 376.522C366 376.122 368 376.522 370 376.922C374 377.722 377.2 380.522 379.6 383.322C384 388.922 386.4 395.722 388.4 401.722C392.4 414.522 394.8 427.322 398.4 439.722C398.8 440.922 398 441.722 397.2 442.122C396 442.522 395.2 441.722 394.8 440.922L384 403.322C382 397.322 379.6 391.322 376 386.522C374 384.122 372 382.522 369.6 382.122C368.4 381.722 367.2 381.722 365.6 382.122L363.6 382.522C363.6 382.522 362.4 382.922 362 383.322C357.6 385.722 354.4 391.722 352.4 397.322C350.4 403.322 349.2 409.322 348.8 415.722C348 428.522 349.6 441.322 354.4 452.922C359.2 464.522 367.6 474.522 379.2 478.122C390.4 481.722 404.8 481.322 412.8 472.922C417.2 468.922 419.6 463.322 421.6 457.322C423.6 451.322 424.4 444.922 424.8 438.522C425.2 432.122 425.2 425.722 425.2 419.322L424.8 409.722C424.8 406.522 424.4 403.322 424.8 399.322C424.8 398.522 425.2 397.722 425.6 397.322L426 396.922C429.2 394.122 432.4 390.522 434.8 386.922C437.2 383.322 440 379.322 440.8 375.322C441.2 374.522 441.2 373.322 441.2 372.922C441.2 372.122 441.2 372.122 440.8 372.122C440.4 371.722 438 371.722 436 372.122C432 373.322 428 375.322 424.4 378.122C417.6 383.722 412 391.722 407.6 399.722C403.2 407.722 399.2 416.522 395.6 425.322C395.2 426.522 394 426.922 392.8 426.522C392 426.122 391.6 424.922 392 424.122ZM374.4 330.922C374.4 343.322 428.4 336.122 444 297.322C444 297.322 411.6 279.722 394.4 291.322C376.8 303.722 374.4 318.522 374.4 330.922ZM403.6 364.522L396.8 375.722L396.4 361.722" fill="#004E6E"/>
<path d="M404.8 364.922C403.2 368.922 400.8 372.922 398.8 376.522C398.4 377.322 397.2 377.722 396 377.322C395.6 376.922 395.2 376.122 395.2 375.722V368.922C395.2 366.522 395.6 364.122 396 362.122C396 361.722 396.8 361.322 397.2 361.322C397.6 361.322 398 361.722 398 362.122C398.4 364.522 398.8 366.922 398.8 368.922C398.8 371.322 399.2 373.722 399.2 375.722L395.6 374.522C398 370.922 400.4 367.322 403.6 363.722C404 363.322 404.8 363.322 405.2 363.722C404.8 364.122 404.8 364.522 404.8 364.922ZM382.8 266.522C360 278.922 378.8 305.722 400.4 295.322C422 284.922 406 254.122 382.8 266.522ZM372.4 241.322C354 251.322 368 276.522 385.2 268.122C402.4 259.722 391.2 230.922 372.4 241.322Z" fill="#004E6E"/>
<path d="M335.2 534.922C335.6 540.922 335.6 552.922 337.2 564.922L335.2 534.922Z" fill="white"/>
<path d="M337.2 534.922C338 540.122 338.4 544.922 338.8 549.722C339.2 554.522 339.6 559.722 339.2 564.522C339.2 565.722 338.4 566.522 337.2 566.522C336.4 566.522 335.6 565.722 335.2 564.922C333.6 560.122 333.2 554.922 332.8 549.722C332.4 544.522 332.8 539.722 333.2 534.522C333.2 533.322 334.4 532.522 335.6 532.522C336.4 533.322 337.2 534.122 337.2 534.922Z" fill="#004E6E"/>
<path d="M1209.2 364.522C1209.2 364.522 1172.8 451.322 1151.6 454.922C1130.4 458.522 1092.8 410.122 1077.6 394.922C1049.2 392.522 1043.2 355.322 1049.6 350.522C1059.2 343.722 1073.6 372.522 1079.6 368.122C1085.6 363.722 1071.6 351.322 1076.8 346.922C1081.6 342.922 1096 356.922 1099.6 371.722C1100.4 374.922 1102.4 377.322 1105.2 378.522C1126.4 386.522 1145.6 396.922 1145.6 396.922" fill="white"/>
<path d="M1211.2 365.322C1204.8 381.322 1197.6 397.322 1189.6 412.522C1185.6 420.122 1181.2 427.722 1176.4 435.322C1174 438.922 1171.6 442.522 1168.8 446.122C1166 449.722 1162.8 452.922 1158.8 455.722C1158 456.522 1156.4 456.922 1155.2 457.722C1154 458.122 1152.4 458.922 1151.2 458.922C1148.4 459.322 1146 458.922 1143.6 458.122C1138.8 456.922 1134.8 454.522 1130.8 452.122C1123.2 447.322 1116.4 441.322 1110 435.322C1103.6 429.322 1097.6 422.922 1092 416.522C1086 410.122 1080.4 403.322 1074.8 397.322L1077.2 398.522C1072.4 398.122 1067.2 396.522 1063.2 394.122C1058.8 391.722 1055.2 388.122 1052.4 384.122C1049.6 380.122 1047.2 375.722 1046 371.322C1044.4 366.922 1043.6 362.122 1043.6 357.322C1043.6 356.122 1043.6 354.922 1044 353.322C1044.4 352.122 1044.8 350.522 1046 348.922L1047.2 347.722L1048.4 346.922C1049.2 346.522 1050 346.122 1051.2 346.122C1053.2 345.722 1054.8 346.122 1056.4 346.522C1059.2 347.722 1061.2 348.922 1063.2 350.522C1065.2 352.122 1066.8 353.722 1068.4 355.322C1071.6 358.522 1074.4 362.122 1077.2 364.122C1078 364.522 1078.4 364.922 1078.8 364.922H1078.4V364.122C1078.4 363.722 1078 362.522 1077.6 361.722C1076.8 360.122 1076 358.122 1074.8 356.122C1074.4 354.922 1073.6 354.122 1073.2 352.522C1072.8 351.322 1072.4 349.722 1072.8 347.322C1073.2 344.922 1075.2 343.322 1077.2 342.922C1079.2 342.522 1081.2 342.922 1082.4 343.322C1085.2 344.522 1087.2 345.722 1088.8 347.322C1092.4 350.522 1095.2 354.122 1097.6 358.122C1098.8 360.122 1100 362.122 1100.8 364.522C1101.2 365.722 1101.6 366.922 1102 367.722L1102.8 370.922C1103.2 372.522 1104.4 373.722 1105.6 374.522C1106 374.522 1106.4 374.922 1106.4 374.922L1108 375.722L1111.2 376.922L1123.2 382.122C1131.2 385.722 1139.2 389.722 1146.8 394.122C1147.6 394.522 1148 395.722 1147.6 396.922C1147.2 397.722 1146 398.122 1144.8 397.722C1137.2 393.722 1129.2 390.122 1121.2 386.522L1109.2 381.722L1106 380.522L1104.4 380.122L1102.4 379.322C1100 377.722 1098 375.322 1097.2 372.922L1096.4 369.722L1095.2 366.922C1094.4 364.922 1093.6 363.322 1092.4 361.322C1090.4 357.722 1087.6 354.522 1084.8 352.122C1083.2 350.922 1081.6 349.722 1080.4 349.322C1079.6 348.922 1079.2 348.922 1079.2 348.922C1079.2 348.922 1079.6 351.322 1080.4 352.922C1081.2 354.922 1082.4 356.522 1083.6 358.922C1084 360.122 1084.4 361.322 1084.8 362.922C1085.2 364.522 1084.8 366.922 1083.6 368.522C1082.8 369.322 1082.4 370.122 1081.2 370.522C1080 371.322 1078.4 371.322 1077.6 370.922C1075.6 370.522 1074.4 369.722 1073.2 368.922C1069.2 365.722 1066.4 362.522 1063.2 359.322C1060.4 356.522 1056.8 353.322 1054.4 352.522C1053.6 352.122 1053.2 352.122 1053.2 352.522H1052.4C1052.4 352.522 1052 353.322 1052 354.122C1052 354.922 1051.6 355.722 1051.6 356.922C1051.6 364.522 1054.4 372.922 1059.2 379.322C1064 385.722 1070.8 389.722 1078.4 390.522C1079.2 390.522 1080.4 390.922 1080.8 391.722C1092.8 404.522 1103.6 417.722 1116 429.322C1122 435.322 1128.4 440.922 1135.2 445.322C1142 449.722 1150 453.322 1155.2 449.322C1158.4 447.322 1161.2 444.522 1164 441.322C1166.8 438.122 1169.2 434.922 1171.6 431.322C1176.4 424.522 1180.8 416.922 1184.8 409.322C1193.2 394.522 1200.8 378.922 1208 363.322C1208.4 362.122 1209.6 361.722 1210.8 362.522C1211.2 363.322 1211.6 364.522 1211.2 365.322Z" fill="#004E6E"/>
<path d="M1116.4 202.522C1115.2 220.122 1132.8 222.922 1142 229.722C1151.6 236.922 1152 245.722 1161.2 248.122C1170.4 250.522 1174.4 246.122 1185.6 248.522C1196 250.522 1199.6 257.722 1211.6 255.722C1221.2 254.122 1228 250.122 1229.6 236.122C1231.2 222.122 1224 220.122 1221.2 206.922C1218.4 193.722 1218 186.522 1204.8 182.122C1192.8 178.122 1187.2 182.122 1177.2 178.522C1167.2 174.922 1163.6 170.122 1152.4 170.922C1144.8 171.322 1140.4 174.922 1134 182.522C1127.2 189.722 1117.2 187.722 1116.4 202.522Z" fill="#3895BA"/>
<path d="M1141.2 262.922C1137.6 264.922 1135.2 266.122 1135.2 266.122" stroke="#004E6E" stroke-miterlimit="10" stroke-linecap="round" stroke-linejoin="round"/>
<path d="M1143.6 247.322C1144.8 246.922 1145.6 245.722 1145.6 244.122L1144.4 240.122C1144 238.922 1142.8 238.122 1141.2 238.122C1140 238.522 1139.2 239.722 1139.2 241.322L1140.4 245.322C1141.2 246.922 1142.4 247.722 1143.6 247.322Z" fill="#004E6E"/>
<path d="M1175.6 492.922L1170.8 835.322L1231.6 826.922C1231.6 826.922 1256.8 738.522 1252.8 689.722C1245.2 599.322 1271.6 553.722 1268 492.922" fill="white"/>
<path d="M1177.6 493.322L1176 664.522L1175.2 750.122C1175.2 778.522 1174 807.322 1173.6 835.722L1170 832.522L1230.8 824.122L1228.4 826.122C1235.6 799.322 1242 771.722 1246 744.122C1248 730.522 1249.6 716.522 1250 702.522C1250 695.722 1249.6 688.922 1249.2 681.722C1248.8 674.522 1248.4 667.722 1248.4 660.522C1248.4 646.522 1248.8 632.122 1250.4 618.122C1252 604.122 1254 590.122 1256.4 576.122C1261.2 548.522 1266.8 520.922 1265.2 492.922C1265.2 491.722 1266 490.922 1267.2 490.922C1268.4 490.922 1269.2 491.722 1269.2 492.922C1271.2 521.322 1265.6 549.322 1261.2 576.922C1258.8 590.922 1256.8 604.522 1255.2 618.522C1253.6 632.522 1253.2 646.522 1253.2 660.122C1253.2 666.922 1253.6 674.122 1254 680.922C1254.4 687.722 1255.2 694.922 1255.2 702.122C1255.2 716.522 1253.6 730.522 1251.6 744.522C1247.6 772.522 1241.2 800.122 1234 827.322C1233.6 828.522 1232.8 829.322 1231.6 829.322L1170.8 837.722C1169.2 838.122 1167.6 836.922 1167.6 835.322V834.922L1168.4 749.322L1170 663.722L1173.2 492.522C1173.2 491.322 1174 490.522 1175.2 490.522C1176.8 491.322 1177.6 492.122 1177.6 493.322ZM1343.2 766.122C1326.8 780.122 1276.4 823.722 1270.8 832.522C1265.2 841.322 1265.6 842.922 1276.8 837.722C1286 833.322 1333.2 794.122 1347.6 782.122C1350 780.122 1350.4 776.922 1348.8 774.122L1343.2 766.122Z" fill="#3895BA"/>
<path d="M1176 281.322L1185.2 294.122C1183.2 291.322 1180.8 278.122 1180.8 278.122" fill="#004E6E"/>
<path d="M1176 281.322L1185.2 294.122C1183.2 291.322 1180.8 278.122 1180.8 278.122" stroke="#004E6E" stroke-miterlimit="10" stroke-linecap="round" stroke-linejoin="round"/>
<path d="M1042.8 558.922C1041.2 554.522 1040.4 549.722 1040.4 544.922C1040.4 540.122 1040.8 534.922 1043.2 530.122C1043.6 528.922 1044.4 527.722 1045.2 526.522C1046 525.322 1047.2 524.122 1048 523.322C1050.4 521.322 1053.2 520.122 1056.4 520.122C1062.8 520.522 1067.2 524.122 1069.6 528.122C1070.4 528.922 1070 530.122 1069.2 530.922C1068.4 531.322 1067.6 531.322 1066.8 530.922C1063.6 528.122 1059.6 526.522 1056.8 526.922C1055.2 527.322 1054 527.722 1053.2 528.922C1052 530.122 1051.2 531.722 1050.4 533.322C1048.8 536.922 1048 540.922 1047.6 544.922C1047.2 549.322 1046.8 553.322 1046.4 558.122C1046.4 559.322 1045.2 560.122 1044 560.122C1043.6 560.122 1043.2 559.722 1042.8 558.922ZM1070 629.722C1072.8 631.722 1074.8 634.122 1077.2 636.122L1083.6 642.122C1086 643.722 1088 645.322 1090.4 645.722C1091.6 646.122 1092.4 646.122 1093.6 645.722C1094.8 645.722 1096 644.922 1096.8 644.122L1097.2 643.722C1098 642.922 1099.2 643.322 1100 644.122C1100.4 644.522 1100.4 645.322 1100 646.122C1099.2 648.122 1097.6 649.722 1095.6 650.922C1093.6 652.122 1091.6 652.522 1089.2 652.122C1084.8 651.722 1081.6 649.722 1078.4 647.722C1076.8 646.522 1075.6 645.322 1074.4 644.122C1073.2 642.922 1072 641.722 1071.2 640.122C1069.2 637.322 1067.6 634.522 1066.4 631.322C1066 630.122 1066.4 628.922 1067.6 628.522C1068.8 628.922 1069.6 629.322 1070 629.722Z" fill="#3895BA"/>
<path d="M1052 608.122C1052 608.122 1042 530.922 1057.2 529.722C1081.6 527.722 1096.4 645.722 1062.4 648.522C1030.8 650.922 1012.8 556.522 1046 543.722" fill="#A7AAAD"/>
<path d="M1050 608.122C1047.6 593.722 1046.4 579.722 1045.6 565.322C1045.2 558.122 1045.2 550.922 1046.4 543.322C1046.8 539.722 1047.6 535.722 1049.2 531.722C1050.4 529.722 1051.6 527.322 1054.8 526.122C1055.6 525.722 1056.4 525.722 1057.2 525.722H1059.2C1060.4 525.722 1061.6 526.522 1062.8 526.922C1067.2 528.922 1069.6 532.522 1071.6 535.722C1073.6 538.922 1075.2 542.522 1076.8 546.122C1079.6 552.922 1081.2 560.122 1082.8 567.322C1085.6 581.722 1086.8 596.122 1086 610.922C1085.6 618.122 1084.4 625.722 1082 632.922C1080.8 636.522 1079.2 640.122 1076.8 643.322C1074.4 646.522 1070.8 649.722 1066.4 650.922C1062 652.122 1057.2 651.722 1053.6 649.722C1049.6 648.122 1046.4 645.322 1044 642.522C1038.8 636.522 1035.6 629.722 1032.8 622.922C1027.6 608.922 1025.2 594.522 1026 579.722C1026.4 572.522 1027.6 564.922 1030.4 558.122C1033.2 551.322 1038.4 544.522 1045.6 541.722C1046.8 541.322 1047.6 541.722 1048 542.922C1048.4 543.722 1048 544.922 1046.8 545.322C1040.8 547.722 1036.8 553.722 1034.8 559.722C1032.4 566.122 1031.6 572.922 1031.6 579.722C1031.6 593.722 1034 607.722 1039.2 620.522C1041.6 626.922 1045.2 632.922 1049.2 637.722C1053.6 642.522 1059.2 645.322 1064.4 643.722C1069.2 642.122 1072.8 636.522 1074.8 630.122C1076.8 623.722 1078 616.922 1078.4 610.122C1079.2 596.122 1078 582.122 1075.6 568.522C1074.4 561.722 1072.4 554.922 1070 548.522C1068.8 545.322 1067.6 542.122 1065.6 539.322C1064 536.522 1062 534.122 1060 532.922C1059.6 532.922 1059.2 532.522 1058.4 532.522H1057.2C1057.2 532.522 1056 533.322 1055.6 534.522C1054.4 536.922 1053.6 540.522 1053.2 543.722C1052 550.522 1052 557.722 1052 564.522C1052 578.522 1052.8 592.922 1054.4 606.922C1054.4 608.122 1053.6 608.922 1052.4 608.922C1050.8 610.122 1050 609.322 1050 608.122Z" fill="#004E6E"/>
<path d="M1072 485.722C1075.6 462.922 1055.6 435.722 1034.4 438.922C1006.4 443.322 1000.4 463.722 1005.6 482.122C1006.8 486.122 1003.6 491.722 1005.6 495.322C1007.6 498.522 1012.4 495.722 1014 498.922C1021.6 510.922 1036 516.522 1049.6 510.922C1056 508.122 1064 502.522 1066.8 498.122" fill="#A7AAAD"/>
<path d="M1070 485.322C1071.2 476.922 1069.2 468.122 1065.2 460.922C1061.2 453.322 1055.2 446.922 1047.6 443.322C1044 441.722 1040 440.922 1036 441.322C1032 441.722 1027.6 442.922 1024 444.922C1016.4 448.122 1010.4 454.522 1008.4 462.122C1007.2 466.122 1007.2 470.122 1007.6 474.122L1008.8 480.122C1009.2 480.922 1009.6 482.922 1009.6 484.522C1009.6 486.122 1009.2 487.322 1009.2 488.522C1008.8 490.922 1008.4 492.922 1008.8 493.722H1010.8C1010.8 493.722 1014.4 493.722 1016.4 495.722L1017.6 496.922L1018 497.722L1018.8 498.922C1020 500.522 1021.2 502.122 1022.8 503.322C1028.8 508.522 1036.8 510.522 1044.4 508.922C1048 508.122 1051.6 506.522 1055.6 504.522C1057.6 503.722 1059.2 502.522 1060.8 501.322C1062.4 500.122 1064.4 498.922 1065.6 497.722C1066.4 496.922 1067.6 496.922 1068.4 497.722C1068.8 498.522 1069.2 499.322 1068.8 500.122C1066.4 504.922 1062.8 508.122 1059.2 510.922C1055.6 513.722 1051.2 516.122 1046 517.322C1036 519.722 1025.2 516.522 1017.6 509.722C1015.6 508.122 1014 506.122 1012.4 504.122L1011.2 502.522L1010.8 501.722C1011.2 502.122 1011.2 501.722 1010 501.722C1009.2 501.722 1007.6 501.722 1005.2 500.922C1003.2 500.122 1001.6 498.122 1001.2 496.122C1000.4 492.522 1001.2 490.122 1001.6 487.722C1001.6 486.522 1002 485.722 1002 484.922C1002 484.122 1002 484.122 1001.6 482.522C1000.8 480.122 1000.4 477.722 1000.4 475.322C1000 470.522 1000.4 465.722 1001.6 460.922C1002.8 456.122 1005.6 451.722 1008.8 448.122C1012.4 444.522 1016.4 442.122 1020.8 440.122C1025.2 438.522 1029.6 437.322 1034.4 436.922C1039.2 436.522 1044.4 437.322 1048.8 439.322C1057.6 443.322 1064 450.922 1068.4 459.322C1072.8 467.722 1074.8 477.322 1073.2 486.522C1073.2 487.722 1072 488.522 1070.8 488.122C1070.4 487.322 1069.6 486.522 1070 485.322ZM1010.4 451.722C1017.2 462.522 1028 469.322 1039.6 474.522C1051.2 479.722 1064 482.922 1076.8 486.922C1078 487.322 1078.4 488.522 1078 489.322C1077.6 490.122 1076.8 490.922 1076 490.922C1069.2 490.522 1062.8 489.322 1056 488.122C1049.2 486.522 1042.8 484.922 1036.4 482.122C1030 479.322 1024 476.122 1018.4 471.322C1013.2 466.522 1008.8 460.522 1006.8 453.722C1006.4 452.522 1007.2 451.722 1008 451.322C1008.8 450.522 1009.6 450.922 1010.4 451.722Z" fill="#004E6E"/>
<path d="M1024.4 442.121C1029.6 430.121 1008.8 419.721 1000 435.721C995.601 443.721 999.601 455.321 1008 456.121" fill="#004E6E"/>
<path d="M1022.8 441.322C1023.6 436.922 1021.2 433.722 1017.2 432.122C1013.6 430.522 1009.2 431.322 1006.4 433.722C1005.2 434.922 1003.6 436.922 1002.8 438.522C1002 440.122 1001.6 442.122 1002 444.522C1002.4 448.522 1004.4 452.522 1008.4 454.122C1009.6 454.522 1010 455.722 1009.6 456.522C1009.2 457.322 1008.4 457.722 1007.6 457.722C1004.4 457.722 1001.2 456.122 998.8 453.722C996.4 451.322 995.2 448.122 994.4 444.922C994 441.722 994 438.522 995.2 435.322C996.4 432.122 998.4 429.722 1000.8 427.322C1003.2 425.322 1006.8 423.722 1010 423.322C1013.6 422.922 1016.8 423.722 1019.6 425.322C1022.4 426.922 1024.8 429.322 1026.4 432.522C1027.6 435.722 1027.2 439.722 1025.6 442.122C1025.2 442.922 1023.6 443.322 1022.8 442.922C1022.8 442.922 1022.4 442.122 1022.8 441.322Z" fill="#004E6E"/>
<path d="M1018.8 481.322L1019.2 484.522" stroke="#004E6E" stroke-width="1.3476" stroke-miterlimit="10" stroke-linecap="round" stroke-linejoin="round"/>
<path d="M1017.2 502.522C1018.8 502.922 1020.4 502.522 1022 502.122L1024.4 500.922C1025.2 500.522 1025.6 499.722 1026 499.322C1026.4 498.522 1027.2 498.522 1028 498.922C1028.4 499.322 1028.8 499.722 1028.8 500.122C1028.8 501.722 1028 502.922 1027.2 504.122C1026.4 505.322 1025.2 505.722 1024 506.522C1022.8 506.922 1021.2 507.322 1020 506.922C1018.8 506.922 1017.2 506.522 1016 505.322C1015.6 504.922 1015.6 504.122 1016 503.322C1016 502.522 1016.4 502.522 1017.2 502.522ZM1060.8 450.122C1062.4 463.322 1092 468.922 1092 444.522C1092 420.122 1057.2 419.722 1060.8 450.122Z" fill="#004E6E"/>
<path d="M1062.8 450.122C1063.2 453.722 1066.4 456.522 1070 457.722C1073.6 458.922 1077.6 458.922 1080.8 457.722C1084 456.522 1086 453.722 1087.2 450.522C1088 447.322 1088.4 442.922 1087.6 439.722C1086.8 436.122 1084.8 433.322 1082 431.322C1079.2 429.322 1075.2 428.922 1072 430.122C1068.8 431.322 1065.6 434.122 1064.4 437.722C1062.4 441.722 1062.4 445.722 1062.8 450.122ZM1058.8 450.522C1058.4 446.122 1058.4 440.922 1060 436.522C1061.6 432.122 1064.8 427.322 1069.6 425.322C1074.4 423.322 1080.4 423.322 1085.2 425.722C1090 428.122 1093.6 432.922 1095.2 438.122C1096 440.522 1096 443.322 1096 445.722C1096 448.122 1095.6 450.922 1094.8 453.322C1094 455.722 1092.4 458.522 1090.4 460.122C1088.4 462.122 1085.6 463.322 1083.2 464.122C1078 465.322 1072.8 464.522 1068.4 462.122C1066 460.922 1064 459.722 1062.4 457.722C1060.4 455.722 1058.8 452.922 1058.8 450.522Z" fill="#004E6E"/>
<path d="M1161.2 344.522C1160.4 348.922 1159.2 353.322 1158 357.722C1156.4 362.122 1155.2 366.122 1153.2 370.522L1148 382.922C1146 386.922 1144 390.922 1141.6 394.922C1141.2 395.722 1139.6 396.122 1138.8 395.722C1138 395.322 1137.6 394.522 1138 393.722C1138.8 389.322 1140.4 384.922 1141.6 380.522C1142.8 376.122 1144.4 372.122 1146 367.722C1147.6 363.322 1149.2 359.322 1151.2 355.322C1153.2 351.322 1155.2 347.322 1157.6 343.322C1158.4 342.522 1159.6 342.122 1160.4 342.922C1161.2 342.922 1161.2 343.722 1161.2 344.522Z" fill="#004E6E"/>
<path d="M1018 445.722C1005.2 445.722 1010.8 451.722 1010.8 451.722C1010.8 451.722 1007.2 452.922 1010.8 457.722C1014.4 462.522 1037.2 479.722 1054 484.122C1071.2 488.122 1069.2 490.122 1070 488.122C1071.2 486.122 1075.2 472.922 1065.2 458.522C1055.2 444.122 1046.4 436.922 1033.2 439.322L1018 445.722Z" fill="#004E6E"/>
<path d="M1240 823.322C1218.4 824.122 1153.2 828.122 1143.2 831.722C1133.6 835.322 1132.8 836.522 1144.4 839.322C1156.4 842.122 1239.6 839.322 1239.6 839.322V823.322H1240Z" fill="#3895BA"/>
</svg>
