<svg width="24" height="24" viewBox="0 0 24 24" fill="none" xmlns="http://www.w3.org/2000/svg">
<mask id="mask0_0_280" style="mask-type:alpha" maskUnits="userSpaceOnUse" x="3" y="3" width="18" height="18">
<path fill-rule="evenodd" clip-rule="evenodd" d="M15.846 13.846L21 19L19 21L13.846 15.846C12.742 16.574 11.421 17 10 17C6.134 17 3 13.866 3 10C3 6.134 6.134 3 10 3C13.866 3 17 6.134 17 10C17 11.421 16.574 12.742 15.846 13.846ZM10 5C7.243 5 5 7.243 5 10C5 12.757 7.243 15 10 15C12.757 15 15 12.757 15 10C15 7.243 12.757 5 10 5Z" fill="white"/>
</mask>
<g mask="url(#mask0_0_280)">
<rect width="24" height="24" fill="#1E1E1E"/>
</g>
</svg>
