<svg width="24" height="24" viewBox="0 0 24 24" fill="none" xmlns="http://www.w3.org/2000/svg">
<path d="M7.37308 14.1069C7.37308 15.0361 6.62208 15.7871 5.69289 15.7871C4.76369 15.7871 4.0127 15.0361 4.0127 14.1069C4.0127 13.1778 4.76369 12.4268 5.69289 12.4268H7.37308V14.1069ZM8.21317 14.1069C8.21317 13.1778 8.96417 12.4268 9.89336 12.4268C10.8226 12.4268 11.5736 13.1778 11.5736 14.1069V18.3074C11.5736 19.2366 10.8226 19.9876 9.89336 19.9876C8.96417 19.9876 8.21317 19.2366 8.21317 18.3074V14.1069Z" fill="#E01E5A"/>
<path d="M9.8934 7.36038C8.9642 7.36038 8.21321 6.60939 8.21321 5.68019C8.21321 4.75099 8.9642 4 9.8934 4C10.8226 4 11.5736 4.75099 11.5736 5.68019V7.36038H9.8934ZM9.8934 8.21321C10.8226 8.21321 11.5736 8.9642 11.5736 9.8934C11.5736 10.8226 10.8226 11.5736 9.8934 11.5736H5.68019C4.75099 11.5736 4 10.8226 4 9.8934C4 8.9642 4.75099 8.21321 5.68019 8.21321H9.8934Z" fill="#36C5F0"/>
<path d="M16.6267 9.8934C16.6267 8.9642 17.3777 8.21321 18.3069 8.21321C19.2361 8.21321 19.9871 8.9642 19.9871 9.8934C19.9871 10.8226 19.2361 11.5736 18.3069 11.5736H16.6267V9.8934ZM15.7867 9.8934C15.7867 10.8226 15.0357 11.5736 14.1065 11.5736C13.1773 11.5736 12.4263 10.8226 12.4263 9.8934V5.68019C12.4263 4.75099 13.1773 4 14.1065 4C15.0357 4 15.7867 4.75099 15.7867 5.68019V9.8934Z" fill="#2EB67D"/>
<path d="M14.1065 16.6272C15.0357 16.6272 15.7867 17.3782 15.7867 18.3074C15.7867 19.2366 15.0357 19.9876 14.1065 19.9876C13.1773 19.9876 12.4263 19.2366 12.4263 18.3074V16.6272H14.1065ZM14.1065 15.7871C13.1773 15.7871 12.4263 15.0361 12.4263 14.1069C12.4263 13.1778 13.1773 12.4268 14.1065 12.4268H18.3197C19.2489 12.4268 19.9999 13.1778 19.9999 14.1069C19.9999 15.0361 19.2489 15.7871 18.3197 15.7871H14.1065Z" fill="#ECB22E"/>
</svg>
