<?xml version="1.0" encoding="iso-8859-1"?>
<!-- Uploaded to: SVG Repo, www.svgrepo.com, Generator: SVG Repo Mixer Tools -->
<!DOCTYPE svg PUBLIC "-//W3C//DTD SVG 1.1//EN" "http://www.w3.org/Graphics/SVG/1.1/DTD/svg11.dtd">
<svg fill="#d63638" version="1.1" id="Capa_1" xmlns="http://www.w3.org/2000/svg" xmlns:xlink="http://www.w3.org/1999/xlink" 
	 width="24px" height="24px" viewBox="0 0 34.854 34.855"
	 xml:space="preserve">
<g>
	<path d="M34.653,30.47L18.727,2.884c-0.269-0.464-0.764-0.75-1.299-0.75c-0.537,0-1.031,0.286-1.3,0.75L0.202,30.47
		c-0.269,0.464-0.269,1.036,0,1.5s0.763,0.75,1.299,0.75h31.853c0.535,0,1.031-0.286,1.3-0.75
		C34.921,31.506,34.921,30.934,34.653,30.47z M4.099,29.72L17.427,6.634L30.756,29.72H4.099z M15.427,11.677h4V23.51h-4V11.677z
		 M15.427,25.507h4v2.919h-4V25.507z"/>
</g>
</svg>